<?xml version="1.0" encoding="UTF-8"?>
<svg width="117px" height="16px" viewBox="0 0 117 16" version="1.1" xmlns="http://www.w3.org/2000/svg" xmlns:xlink="http://www.w3.org/1999/xlink">
    <!-- Generator: Sketch 47.1 (45422) - http://www.bohemiancoding.com/sketch -->
    <title>dworks_app</title>
    <desc>Created with Sketch.</desc>
    <defs></defs>
    <g id="Page-1" stroke="none" stroke-width="1" fill="none" fill-rule="evenodd">
        <g id="dworks_app" transform="translate(-15.000000, -16.000000)">
            <rect id="bounding_box_clear_space" x="0" y="0" width="149" height="46"></rect>
            <g id="app" transform="translate(106.000000, 20.000000)" fill-rule="nonzero" fill="#FFFFFF">
                <path d="M11.6581818,6.42857143 L11.6581818,9.72857143 L10.0872727,9.72857143 L10.0872727,0.807142857 L13.5490909,0.807142857 C14.4223942,0.762019452 15.2812344,1.03978959 15.9563636,1.58571429 C16.5541295,2.10457581 16.8826082,2.85996225 16.8509091,3.64285714 C16.8941999,4.41713021 16.5723371,5.16790388 15.9781818,5.67857143 C15.2781001,6.19850694 14.4101682,6.45220727 13.5345455,6.39285714 L11.6581818,6.42857143 Z M11.6581818,5.18571429 L13.5490909,5.18571429 C14.0096951,5.21747927 14.4658846,5.08001144 14.8290909,4.8 C15.1378412,4.50855531 15.3001399,4.09829486 15.2727273,3.67857143 C15.2924805,3.2502227 15.1289953,2.83326971 14.8218182,2.52857143 C14.4873691,2.22793549 14.0457824,2.06882616 13.5927273,2.08571429 L11.6581818,2.08571429 L11.6581818,5.18571429 Z" id="Shape"></path>
                <path d="M20.5709091,6.62617681 L20.5709091,9.92617681 L19,9.92617681 L19,1.00474824 L22.4618182,1.00474824 C23.3351214,0.959624832 24.1939617,1.23739497 24.8690909,1.78331967 C25.4668568,2.30218119 25.7953354,3.05756763 25.7636364,3.84046252 C25.8069272,4.61473559 25.4850644,5.36550926 24.8909091,5.87617681 C24.1908274,6.39611232 23.3228955,6.64981265 22.4472727,6.59046252 L20.5709091,6.62617681 Z M20.5709091,5.38331967 L22.4618182,5.38331967 C22.9224224,5.41508465 23.3786119,5.27761682 23.7418182,4.99760538 C24.0505685,4.70616069 24.2128672,4.29590024 24.1854545,3.87617681 C24.2052077,3.44782808 24.0417226,3.03087509 23.7345455,2.72617681 C23.4000964,2.42554087 22.9585097,2.26643154 22.5054545,2.28331967 L20.5709091,2.28331967 L20.5709091,5.38331967 Z" id="Shape"></path>
                <path d="M5.8690909,7.81428571 L2.3636363,7.81428571 L1.6363636,9.88571428 L0,9.88571428 L3.4181818,1 L4.8290909,1 L8.2545454,9.88571428 L6.6109091,9.88571428 L5.8690909,7.81428571 Z M2.8072727,6.57142857 L5.4327272,6.57142857 L4.1236363,2.88571428 L2.8072727,6.57142857 Z" id="Shape"></path>
            </g>
            <text id="DWorkS" font-family="Roboto-Medium, Roboto" font-size="20" font-weight="400" fill="#FFFFFF">
                <tspan x="29" y="31">DWorkS</tspan>
            </text>
            <g id="A" transform="translate(15.000000, 21.000000)" fill-rule="nonzero" fill="#FFFFFF">
                <path d="M6.23076923,6.69461538 L2.88,6.69461538 L2.18769231,8.70230769 L0.623076923,8.70230769 L3.87692308,0.09 L5.22,0.09 L8.48076923,8.70230769 L6.92307692,8.70230769 L6.23076923,6.69461538 Z M3.31615385,5.49 L5.81538462,5.49 L4.56923077,1.91769231 L3.31615385,5.49 Z" id="Shape"></path>
            </g>
        </g>
    </g>
</svg>