<svg xmlns="http://www.w3.org/2000/svg">
<defs>
<font id="da30c6e928b2aaaaff2ef00b42acad02" horiz-adv-x='1024' >
  <font-face 
    font-family="GTWalsheim-Medium"
    font-weight="600"
    font-stretch="normal"
    units-per-em="1000"
    panose-1="2 0 6 3 4 0 0 2 0 3"
    ascent="750"
    descent="-250"
    x-height="466"
    cap-height="700"
    bbox="-150 -327 1214 985"
    underline-thickness="50"
    underline-position="-50"
    unicode-range="U+0020-FB04"
  />
<missing-glyph horiz-adv-x="800" 
d="M201 500q0 18 12.5 30.5t29.5 12.5q18 0 30.5 -12.5t12.5 -30.5q0 -17 -12.5 -30t-30.5 -13q-17 0 -29.5 13t-12.5 30zM498 500q0 18 12.5 30.5t29.5 12.5q18 0 30.5 -12.5t12.5 -30.5q0 -17 -12.5 -30t-30.5 -13q-17 0 -29.5 13t-12.5 30zM219 259l179 268l-110 -243
h178v-25h-247zM600 161q2 5 2 9.5v8.5q-2 9 -4 13q-1 3 -3 5q-1 0 -3 2q-2 0 -4 2q-4 1 -14 5q-8 4 -16.5 8t-16.5 11q-10 7 -18 20q-1 2 -2 5l-2 6q-1 4 -2 7t-1 7q-2 8 -3 15.5t-1 15.5q1 5 1 10t2 9l15 -5q0 -2 -0.5 -4.5t-0.5 -5.5v-13q1 -7 1.5 -14t2.5 -13
q2 -4 2.5 -7t2.5 -5q3 -6 8 -10.5t11 -9.5q6 -4 13 -7t13 -6q9 -3 15 -6q3 -1 7 -5q6 -4 7 -9q5 -9 6 -19v-12t-2 -12zM213 331q0 -5 0.5 -10t1.5 -10t1.5 -10t0.5 -10q0 -10 -7 -20q-7 -9 -14 -13q-1 0 -2 -0.5t-2 -0.5q-5 -2 -10.5 -4.5t-10.5 -5.5q-4 -1 -10 -5
q-4 -4 -6 -5q-3 -5 -5 -13q-1 -5 -1.5 -9t-0.5 -8h-16q0 5 0.5 10t1.5 10q2 5 3.5 10t5.5 10q2 2 9 8q2 2 5 3.5t6 3.5q5 3 11.5 5.5t12.5 4.5l1 1q4 1 9 8q4 6 4 10q0 5 -0.5 9t-1.5 9t-1.5 10t-1.5 10zM168 228q25 -15 47 -28t44 -22.5t45.5 -15t51.5 -5.5q21 0 49 1.5
t58.5 5t60 11t52.5 19.5q1 0 3 2q-13 -28 -42 -54t-65 -45q-57 -31 -106 -31t-97.5 37.5t-100.5 124.5zM230 169q15 -22 34 -37t38.5 -24t36.5 -12.5t27 -3.5q25 0 52 9t50 20t39 21t20 13q-43 -8 -81 -15.5t-88 -7.5q-13 0 -30.5 1.5t-35.5 6t-34.5 11.5t-27.5 18zM400 695
q-76 0 -143 -29q-60 -27 -106 -76q-45 -50 -67 -110q-24 -63 -24 -130q0 -68 24 -129q22 -62 67 -110q46 -50 106 -76q67 -29 143 -29t142 29q60 26 106 76q45 48 67 110q24 61 24 129q0 67 -24 130q-22 60 -67 110q-46 49 -106 76q-66 29 -142 29zM400 717

<glyph glyph-name="IJ" unicode="IJ" horiz-adv-x="801" 
d="M733 227q0 -51 -15 -95.5t-44.5 -77.5t-72 -52t-97.5 -19q-54 0 -96.5 19t-71.5 52.5t-44 78t-15 95.5h115q0 -63 27.5 -102.5t84.5 -39.5t85.5 39t28.5 102v473h115v-473zM73 700h119v-700h-119v700z" />
    <glyph glyph-name="ij" unicode="ij" horiz-adv-x="594" 
d="M95 466h109v-466h-109v466zM69 636q0 34 23.5 57.5t56.5 23.5q34 0 57.5 -23.5t23.5 -57.5q0 -33 -23.5 -56.5t-57.5 -23.5q-33 0 -56.5 23.5t-23.5 56.5zM501 -109q0 -39 -8.5 -65t-22.5 -41.5t-31.5 -22t-35.5 -6.5q-26 0 -49.5 3t-34.5 8v90q16 -4 23.5 -5t14.5 -1
q17 0 26 10.5t9 36.5v568h109v-575zM366 636q0 34 23.5 57.5t56.5 23.5q34 0 57.5 -23.5t23.5 -57.5q0 -33 -23.5 -56.5t-57.5 -23.5q-33 0 -56.5 23.5t-23.5 56.5z" />
    <glyph glyph-name="uniFB00" unicode="ff" horiz-adv-x="718" 
d="M346 602q-11 3 -23 5t-25 2t-26 -1t-23.5 -8t-17.5 -22t-7 -42v-70h122v-91h-122v-375h-109v375h-95v91h95v58q0 67 18.5 103.5t45 54t55.5 21t49 3.5q21 0 37.5 -3.5t25.5 -8.5v-92zM705 602q-11 3 -23 5t-25 2t-26 -1t-23.5 -8t-17.5 -22t-7 -42v-70h122v-91h-122v-375
h-109v375h-95v91h95v58q0 67 18.5 103.5t45 54t55.5 21t49 3.5q21 0 37.5 -3.5t25.5 -8.5v-92z" />
    <glyph glyph-name="fi" unicode="fi" horiz-adv-x="658" 
d="M346 602q-11 3 -23 5t-25 2t-26 -1t-23.5 -8t-17.5 -22t-7 -42v-70h122v-91h-122v-375h-109v375h-95v91h95v58q0 67 18.5 103.5t45 54t55.5 21t49 3.5q21 0 37.5 -3.5t25.5 -8.5v-92zM454 466h109v-466h-109v466zM432 635q0 32 22 54.5t54 22.5t54.5 -22.5t22.5 -54.5
t-22.5 -54t-54.5 -22t-54 22t-22 54z" />
    <glyph glyph-name="fl" unicode="fl" horiz-adv-x="614" 
d="M346 602q-11 3 -23 5t-25 2t-26 -1t-23.5 -8t-17.5 -22t-7 -42v-70h122v-91h-122v-375h-109v375h-95v91h95v58q0 67 18.5 103.5t45 54t55.5 21t49 3.5q21 0 37.5 -3.5t25.5 -8.5v-92zM432 700h109v-700h-109v700z" />
    <glyph glyph-name="uniFB03" unicode="ffi" horiz-adv-x="1017" 
d="M346 602q-11 3 -23 5t-25 2t-26 -1t-23.5 -8t-17.5 -22t-7 -42v-70h122v-91h-122v-375h-109v375h-95v91h95v58q0 67 18.5 103.5t45 54t55.5 21t49 3.5q21 0 37.5 -3.5t25.5 -8.5v-92zM705 602q-11 3 -23 5t-25 2t-26 -1t-23.5 -8t-17.5 -22t-7 -42v-70h122v-91h-122v-375
h-109v375h-95v91h95v58q0 67 18.5 103.5t45 54t55.5 21t49 3.5q21 0 37.5 -3.5t25.5 -8.5v-92zM813 466h109v-466h-109v466zM787 636q0 34 23.5 57.5t56.5 23.5q34 0 57.5 -23.5t23.5 -57.5q0 -33 -23.5 -56.5t-57.5 -23.5q-33 0 -56.5 23.5t-23.5 56.5z" />
    <glyph glyph-name="uniFB04" unicode="ffl" horiz-adv-x="969" 
d="M346 602q-11 3 -23 5t-25 2t-26 -1t-23.5 -8t-17.5 -22t-7 -42v-70h122v-91h-122v-375h-109v375h-95v91h95v58q0 67 18.5 103.5t45 54t55.5 21t49 3.5q21 0 37.5 -3.5t25.5 -8.5v-92zM705 602q-11 3 -23 5t-25 2t-26 -1t-23.5 -8t-17.5 -22t-7 -42v-70h122v-91h-122v-375
h-109v375h-95v91h95v58q0 67 18.5 103.5t45 54t55.5 21t49 3.5q21 0 37.5 -3.5t25.5 -8.5v-92zM791 700h109v-700h-109v700z" />
    <glyph glyph-name=".notdef" horiz-adv-x="800" 
d="M201 500q0 18 12.5 30.5t29.5 12.5q18 0 30.5 -12.5t12.5 -30.5q0 -17 -12.5 -30t-30.5 -13q-17 0 -29.5 13t-12.5 30zM498 500q0 18 12.5 30.5t29.5 12.5q18 0 30.5 -12.5t12.5 -30.5q0 -17 -12.5 -30t-30.5 -13q-17 0 -29.5 13t-12.5 30zM219 259l179 268l-110 -243
h178v-25h-247zM600 161q2 5 2 9.5v8.5q-2 9 -4 13q-1 3 -3 5q-1 0 -3 2q-2 0 -4 2q-4 1 -14 5q-8 4 -16.5 8t-16.5 11q-10 7 -18 20q-1 2 -2 5l-2 6q-1 4 -2 7t-1 7q-2 8 -3 15.5t-1 15.5q1 5 1 10t2 9l15 -5q0 -2 -0.5 -4.5t-0.5 -5.5v-13q1 -7 1.5 -14t2.5 -13
q2 -4 2.5 -7t2.5 -5q3 -6 8 -10.5t11 -9.5q6 -4 13 -7t13 -6q9 -3 15 -6q3 -1 7 -5q6 -4 7 -9q5 -9 6 -19v-12t-2 -12zM213 331q0 -5 0.5 -10t1.5 -10t1.5 -10t0.5 -10q0 -10 -7 -20q-7 -9 -14 -13q-1 0 -2 -0.5t-2 -0.5q-5 -2 -10.5 -4.5t-10.5 -5.5q-4 -1 -10 -5
q-4 -4 -6 -5q-3 -5 -5 -13q-1 -5 -1.5 -9t-0.5 -8h-16q0 5 0.5 10t1.5 10q2 5 3.5 10t5.5 10q2 2 9 8q2 2 5 3.5t6 3.5q5 3 11.5 5.5t12.5 4.5l1 1q4 1 9 8q4 6 4 10q0 5 -0.5 9t-1.5 9t-1.5 10t-1.5 10zM168 228q25 -15 47 -28t44 -22.5t45.5 -15t51.5 -5.5q21 0 49 1.5
t58.5 5t60 11t52.5 19.5q1 0 3 2q-13 -28 -42 -54t-65 -45q-57 -31 -106 -31t-97.5 37.5t-100.5 124.5zM230 169q15 -22 34 -37t38.5 -24t36.5 -12.5t27 -3.5q25 0 52 9t50 20t39 21t20 13q-43 -8 -81 -15.5t-88 -7.5q-13 0 -30.5 1.5t-35.5 6t-34.5 11.5t-27.5 18zM400 695
q-76 0 -143 -29q-60 -27 -106 -76q-45 -50 -67 -110q-24 -63 -24 -130q0 -68 24 -129q22 -62 67 -110q46 -50 106 -76q67 -29 143 -29t142 29q60 26 106 76q45 48 67 110q24 61 24 129q0 67 -24 130q-22 60 -67 110q-46 49 -106 76q-66 29 -142 29zM400 717
q84 0 151.5 -30.5t114 -81.5t71.5 -117.5t25 -137.5t-25 -137.5t-71.5 -117.5t-114 -81.5t-151.5 -30.5t-151.5 30.5t-114 81.5t-71.5 117.5t-25 137.5t25 137.5t71.5 117.5t114 81.5t151.5 30.5z" />
    <glyph glyph-name=".null" horiz-adv-x="0" 
 />
    <glyph glyph-name="nonmarkingreturn" horiz-adv-x="250" 
 />
    <glyph glyph-name="space" unicode=" " horiz-adv-x="250" 
 />
    <glyph glyph-name="exclam" unicode="!" horiz-adv-x="309" 
d="M95 700h119v-477h-119v477zM70 68q0 17 6.5 32.5t18 27t26.5 18t33 6.5t33.5 -6.5t27 -18t18 -27t6.5 -32.5t-6.5 -32.5t-18 -27t-27 -18.5t-33.5 -7t-33 7t-26.5 18.5t-18 27t-6.5 32.5z" />
    <glyph glyph-name="quotedbl" unicode="&#x22;" horiz-adv-x="389" 
d="M60 617v100h103v-100l-26 -151h-51zM226 617v100h103v-100l-26 -151h-51z" />
    <glyph glyph-name="numbersign" unicode="#" horiz-adv-x="549" 
d="M309 204h-102l-29 -204h-88l28 204h-89v84h101l17 124h-88v84h100l28 204h89l-28 -204h102l28 204h89l-28 -204h82v-84h-94l-17 -124h81v-84h-93l-29 -204h-88zM219 288h102l17 124h-102z" />
    <glyph glyph-name="dollar" unicode="$" horiz-adv-x="642" 
d="M374 712q37 -8 68 -26.5t54 -46.5t36 -63.5t13 -77.5h-115q0 52 -29.5 84t-75.5 32q-43 0 -74 -22t-31 -67q0 -21 8.5 -37.5t23 -28.5t32.5 -21t38 -16q41 -15 83.5 -31.5t77.5 -41t57 -59.5t22 -85q0 -47 -14.5 -84.5t-40 -65t-59.5 -44.5t-74 -24v-107h-102v108
q-40 7 -74.5 26.5t-60.5 50t-41 72t-15 92.5h115q0 -69 38 -106t98 -37q24 0 45 7.5t36.5 21.5t24.5 33.5t9 43.5q0 27 -10.5 45t-27 30t-36 20t-37.5 14q-48 17 -90 34.5t-73.5 42t-49.5 59.5t-18 88q0 37 13 68t35.5 55t53 40t65.5 23v109h102v-108z" />
    <glyph glyph-name="percent" unicode="%" horiz-adv-x="950" 
d="M81 571q0 28 10 52.5t29 43.5t46 30t61 11t61 -11t46 -30t29.5 -43.5t10.5 -52.5v-127q0 -28 -10.5 -53t-29.5 -43.5t-46 -29.5t-61 -11t-61 11t-46 29.5t-29 43.5t-10 53v127zM286 571q0 26 -16 44.5t-43 18.5q-26 0 -42 -18.5t-16 -44.5v-127q0 -26 16 -44.5t42 -18.5
q27 0 43 18.5t16 44.5v127zM575 256q0 28 10 52.5t29 43.5t46 30t61 11t61 -11t46 -30t29.5 -43.5t10.5 -52.5v-127q0 -28 -10.5 -53t-29.5 -43.5t-46 -29.5t-61 -11t-61 11t-46 29.5t-29 43.5t-10 53v127zM780 256q0 26 -16 44.5t-43 18.5q-26 0 -42 -18.5t-16 -44.5v-127
q0 -26 16 -44.5t42 -18.5q27 0 43 18.5t16 44.5v127zM642 752l87 -50l-437 -753l-87 50z" />
    <glyph glyph-name="ampersand" unicode="&#x26;" horiz-adv-x="599" 
d="M338 335h240v-102h-53q0 -59 -20.5 -104.5t-54.5 -76.5t-77 -47.5t-89 -16.5q-45 0 -88 15t-77 43.5t-54.5 69.5t-20.5 94q0 30 8.5 53t23.5 41.5t35.5 33.5t44.5 28q-43 24 -69 57.5t-26 96.5q0 43 18 78.5t48 61t70 39t84 13.5q48 0 88 -16t69.5 -45t46 -69t16.5 -89
h-115q0 52 -25 84t-85 32q-44 0 -72 -22t-28 -67q0 -21 5 -40t18 -32.5t35.5 -21.5t58.5 -8v-102q-74 0 -104 -33.5t-30 -85.5q0 -20 8.5 -39t24.5 -34t39.5 -24t52.5 -9q24 0 46.5 9.5t40 27.5t28.5 44.5t11 60.5h-72v102z" />
    <glyph glyph-name="quotesingle" unicode="'" horiz-adv-x="223" 
d="M60 617v100h103v-100l-26 -151h-51z" />
    <glyph glyph-name="parenleft" unicode="(" horiz-adv-x="390" 
d="M350 691q-30 0 -54 -11.5t-41 -31t-26 -45t-9 -54.5v-549q0 -29 9 -54.5t26 -45t41 -31t54 -11.5v-103q-56 0 -101 19.5t-77 53.5t-49.5 78t-17.5 94v549q0 49 17.5 93.5t49.5 78.5t77 53.5t101 19.5v-103z" />
    <glyph glyph-name="parenright" unicode=")" horiz-adv-x="390" 
d="M40 794q55 0 100.5 -19.5t77.5 -53.5t49.5 -78.5t17.5 -93.5v-549q0 -50 -17.5 -94t-49.5 -78t-77.5 -53.5t-100.5 -19.5v103q30 0 54 11.5t41 31t26 45t9 54.5v549q0 29 -9 54.5t-26 45t-41 31t-54 11.5v103z" />
    <glyph glyph-name="asterisk" unicode="*" horiz-adv-x="462" 
d="M91 395l87 115l-138 43l22 66l136 -46l-1 144h70l-3 -144l136 46l22 -66l-138 -43l87 -115l-57 -41l-83 118l-83 -118z" />
    <glyph glyph-name="plus" unicode="+" 
d="M235 83v153h-147v97h147v154h109v-154h148v-97h-148v-153h-109z" />
    <glyph glyph-name="comma" unicode="," horiz-adv-x="291" 
d="M60 74q0 34 23.5 57.5t56.5 23.5q41 0 66 -28.5t25 -74.5t-11.5 -78t-33 -52t-52.5 -29t-70 -9v51q26 0 43.5 5.5t29.5 14.5q11 10 16.5 21.5t7.5 23.5q-2 -2 -8 -4t-13 -2q-37 0 -58.5 23.5t-21.5 56.5z" />
    <glyph glyph-name="hyphen" unicode="-" horiz-adv-x="294" 
d="M264 236h-234v97h234v-97z" />
    <glyph glyph-name="period" unicode="." horiz-adv-x="281" 
d="M60 74q0 34 23.5 57.5t56.5 23.5q34 0 57.5 -23.5t23.5 -57.5q0 -33 -23.5 -56.5t-57.5 -23.5q-33 0 -56.5 23.5t-23.5 56.5z" />
    <glyph glyph-name="slash" unicode="/" horiz-adv-x="453" 
d="M363 820l100 -43l-364 -846l-100 43z" />
    <glyph glyph-name="zero" unicode="0" 
d="M44 467q0 49 17.5 93.5t49.5 78.5t77 53.5t101 19.5t101.5 -19.5t78 -53.5t50 -78.5t17.5 -93.5v-234q0 -50 -17.5 -94t-50 -78t-78 -53.5t-101.5 -19.5t-101 19.5t-77 53.5t-49.5 78t-17.5 94v234zM421 467q0 29 -9.5 54.5t-26.5 45t-41.5 31t-54.5 11.5t-54 -11.5
t-41 -31t-26 -45t-9 -54.5v-234q0 -29 9 -54.5t26 -45t41 -31t54 -11.5t54.5 11.5t41.5 31t26.5 45t9.5 54.5v234z" />
    <glyph glyph-name="one" unicode="1" 
d="M122 584q48 0 78 6.5t47 20t23 35.5t6 54h109v-700h-119v493h-144v91z" />
    <glyph glyph-name="two" unicode="2" 
d="M81 0q0 83 14 139t39 95t59.5 66t74.5 53q23 14 47.5 29t44.5 33.5t33 42t13 55.5q0 51 -29 73.5t-72 22.5q-45 0 -77 -27.5t-32 -88.5h-115q0 53 18.5 94t50 68.5t72 42t84.5 14.5q45 0 84.5 -13t68.5 -39.5t45.5 -66t16.5 -91.5q0 -48 -23 -86t-54 -66.5t-62.5 -48.5
t-48.5 -32q-38 -27 -61.5 -47t-36.5 -38t-17.5 -37t-4.5 -44h304v-103h-436v0z" />
    <glyph glyph-name="three" unicode="3" 
d="M159 234q0 -34 10.5 -60.5t28.5 -45t42.5 -28t52.5 -9.5q27 0 49 9t37 24t23 35t8 41q0 25 -6.5 46t-21 36.5t-38.5 24.5t-60 9h-47v102h48q62 0 85 28.5t23 73.5t-27.5 67t-71.5 22q-62 0 -86.5 -32t-24.5 -84h-115q0 49 16 89t45 69t69 45t88 16q45 0 85.5 -13.5
t70.5 -39t48 -61t18 -78.5q0 -60 -26.5 -98t-68.5 -56q48 -19 80 -58.5t32 -106.5q0 -48 -19 -87t-51 -67t-75.5 -43.5t-91.5 -15.5t-92 16.5t-77.5 48t-54 77t-20.5 104.5h115z" />
    <glyph glyph-name="four" unicode="4" 
d="M322 210h-255v490h115v-387h140v210h115v-210h96v-103h-96v-210h-115v210z" />
    <glyph glyph-name="five" unicode="5" 
d="M56 700h425v-103h-322v-194q11 20 29 34t39 23t42.5 13t39.5 4q56 0 98.5 -19.5t71 -53t43 -78t14.5 -93.5q0 -50 -17.5 -94t-50 -78t-78 -53.5t-101.5 -19.5t-101 19.5t-77 53.5t-49.5 78t-17.5 94h115q0 -29 9 -54.5t26 -45t41 -31t54 -11.5t54.5 11.5t42 31t26.5 45
t9 54.5t-9 54.5t-26.5 45t-42 31t-54.5 11.5q-38 0 -68 -18.5t-50 -58.5h-115v402z" />
    <glyph glyph-name="six" unicode="6" 
d="M289 -12q-56 0 -101 19.5t-77 53.5t-49.5 78t-17.5 94q0 40 12 76.5t32 68.5l201 322h132l-147 -223q5 1 15 1q56 0 101.5 -19.5t78 -53.5t50 -78.5t17.5 -93.5q0 -50 -17.5 -94t-50 -78t-78 -53.5t-101.5 -19.5zM289 91q30 0 54.5 11.5t41.5 31t26.5 45t9.5 54.5
t-9.5 54.5t-26.5 45t-41.5 31t-54.5 11.5t-54 -11.5t-41 -31t-26 -45t-9 -54.5t9 -54.5t26 -45t41 -31t54 -11.5z" />
    <glyph glyph-name="seven" unicode="7" 
d="M534 700l-298 -700h-122l258 597h-284v103h446z" />
    <glyph glyph-name="eight" unicode="8" 
d="M280 -12q-56 0 -100.5 17t-75.5 46.5t-47.5 68t-16.5 82.5q0 25 6 50.5t18.5 48t31.5 40.5t46 27q-47 21 -66 62t-19 83q0 40 15 76.5t44 63.5t70 43t94 16q52 0 93.5 -16t70 -43.5t43.5 -63.5t15 -76q0 -42 -19 -83t-66 -62q27 -9 46 -27t31.5 -41t18.5 -48.5t6 -49.5
q0 -42 -16.5 -80.5t-47 -68.5t-75 -47.5t-100.5 -17.5zM280 406q25 0 45 8.5t33.5 22.5t21 32.5t7.5 38.5t-7.5 38t-21 32t-33.5 22.5t-45 8.5q-26 0 -46 -8t-33.5 -22t-21 -32.5t-7.5 -38.5q0 -21 7.5 -39.5t21 -32.5t33.5 -22t46 -8zM280 91q29 0 52 9t39 24.5t24.5 35.5
t8.5 42q0 21 -8 41.5t-24 36t-39 25t-53 9.5t-53.5 -9t-39.5 -24.5t-24 -36t-8 -42.5q0 -23 8.5 -43t24.5 -35t39.5 -24t52.5 -9z" />
    <glyph glyph-name="nine" unicode="9" 
d="M291 712q55 0 100.5 -19.5t77.5 -53.5t49.5 -78.5t17.5 -93.5q0 -41 -12.5 -77t-32.5 -68l-200 -322h-132l147 222h-15q-56 0 -102 19.5t-78 53.5t-49.5 78t-17.5 94q0 49 17.5 93.5t49.5 78.5t78 53.5t102 19.5zM291 609q-30 0 -54.5 -11.5t-41.5 -31t-26.5 -45
t-9.5 -54.5t9.5 -54.5t26.5 -45t41.5 -31t54.5 -11.5t54 11.5t41 31t26 45t9 54.5t-9 54.5t-26 45t-41 31t-54 11.5z" />
    <glyph glyph-name="colon" unicode=":" horiz-adv-x="281" 
d="M60 403q0 34 23.5 57.5t56.5 23.5q34 0 57.5 -23.5t23.5 -57.5q0 -33 -23.5 -56.5t-57.5 -23.5q-33 0 -56.5 23.5t-23.5 56.5zM60 74q0 34 23.5 57.5t56.5 23.5q34 0 57.5 -23.5t23.5 -57.5q0 -33 -23.5 -56.5t-57.5 -23.5q-33 0 -56.5 23.5t-23.5 56.5z" />
    <glyph glyph-name="semicolon" unicode=";" horiz-adv-x="291" 
d="M60 74q0 34 23.5 57.5t56.5 23.5q41 0 66 -28.5t25 -74.5t-11.5 -78t-33 -52t-52.5 -29t-70 -9v51q26 0 43.5 5.5t29.5 14.5q11 10 16.5 21.5t7.5 23.5q-2 -2 -8 -4t-13 -2q-37 0 -58.5 23.5t-21.5 56.5zM60 403q0 34 23.5 57.5t56.5 23.5q34 0 57.5 -23.5t23.5 -57.5
q0 -33 -23.5 -56.5t-57.5 -23.5q-33 0 -56.5 23.5t-23.5 56.5z" />
    <glyph glyph-name="less" unicode="&#x3c;" 
d="M37 245v77l507 176v-103l-346 -111l346 -112v-103z" />
    <glyph glyph-name="equal" unicode="=" 
d="M88 313v97h404v-97h-404zM88 157v97h404v-97h-404z" />
    <glyph glyph-name="greater" unicode="&#x3e;" 
d="M36 69v103l346 112l-346 111v103l507 -176v-77z" />
    <glyph glyph-name="question" unicode="?" horiz-adv-x="511" 
d="M174 188q0 33 3 60t11.5 50t23.5 43.5t40 38.5q15 11 32 24.5t31.5 30t24 36.5t9.5 44q0 48 -29.5 71t-75.5 23q-21 0 -40 -6.5t-33.5 -21t-23 -36.5t-8.5 -52h-115q0 53 18 94t48 68.5t70 42t84 14.5q45 0 85 -14t70 -39.5t47.5 -62t17.5 -81.5q0 -35 -11 -62.5
t-27.5 -49t-35 -37.5t-32.5 -28q-25 -20 -39.5 -34.5t-22 -30t-10 -35.5t-2.5 -50h-110zM145 68q0 17 6.5 32.5t18 27t26.5 18t33 6.5t33.5 -6.5t27 -18t18 -27t6.5 -32.5t-6.5 -32.5t-18 -27t-27 -18.5t-33.5 -7t-33 7t-26.5 18.5t-18 27t-6.5 32.5z" />
    <glyph glyph-name="at" unicode="@" horiz-adv-x="829" 
d="M409 83q27 0 48.5 10t36.5 26.5t23.5 39t8.5 47.5t-8.5 48t-23.5 39.5t-36.5 26.5t-48.5 10q-26 0 -46.5 -10t-35.5 -26.5t-23 -39.5t-8 -48t8 -47.5t23 -39t35.5 -26.5t46.5 -10zM526 64q-18 -29 -52.5 -46t-68.5 -17q-45 0 -82 16.5t-63.5 44.5t-41 65.5t-14.5 78.5
q0 42 14.5 79t41 65.5t63.5 45t82 16.5q34 0 68.5 -16.5t52.5 -46.5v53h91v-261q0 -45 13 -67.5t42 -22.5q13 0 25.5 9t22.5 32.5t16 64.5t6 106q0 61 -24.5 111t-69 85t-106 54t-135.5 19q-59 0 -113 -22.5t-94.5 -64.5t-64.5 -102.5t-24 -136.5q0 -61 21.5 -119t64.5 -103
t107.5 -72.5t150.5 -27.5q28 0 60.5 3t67.5 10.5t70.5 19.5t69.5 31l44 -71q-39 -22 -80 -36.5t-81.5 -23t-79 -12t-71.5 -3.5q-109 0 -190.5 34.5t-136 91t-81.5 129t-27 149.5q0 94 31.5 170t84.5 128.5t123 81t148 28.5q95 0 173.5 -24.5t135 -70t87.5 -110.5t31 -146
q0 -78 -12 -134t-35 -91.5t-56 -52t-76 -16.5q-53 0 -84 28.5t-45 66.5z" />
    <glyph glyph-name="A" unicode="A" horiz-adv-x="571" 
d="M447 0l-30 89h-263l-30 -89h-121l242 700h81l242 -700h-121zM286 509l-97 -317h193z" />
    <glyph glyph-name="B" unicode="B" horiz-adv-x="598" 
d="M73 700h239q72 0 116 -21t68.5 -51.5t32.5 -65t8 -61.5q0 -36 -10.5 -62t-27 -43.5t-36 -27.5t-37.5 -14q15 -4 35.5 -13.5t38.5 -27t30.5 -44.5t12.5 -66q0 -27 -8 -62.5t-32.5 -66.5t-68.5 -52.5t-116 -21.5h-245v700zM188 303v-200h130q35 0 56.5 10.5t33.5 26
t16 32.5t4 31q0 13 -4.5 30.5t-17 33t-33.5 26t-54 10.5h-131zM312 406q35 0 56.5 10t33.5 24.5t16 31t4 29.5t-4 29.5t-16 31.5t-33.5 25t-56.5 10h-124v-191h124z" />
    <glyph glyph-name="C" unicode="C" horiz-adv-x="775" 
d="M738 225q-12 -51 -41 -95t-72 -77t-99 -51.5t-120 -18.5q-86 0 -154 30t-115.5 80.5t-73 117t-25.5 140.5q0 71 24.5 137t71 117t112 81.5t148.5 30.5q78 0 138.5 -21.5t103.5 -58t68.5 -86t33.5 -106.5h-121q-6 36 -23.5 67t-44 53.5t-62 35.5t-78.5 13
q-60 0 -107.5 -22t-79.5 -58.5t-49 -84t-17 -98.5q0 -54 17.5 -102t51 -84.5t83 -57.5t113.5 -21q30 0 60.5 10.5t56.5 29t45.5 44t28.5 55.5h126z" />
    <glyph glyph-name="D" unicode="D" horiz-adv-x="701" 
d="M300 700q87 0 154.5 -30t114 -79t70.5 -112t24 -129t-24 -129t-70.5 -112t-114 -79t-154.5 -30h-227v700h227zM188 597v-494h112q58 0 104 21t77 55.5t47.5 79t16.5 91.5t-16.5 91.5t-47.5 79t-77 55.5t-104 21h-112z" />
    <glyph glyph-name="E" unicode="E" horiz-adv-x="545" 
d="M188 597v-198h289v-103h-289v-193h289v-103h-404v700h404v-103h-289z" />
    <glyph glyph-name="F" unicode="F" horiz-adv-x="538" 
d="M188 597v-222h289v-103h-289v-272h-115v700h404v-103h-289z" />
    <glyph glyph-name="G" unicode="G" horiz-adv-x="838" 
d="M483 351h333v-103h-77q-12 -59 -39.5 -107.5t-70 -83.5t-100.5 -54.5t-131 -19.5q-86 0 -153 30.5t-113 81.5t-70 117.5t-24 137.5t25 137.5t72 117.5t113.5 81.5t149.5 30.5q62 0 114.5 -18t92 -49t63.5 -72.5t28 -87.5h-116q-5 26 -20 48.5t-39 39.5t-55.5 26.5
t-67.5 9.5q-56 0 -101 -22t-76.5 -58.5t-48 -84.5t-16.5 -99t16 -99t48 -84.5t80 -58.5t113 -22q45 0 80.5 13t61 35.5t41.5 52t21 61.5h-134v103z" />
    <glyph glyph-name="H" unicode="H" horiz-adv-x="665" 
d="M477 296h-289v-296h-115v700h115v-301h289v301h115v-700h-115v296z" />
    <glyph glyph-name="I" unicode="I" horiz-adv-x="265" 
d="M73 700h119v-700h-119v700z" />
    <glyph glyph-name="J" unicode="J" horiz-adv-x="536" 
d="M468 227q0 -51 -15 -95.5t-44.5 -77.5t-72 -52t-97.5 -19q-54 0 -96.5 19t-71.5 52.5t-44 78t-15 95.5h115q0 -63 27.5 -102.5t84.5 -39.5t85.5 39t28.5 102v473h115v-473z" />
    <glyph glyph-name="K" unicode="K" horiz-adv-x="607" 
d="M188 307v-307h-115v700h115v-308l260 308h144l-296 -350l296 -350h-144z" />
    <glyph glyph-name="L" unicode="L" horiz-adv-x="429" 
d="M404 103v-103h-331v700h115v-597h216z" />
    <glyph glyph-name="M" unicode="M" horiz-adv-x="813" 
d="M740 0h-115v433l-175 -433h-87l-175 433v-433h-115v700h110l224 -521l223 521h110v-700z" />
    <glyph glyph-name="N" unicode="N" horiz-adv-x="664" 
d="M476 202v498h115v-700h-126l-277 498v-498h-115v700h126z" />
    <glyph glyph-name="O" unicode="O" horiz-adv-x="800" 
d="M400 -17q-84 0 -151.5 30.5t-114 81.5t-71.5 117.5t-25 137.5t25 137.5t71.5 117.5t114 81.5t151.5 30.5t151.5 -30.5t114 -81.5t71.5 -117.5t25 -137.5t-25 -137.5t-71.5 -117.5t-114 -81.5t-151.5 -30.5zM400 86q56 0 100.5 22t76 59t48 84.5t16.5 98.5t-16.5 98.5
t-48 84.5t-76 59t-100.5 22t-100.5 -22t-76 -59t-48 -84.5t-16.5 -98.5t16.5 -98.5t48 -84.5t76 -59t100.5 -22z" />
    <glyph glyph-name="P" unicode="P" horiz-adv-x="596" 
d="M73 700h251q56 0 101.5 -19.5t78 -53.5t50 -78.5t17.5 -93.5q0 -50 -17.5 -94t-50 -78t-78 -53.5t-101.5 -19.5h-136v-210h-115v700zM324 313q30 0 54.5 11.5t41.5 31t26.5 45t9.5 54.5t-9.5 54.5t-26.5 45t-41.5 31t-54.5 11.5h-136v-284h136z" />
    <glyph glyph-name="Q" unicode="Q" horiz-adv-x="800" 
d="M762 350q0 -57 -16 -111t-46.5 -100t-75 -81.5t-100.5 -54.5l60 -84l-101 -51l-84 115q-84 0 -151 31t-113.5 82t-71.5 117t-25 137t25 137.5t71.5 117.5t114 81.5t151.5 30.5t151.5 -30.5t114 -81.5t71.5 -117.5t25 -137.5zM400 86q56 0 100.5 22t76 59t48 84.5
t16.5 98.5t-16.5 98.5t-48 84.5t-76 59t-100.5 22t-100.5 -22t-76 -59t-48 -84.5t-16.5 -98.5t16.5 -98.5t48 -84.5t76 -59t100.5 -22z" />
    <glyph glyph-name="R" unicode="R" horiz-adv-x="609" 
d="M73 700h251q56 0 101.5 -19.5t78 -53.5t50 -78.5t17.5 -93.5q0 -38 -10 -72.5t-29.5 -64t-47 -53t-61.5 -37.5l139 -228h-131l-128 210h-115v-210h-115v700zM324 313q30 0 54.5 11.5t41.5 31t26.5 45t9.5 54.5t-9.5 54.5t-26.5 45t-41.5 31t-54.5 11.5h-136v-284h136z
" />
    <glyph glyph-name="S" unicode="S" horiz-adv-x="569" 
d="M157 229q0 -69 38 -106t98 -37q24 0 45 7.5t36.5 21t24.5 32.5t9 43q0 27 -10.5 45t-27 30.5t-36 21t-37.5 14.5q-48 17 -90 34.5t-73.5 42t-49.5 59.5t-18 88q0 43 17.5 78.5t47 61t69 39t83.5 13.5q47 0 88 -16t71 -45t47 -69t17 -89h-115q0 52 -28 84t-77 32
q-43 0 -74 -22t-31 -67q0 -21 8.5 -37.5t23 -28.5t32.5 -21t38 -16q41 -15 83.5 -32t77.5 -42t57 -60t22 -85q0 -54 -19 -95t-52 -69t-76.5 -42t-92.5 -14q-48 0 -91.5 16.5t-76.5 48t-53 77t-20 104.5h115z" />
    <glyph glyph-name="T" unicode="T" horiz-adv-x="482" 
d="M183 597h-173v103h462v-103h-174v-597h-115v597z" />
    <glyph glyph-name="U" unicode="U" horiz-adv-x="640" 
d="M68 700h115v-466q0 -30 9.5 -57t27.5 -47t43 -32t56 -12t56.5 12t43.5 32t28 47t10 57v466h115v-466q0 -51 -18 -96.5t-51 -80t-79.5 -54.5t-104.5 -20q-57 0 -103 20t-79 54.5t-51 80t-18 96.5v466z" />
    <glyph glyph-name="V" unicode="V" horiz-adv-x="569" 
d="M325 0h-81l-242 700h121l162 -509l161 509h121z" />
    <glyph glyph-name="W" unicode="W" horiz-adv-x="983" 
d="M492 499l-162 -499h-83l-242 700h121l161 -499l162 499h85l162 -499l161 499h121l-242 -700h-83z" />
    <glyph glyph-name="X" unicode="X" horiz-adv-x="562" 
d="M424 700h130l-208 -350l208 -350h-130l-143 250l-143 -250h-130l208 350l-208 350h130l143 -251z" />
    <glyph glyph-name="Y" unicode="Y" horiz-adv-x="602" 
d="M260 0h-126l139 280l-262 420h133l187 -301l150 301h126z" />
    <glyph glyph-name="Z" unicode="Z" horiz-adv-x="577" 
d="M34 700h533l-363 -597h361v-103h-552l363 597h-342v103z" />
    <glyph glyph-name="bracketleft" unicode="[" horiz-adv-x="355" 
d="M73 -234v1029h202v-97h-93v-836h93v-96h-202z" />
    <glyph glyph-name="backslash" unicode="\" horiz-adv-x="453" 
d="M463 -26l-100 -43l-364 846l100 43z" />
    <glyph glyph-name="bracketright" unicode="]" horiz-adv-x="355" 
d="M80 -234v96h93v835h-93v97h202v-1028h-202z" />
    <glyph glyph-name="asciicircum" unicode="^" horiz-adv-x="648" 
d="M465 323l-142 289l-144 -289h-119l224 427h76l228 -427h-123z" />
    <glyph glyph-name="underscore" unicode="_" horiz-adv-x="560" 
d="M30 -125v75h500v-75h-500z" />
    <glyph glyph-name="grave" unicode="`" horiz-adv-x="573" 
d="M119 652l52 85l249 -137l-52 -85z" />
    <glyph glyph-name="a" unicode="a" horiz-adv-x="603" 
d="M530 466v-466h-109v63q-22 -35 -62.5 -55t-81.5 -20q-53 0 -97 19.5t-75.5 53.5t-49 78t-17.5 94q0 49 17.5 93.5t49 78.5t75.5 53.5t97 19.5q41 0 81.5 -20t62.5 -55v63h109zM283 85q31 0 56.5 12t43.5 32t28 47t10 57t-10 57t-28 47t-43.5 32t-56.5 12t-56 -12t-43 -32
t-27.5 -47t-9.5 -57t9.5 -57t27.5 -47t43 -32t56 -12z" />
    <glyph glyph-name="b" unicode="b" horiz-adv-x="605" 
d="M182 0h-109v700h109v-297q22 35 62.5 55t81.5 20q53 0 97 -19.5t75.5 -53.5t49 -78.5t17.5 -93.5q0 -50 -17.5 -94t-49 -78t-75.5 -53.5t-97 -19.5q-41 0 -81.5 20t-62.5 55v-63zM320 85q31 0 56 12t43 32t27.5 47t9.5 57t-9.5 57t-27.5 47t-43 32t-56 12
q-32 0 -57.5 -12t-43.5 -32t-27.5 -47t-9.5 -57t9.5 -57t27.5 -47t43.5 -32t57.5 -12z" />
    <glyph glyph-name="c" unicode="c" horiz-adv-x="534" 
d="M384 296q-5 38 -29.5 61.5t-80.5 23.5q-32 0 -55 -12t-39 -32.5t-23.5 -47t-7.5 -56.5t7.5 -57t23.5 -47t41 -32t60 -12q48 0 70.5 20t33.5 55h109q-6 -36 -22 -67.5t-43.5 -55t-66 -36.5t-89.5 -13q-57 0 -100.5 20.5t-73 54.5t-44.5 78t-15 92q0 47 15 91.5t44.5 78.5
t72.5 54.5t100 20.5t97.5 -16t67 -41.5t40 -58t16.5 -66.5h-109z" />
    <glyph glyph-name="d" unicode="d" horiz-adv-x="603" 
d="M421 63q-22 -35 -62.5 -55t-81.5 -20q-53 0 -97 19.5t-75.5 53.5t-49 78t-17.5 94q0 49 17.5 93.5t49 78.5t75.5 53.5t97 19.5q41 0 81.5 -20t62.5 -55v297h109v-700h-109v63zM283 85q31 0 56.5 12t43.5 32t28 47t10 57t-10 57t-28 47t-43.5 32t-56.5 12t-56 -12t-43 -32
t-27.5 -47t-9.5 -57t9.5 -57t27.5 -47t43 -32t56 -12z" />
    <glyph glyph-name="e" unicode="e" horiz-adv-x="531" 
d="M151 200q0 -25 7 -47t21.5 -38.5t37.5 -26t56 -9.5q23 0 39.5 5t28 13t19 19.5t12.5 23.5h110q-6 -30 -22.5 -57.5t-43 -48.5t-62.5 -33.5t-81 -12.5q-59 0 -102.5 20.5t-72.5 54.5t-43.5 78t-14.5 92q0 52 15.5 97t44.5 78t72 51.5t98 18.5q45 0 84.5 -16t69 -44.5
t46 -66.5t16.5 -83q0 -12 -0.5 -28.5t-4.5 -39.5h-330zM267 387q-48 0 -81.5 -27t-33.5 -79h228q0 49 -31.5 77.5t-81.5 28.5z" />
    <glyph glyph-name="f" unicode="f" horiz-adv-x="359" 
d="M346 602q-11 3 -23 5t-25 2t-26 -1t-23.5 -8t-17.5 -22t-7 -42v-70h122v-91h-122v-375h-109v375h-95v91h95v58q0 67 18.5 103.5t45 54t55.5 21t49 3.5q21 0 37.5 -3.5t25.5 -8.5v-92z" />
    <glyph glyph-name="g" unicode="g" horiz-adv-x="600" 
d="M283 381q-31 0 -56 -12t-43 -32t-27.5 -47t-9.5 -57t9.5 -57t27.5 -47t43 -32t56 -12t56.5 12t43.5 32t28 47t10 57t-10 57t-28 47t-43.5 32t-56.5 12zM530 -23q0 -59 -17 -101t-49.5 -69t-78.5 -39.5t-104 -12.5t-101 16.5t-72 43.5t-44.5 61.5t-17.5 70.5h110
q4 -38 35 -66.5t90 -28.5q66 0 103 29.5t37 95.5v86q-22 -35 -62.5 -55t-81.5 -20q-53 0 -97 19.5t-75.5 53.5t-49 78t-17.5 94q0 49 17.5 93.5t49 78.5t75.5 53.5t97 19.5q41 0 81.5 -20t62.5 -55v63h109v-489z" />
    <glyph glyph-name="h" unicode="h" horiz-adv-x="569" 
d="M73 700h109v-299q22 38 61 57.5t91 19.5q51 0 85.5 -17t54.5 -46q17 -26 23.5 -58t6.5 -80v-277h-109v241q0 30 -5 56t-16.5 44.5t-31 29.5t-48.5 11q-57 0 -84.5 -40.5t-27.5 -100.5v-241h-109v700z" />
    <glyph glyph-name="i" unicode="i" horiz-adv-x="299" 
d="M95 466h109v-466h-109v466zM69 636q0 34 23.5 57.5t56.5 23.5q34 0 57.5 -23.5t23.5 -57.5q0 -33 -23.5 -56.5t-57.5 -23.5q-33 0 -56.5 23.5t-23.5 56.5z" />
    <glyph glyph-name="j" unicode="j" horiz-adv-x="295" 
d="M202 -109q0 -39 -8.5 -65t-22.5 -41.5t-31.5 -22t-35.5 -6.5q-26 0 -49.5 3t-34.5 8v90q16 -4 23.5 -5t14.5 -1q17 0 26 10.5t9 36.5v568h109v-575zM67 636q0 34 23.5 57.5t56.5 23.5q34 0 57.5 -23.5t23.5 -57.5q0 -33 -23.5 -56.5t-57.5 -23.5q-33 0 -56.5 23.5
t-23.5 56.5z" />
    <glyph glyph-name="k" unicode="k" horiz-adv-x="499" 
d="M295 233l194 -233h-136l-171 205v-205h-109v700h109v-440l171 206h136z" />
    <glyph glyph-name="l" unicode="l" horiz-adv-x="255" 
d="M73 700h109v-700h-109v700z" />
    <glyph glyph-name="m" unicode="m" horiz-adv-x="836" 
d="M661 0v261q0 56 -20.5 88.5t-66.5 32.5q-21 0 -38.5 -7t-31 -24t-21 -44.5t-7.5 -69.5v-237h-109v262q0 56 -19.5 88t-65.5 32q-21 0 -39 -7t-31.5 -24t-21.5 -44.5t-8 -69.5v-237h-109v466h109v-65q15 32 49.5 54.5t80.5 22.5q64 0 98 -24t49 -59q17 35 55 59t88 24
q52 0 85 -16.5t51.5 -42.5t25 -58.5t6.5 -65.5v-295h-109z" />
    <glyph glyph-name="n" unicode="n" horiz-adv-x="569" 
d="M73 466h109v-65q22 38 61 57.5t91 19.5q51 0 85.5 -17t54.5 -46q17 -26 23.5 -58t6.5 -80v-277h-109v241q0 30 -5 56t-16.5 44.5t-31 29.5t-48.5 11q-57 0 -84.5 -40.5t-27.5 -100.5v-241h-109v466z" />
    <glyph glyph-name="o" unicode="o" horiz-adv-x="568" 
d="M283 -12q-56 0 -101 19.5t-77 53.5t-49.5 78t-17.5 94q0 49 17.5 93.5t49.5 78.5t77 53.5t101 19.5t101.5 -19.5t78 -53.5t50 -78.5t17.5 -93.5q0 -50 -17.5 -94t-50 -78t-78 -53.5t-101.5 -19.5zM283 85q31 0 56.5 12t43.5 32t28 47t10 57t-10 57t-28 47t-43.5 32
t-56.5 12t-56 -12t-43 -32t-27.5 -47t-9.5 -57t9.5 -57t27.5 -47t43 -32t56 -12z" />
    <glyph glyph-name="p" unicode="p" horiz-adv-x="605" 
d="M182 403q22 35 62.5 55t81.5 20q53 0 97 -19.5t75.5 -53.5t49 -78.5t17.5 -93.5q0 -50 -17.5 -94t-49 -78t-75.5 -53.5t-97 -19.5q-41 0 -81.5 20t-62.5 55v-297h-109v700h109v-63zM320 381q-32 0 -57.5 -12t-43.5 -32t-27.5 -47t-9.5 -57t9.5 -57t27.5 -47t43.5 -32
t57.5 -12q31 0 56 12t43 32t27.5 47t9.5 57t-9.5 57t-27.5 47t-43 32t-56 12z" />
    <glyph glyph-name="q" unicode="q" horiz-adv-x="605" 
d="M423 466h109v-700h-109v297q-22 -35 -62.5 -55t-81.5 -20q-53 0 -97 19.5t-75.5 53.5t-49 78t-17.5 94q0 49 17.5 93.5t49 78.5t75.5 53.5t97 19.5q41 0 81.5 -20t62.5 -55v63zM285 381q-31 0 -56 -12t-43 -32t-27.5 -47t-9.5 -57t9.5 -57t27.5 -47t43 -32t56 -12
t56.5 12t43.5 32t28 47t10 57t-10 57t-28 47t-43.5 32t-56.5 12z" />
    <glyph glyph-name="r" unicode="r" horiz-adv-x="378" 
d="M369 365q-13 3 -21.5 4t-21.5 1q-70 0 -107 -40.5t-37 -128.5v-201h-109v466h109v-75q8 16 22.5 30.5t34 26t42 18t45.5 6.5q26 0 43 -7v-100z" />
    <glyph glyph-name="s" unicode="s" horiz-adv-x="454" 
d="M285 263q24 -9 47 -19t41 -25t28.5 -36t10.5 -53q0 -36 -14.5 -63t-40 -44.5t-59.5 -26t-72 -8.5t-72 11t-60.5 32.5t-42 53t-15.5 72.5h106q0 -46 25.5 -64.5t64.5 -18.5q32 0 54 12t22 42q0 16 -9 26t-27 18.5t-45 17.5t-64 23q-24 9 -44.5 19.5t-35.5 24.5t-23 35
t-8 51q0 33 14 58t38 42.5t55.5 26t67.5 8.5q37 0 69.5 -12t56.5 -33t38 -50t14 -63h-106q0 33 -17.5 52.5t-57.5 19.5q-28 0 -47.5 -13t-19.5 -38q0 -15 8 -24.5t24 -17t40 -16t56 -20.5z" />
    <glyph glyph-name="t" unicode="t" horiz-adv-x="351" 
d="M331 0q-13 -2 -35 -4t-46 -2q-20 0 -46 3.5t-49.5 19.5t-39.5 49t-16 92v217h-79v91h79v141h109v-141h107v-91h-107v-192q0 -30 4.5 -48t13.5 -27.5t21.5 -12.5t28.5 -3q13 0 30 1t25 3v-96z" />
    <glyph glyph-name="u" unicode="u" horiz-adv-x="569" 
d="M496 466v-466h-109v65q-22 -38 -61 -57.5t-91 -19.5q-51 0 -85.5 17t-54.5 46q-17 26 -23.5 58t-6.5 80v277h109v-241q0 -30 5 -56t16.5 -44.5t31 -29.5t48.5 -11q57 0 84.5 40.5t27.5 100.5v241h109z" />
    <glyph glyph-name="v" unicode="v" horiz-adv-x="494" 
d="M118 466l128 -310l130 310h117l-211 -466h-73l-208 466h117z" />
    <glyph glyph-name="w" unicode="w" horiz-adv-x="753" 
d="M377 348l-123 -348h-73l-181 466h117l101 -295l105 295h107l105 -295l101 295h117l-181 -466h-73z" />
    <glyph glyph-name="x" unicode="x" horiz-adv-x="446" 
d="M438 0h-126l-89 150l-89 -150h-126l152 235l-149 231h126l86 -146l86 146h126l-149 -231z" />
    <glyph glyph-name="y" unicode="y" horiz-adv-x="578" 
d="M268 -245q-45 0 -82 15.5t-64 42t-42 61.5t-15 73h106q1 -39 27.5 -67t83.5 -28q59 0 88 28.5t29 97.5v87q-22 -38 -61 -57.5t-91 -19.5q-51 0 -85.5 17t-54.5 46q-17 26 -23.5 58t-6.5 80v277h109v-241q0 -30 5 -56t16.5 -44.5t31 -29.5t48.5 -11q57 0 84.5 40.5
t27.5 100.5v241h109v-488q0 -119 -62.5 -171t-177.5 -52z" />
    <glyph glyph-name="z" unicode="z" horiz-adv-x="438" 
d="M424 466l-220 -369h220v-97h-402l221 369h-215v97h396z" />
    <glyph glyph-name="braceleft" unicode="{" horiz-adv-x="460" 
d="M380 794v-82h-44q-18 0 -28.5 -7t-16.5 -18t-7.5 -24t-1.5 -26v-254q0 -32 -11.5 -53.5t-27 -34.5t-32.5 -19t-28 -7q11 -2 28 -7.5t32.5 -18.5t27 -36.5t11.5 -61.5v-222q0 -12 1.5 -25.5t7.5 -24.5t16.5 -18t28.5 -7h44v-82h-71q-24 0 -48.5 8.5t-44 25.5t-32 43.5
t-12.5 61.5v225q0 26 -10 43.5t-24 28.5t-30 16t-28 5v89q12 0 28 4.5t30 15t24 26.5t10 40v257q0 35 12.5 61t32 43.5t44 26t48.5 8.5h71z" />
    <glyph glyph-name="bar" unicode="|" horiz-adv-x="255" 
d="M73 -234v1028h109v-1028h-109z" />
    <glyph glyph-name="braceright" unicode="}" horiz-adv-x="460" 
d="M151 794q24 0 48.5 -8.5t44 -26t32 -43.5t12.5 -61v-257q0 -24 10 -40t24 -26.5t30 -15t28 -4.5v-89q-12 0 -28 -5t-30 -16t-24 -28.5t-10 -43.5v-225q0 -35 -12.5 -61.5t-32 -43.5t-44 -25.5t-48.5 -8.5h-71v82h44q18 0 28.5 7t16.5 18t7.5 24.5t1.5 25.5v222
q0 38 11 61.5t27 36.5t33 18.5t28 7.5q-11 1 -28 7t-33 19t-27 34.5t-11 53.5v254q0 13 -1.5 26t-7.5 24t-16.5 18t-28.5 7h-44v82h71z" />
    <glyph glyph-name="asciitilde" unicode="~" horiz-adv-x="527" 
d="M40 286q25 33 55 46t56 13q27 0 57 -9.5t61 -22.5l58 -24t50 -12q34 0 62 17.5t48 37.5v-93q-25 -33 -55 -46t-56 -13q-29 0 -55.5 9.5t-52.5 23.5t-56 24.5t-66 10.5q-31 0 -58.5 -17.5t-47.5 -37.5v93z" />
    <glyph glyph-name="nonbreakingspace" unicode="&#xa0;" horiz-adv-x="250" 
 />
    <glyph glyph-name="exclamdown" unicode="&#xa1;" horiz-adv-x="309" 
d="M97 472h119v-472h-119v472zM75 630q0 34 24 58t57 24q34 0 58 -24t24 -58q0 -33 -24 -57t-58 -24q-33 0 -57 24t-24 57z" />
    <glyph glyph-name="cent" unicode="&#xa2;" 
d="M402 412q-5 38 -29.5 61.5t-80.5 23.5q-32 0 -55 -12t-39 -32.5t-23.5 -47t-7.5 -56.5t7.5 -57t23.5 -47t41 -32t60 -12q48 0 70.5 20t33.5 55h109q-10 -63 -51.5 -109.5t-118.5 -58.5v-107h-102v108q-45 9 -79 31.5t-57 55t-34.5 72t-11.5 81.5t11.5 81.5t34.5 71.5
t57 55t79 32v109h102v-108q43 -7 74 -24.5t51 -42t31 -53t13 -58.5h-109z" />
    <glyph glyph-name="sterling" unicode="&#xa3;" 
d="M225 520q0 -14 0.5 -41t0.5 -61h143v-103h-143q-1 -36 -2.5 -71.5t-5 -64.5t-9 -49t-13.5 -27h298v-103h-428v85q12 10 20 33.5t13.5 54.5t8 67.5t3.5 74.5h-68v103h68q0 32 -0.5 58t-0.5 44q0 43 18 78.5t48 61t70 39t84 13.5q48 0 88 -16t69.5 -45t46 -69t16.5 -89
h-115q0 52 -25 84t-85 32q-44 0 -72 -22t-28 -67z" />
    <glyph glyph-name="currency" unicode="&#xa4;" horiz-adv-x="719" 
d="M498 164q-59 -39 -139 -39q-78 0 -137 39l-65 -64l-69 68l65 65q-39 62 -39 137q0 38 10 72.5t29 63.5l-64 65l68 69l64 -65q29 19 63.5 29.5t74.5 10.5q41 0 75.5 -10.5t63.5 -29.5l64 64l69 -68l-65 -65q40 -60 40 -136q0 -77 -40 -137l64 -64l-68 -69zM359 222
q31 0 56.5 12t43.5 32t28 47t10 57t-10 57t-28 47t-43.5 32t-56.5 12t-56 -12t-43 -32t-27.5 -47t-9.5 -57t9.5 -57t27.5 -47t43 -32t56 -12z" />
    <glyph glyph-name="yen" unicode="&#xa5;" 
d="M103 700l188 -301l186 301h133l-246 -397h130v-91h-152v-54h152v-91h-152v-67h-103v67h-149v91h149v54h-149v91h127l-247 397h133z" />
    <glyph glyph-name="brokenbar" unicode="&#xa6;" horiz-adv-x="255" 
d="M73 334v460h109v-460h-109zM182 225v-459h-109v459h109z" />
    <glyph glyph-name="section" unicode="&#xa7;" 
d="M280 62q-41 13 -84 29t-78 38.5t-57.5 54.5t-22.5 79q0 60 29 101t86 58q-38 24 -55.5 59.5t-17.5 80.5q0 40 18 73t48.5 56.5t71 36t84.5 12.5q46 0 86.5 -14.5t70.5 -41.5t47.5 -64.5t17.5 -82.5h-116q0 48 -30 78t-76 30q-44 0 -75 -21t-31 -62q0 -20 8.5 -35t23 -26
t33 -19.5t38.5 -14.5q41 -14 84 -29.5t78 -38t57.5 -55t22.5 -78.5q0 -30 -10 -57t-26.5 -48.5t-37 -35.5t-41.5 -18q38 -25 55.5 -60t17.5 -80q0 -41 -18 -73.5t-48.5 -56t-71 -36t-84.5 -12.5q-46 0 -86.5 14.5t-70.5 41.5t-47.5 64.5t-17.5 82.5h116q0 -48 30 -78t76 -30
q22 0 41 5t33.5 15.5t23 26t8.5 36.5q0 20 -8.5 35t-23 26t-33 19.5t-38.5 14.5zM425 254q0 25 -11.5 41.5t-33.5 30.5q-22 13 -53 24t-71 23q-44 -4 -73 -30t-29 -68q0 -26 15.5 -45t40.5 -33t54.5 -24t57.5 -18q45 4 74 30.5t29 68.5z" />
    <glyph glyph-name="dieresis" unicode="&#xa8;" horiz-adv-x="595" 
d="M327 635q0 32 22 54.5t54 22.5t54.5 -22.5t22.5 -54.5t-22.5 -54t-54.5 -22t-54 22t-22 54zM98 635q0 32 22 54.5t54 22.5t54.5 -22.5t22.5 -54.5t-22.5 -54t-54.5 -22t-54 22t-22 54z" />
    <glyph glyph-name="copyright" unicode="&#xa9;" horiz-adv-x="804" 
d="M402 -17q-84 0 -151.5 30.5t-114 81.5t-71.5 117.5t-25 137.5t25 137.5t71.5 117.5t114 81.5t151.5 30.5t151.5 -30.5t114 -81.5t71.5 -117.5t25 -137.5t-25 -137.5t-71.5 -117.5t-114 -81.5t-151.5 -30.5zM616 272q-7 -32 -25 -59t-44.5 -47t-61 -31.5t-73.5 -11.5
q-54 0 -96 18.5t-71.5 50t-45 72.5t-15.5 87q0 44 15 84.5t43.5 72t69.5 50.5t92 19q48 0 85.5 -13t63.5 -36t42 -54t21 -66h-83q-10 41 -41.5 69t-87.5 28q-32 0 -57.5 -13t-43.5 -34t-27.5 -49t-9.5 -58q0 -31 10 -59.5t28.5 -50t45.5 -34t62 -12.5q43 0 74.5 22t44.5 55
h85zM402 66q61 0 109 23.5t82 63t52 91t18 106.5t-18 106.5t-52 91t-82 63t-109 23.5t-109.5 -23.5t-82 -63t-51.5 -91t-18 -106.5t18 -106.5t51.5 -91t82 -63t109.5 -23.5z" />
    <glyph glyph-name="ordfeminine" unicode="&#xaa;" horiz-adv-x="603" 
d="M530 466v-466h-109v63q-22 -35 -62.5 -55t-81.5 -20q-53 0 -97 19.5t-75.5 53.5t-49 78t-17.5 94q0 49 17.5 93.5t49 78.5t75.5 53.5t97 19.5q41 0 81.5 -20t62.5 -55v63h109zM283 85q31 0 56.5 12t43.5 32t28 47t10 57t-10 57t-28 47t-43.5 32t-56.5 12t-56 -12t-43 -32
t-27.5 -47t-9.5 -57t9.5 -57t27.5 -47t43 -32t56 -12z" />
    <glyph glyph-name="guillemotleft" unicode="&#xab;" horiz-adv-x="472" 
d="M432 95l-196 164v64l196 164v-105l-109 -91l109 -91v-105zM236 95l-196 164v64l196 164v-105l-109 -91l109 -91v-105z" />
    <glyph glyph-name="logicalnot" unicode="&#xac;" 
d="M383 313h-295v97h404v-250h-109v153z" />
    <glyph glyph-name="softhyphen" unicode="&#xad;" horiz-adv-x="294" 
d="M264 236h-234v97h234v-97z" />
    <glyph glyph-name="registered" unicode="&#xae;" horiz-adv-x="804" 
d="M402 -17q-84 0 -151.5 30.5t-114 81.5t-71.5 117.5t-25 137.5t25 137.5t71.5 117.5t114 81.5t151.5 30.5t151.5 -30.5t114 -81.5t71.5 -117.5t25 -137.5t-25 -137.5t-71.5 -117.5t-114 -81.5t-151.5 -30.5zM402 66q61 0 109 23.5t82 63t52 91t18 106.5t-18 106.5t-52 91
t-82 63t-109 23.5t-109.5 -23.5t-82 -63t-51.5 -91t-18 -106.5t18 -106.5t51.5 -91t82 -63t109.5 -23.5zM266 162v407h166q33 0 59 -11.5t45 -31t29 -45.5t10 -55q0 -44 -22.5 -79t-63.5 -52l81 -133h-86l-74 122h-67v-122h-77zM424 351q32 0 50.5 22t18.5 53t-18.5 53.5
t-50.5 22.5h-81v-151h81z" />
    <glyph glyph-name="macron" unicode="&#xaf;" horiz-adv-x="555" 
d="M456 723h-358v97h358v-97z" />
    <glyph glyph-name="degree" unicode="&#xb0;" horiz-adv-x="326" 
d="M306 574q0 -30 -11 -56t-30.5 -45.5t-45.5 -30.5t-56 -11t-56 11t-45.5 30.5t-30.5 45.5t-11 56t11 56t30.5 45.5t45.5 30.5t56 11t56 -11t45.5 -30.5t30.5 -45.5t11 -56zM229 574q0 27 -19.5 47.5t-46.5 20.5t-46.5 -20.5t-19.5 -47.5q0 -28 19.5 -47.5t46.5 -19.5
t46.5 19.5t19.5 47.5z" />
    <glyph glyph-name="plusminus" unicode="&#xb1;" 
d="M235 216v153h-147v97h147v154h109v-154h148v-97h-148v-153h-109zM88 0v97h404v-97h-404z" />
    <glyph glyph-name="twosuperior" unicode="&#xb2;" horiz-adv-x="377" 
d="M55 315q0 47 7.5 79t21 54t32 37t41.5 29q34 20 57 37.5t23 46.5q0 23 -12.5 33t-31.5 10q-21 0 -35 -13t-14 -43h-88q0 53 35.5 88t101.5 35q26 0 50 -6.5t42 -21t28.5 -36.5t10.5 -52q0 -25 -10.5 -44.5t-25.5 -35t-32.5 -27t-31.5 -20.5q-20 -13 -33 -22.5t-21 -18
t-11 -17t-3 -20.5h166v-72h-267v0z" />
    <glyph glyph-name="threesuperior" unicode="&#xb3;" horiz-adv-x="391" 
d="M136 444q0 -32 16.5 -49t42.5 -17q25 0 38 15.5t13 35.5q0 24 -12.5 38.5t-44.5 14.5h-34v69h34q30 0 40.5 13t10.5 34q0 23 -12 33t-32 10q-29 0 -39 -15t-10 -41h-88q0 25 7.5 47t24 39t42 27t61.5 10q27 0 51 -7t42.5 -20.5t29.5 -33.5t11 -47q0 -32 -17 -54.5
t-40 -30.5q26 -9 44.5 -32.5t18.5 -59.5q0 -28 -11.5 -49.5t-30.5 -36.5t-44 -22.5t-52 -7.5q-72 0 -110 38t-38 99h88z" />
    <glyph glyph-name="acute" unicode="&#xb4;" horiz-adv-x="573" 
d="M132 515l-52 85l249 137l52 -85z" />
    <glyph glyph-name="uni00B5" unicode="&#xb5;" 
d="M74 466h109v-241q0 -30 5 -56t16.5 -44.5t31 -29.5t48.5 -11q57 0 84.5 40.5t27.5 100.5v241h109v-466h-109v65q-22 -38 -61 -57.5t-91 -19.5q-32 0 -61 8v-230h-109v700z" />
    <glyph glyph-name="paragraph" unicode="&#xb6;" horiz-adv-x="668" 
d="M231 329q-46 0 -85.5 11.5t-68.5 35t-45.5 59.5t-16.5 85q0 44 12.5 75.5t33 53.5t46.5 35.5t53.5 20.5t54.5 9.5t49 2.5h331v-90h-53v-775h-103v774h-105v-774h-103v477z" />
    <glyph glyph-name="periodcentered" unicode="&#xb7;" horiz-adv-x="281" 
d="M60 312q0 34 23.5 57.5t56.5 23.5q34 0 57.5 -23.5t23.5 -57.5q0 -33 -23.5 -56.5t-57.5 -23.5q-33 0 -56.5 23.5t-23.5 56.5z" />
    <glyph glyph-name="cedilla" unicode="&#xb8;" horiz-adv-x="555" 
d="M193 0h70v-64q13 13 37 13q13 0 27 -5.5t25.5 -16.5t19 -27t7.5 -37q0 -17 -6 -34.5t-19 -31.5t-32 -22.5t-45 -8.5q-6 0 -21 2t-31 10.5t-30.5 26t-18.5 47.5h64q9 -30 37 -30q17 0 27.5 11t10.5 30q0 17 -11 27t-26 10q-21 0 -31 -18h-54v118z" />
    <glyph glyph-name="onesuperior" unicode="&#xb9;" horiz-adv-x="282" 
d="M46 633q28 0 45.5 4t27.5 12t14 21t4 30h78v-385h-90v255h-79v63z" />
    <glyph glyph-name="ordmasculine" unicode="&#xba;" horiz-adv-x="568" 
d="M283 -12q-56 0 -101 19.5t-77 53.5t-49.5 78t-17.5 94q0 49 17.5 93.5t49.5 78.5t77 53.5t101 19.5t101.5 -19.5t78 -53.5t50 -78.5t17.5 -93.5q0 -50 -17.5 -94t-50 -78t-78 -53.5t-101.5 -19.5zM283 85q31 0 56.5 12t43.5 32t28 47t10 57t-10 57t-28 47t-43.5 32
t-56.5 12t-56 -12t-43 -32t-27.5 -47t-9.5 -57t9.5 -57t27.5 -47t43 -32t56 -12z" />
    <glyph glyph-name="guillemotright" unicode="&#xbb;" horiz-adv-x="472" 
d="M40 200l109 91l-109 91v105l196 -164v-64l-196 -164v105zM236 200l109 91l-109 91v105l196 -164v-64l-196 -164v105z" />
    <glyph glyph-name="onequarter" unicode="&#xbc;" horiz-adv-x="950" 
d="M585 752l87 -50l-437 -753l-87 50zM718 107h-153v278h88v-204h65v107h88v-107h47v-74h-47v-107h-88v107zM72 633q28 0 45.5 4t27.5 12t14 21t4 30h78v-385h-90v255h-79v63z" />
    <glyph glyph-name="onehalf" unicode="&#xbd;" horiz-adv-x="950" 
d="M585 752l87 -50l-437 -753l-87 50zM72 633q28 0 45.5 4t27.5 12t14 21t4 30h78v-385h-90v255h-79v63zM563 0q0 47 7.5 79t21 54t32 37t41.5 29q34 20 57 37.5t23 46.5q0 23 -12.5 33t-31.5 10q-21 0 -35 -13t-14 -43h-88q0 53 35.5 88t101.5 35q26 0 50 -6.5t42 -21
t28.5 -36.5t10.5 -52q0 -25 -10.5 -44.5t-25.5 -35t-32.5 -27t-31.5 -20.5q-20 -13 -33 -22.5t-21 -18t-11 -17t-3 -20.5h166v-72h-267z" />
    <glyph glyph-name="threequarters" unicode="&#xbe;" horiz-adv-x="950" 
d="M585 752l87 -50l-437 -753l-87 50zM133 444q0 -32 16.5 -49t42.5 -17q25 0 38 15.5t13 35.5q0 24 -12.5 38.5t-44.5 14.5h-34v69h34q30 0 40.5 13t10.5 34q0 23 -12 33t-32 10q-29 0 -39 -15t-10 -41h-88q0 25 7.5 47t24 39t42 27t61.5 10q27 0 51 -7t42.5 -20.5
t29.5 -33.5t11 -47q0 -32 -17 -54.5t-40 -30.5q26 -9 44.5 -32.5t18.5 -59.5q0 -28 -11.5 -49.5t-30.5 -36.5t-44 -22.5t-52 -7.5q-72 0 -110 38t-38 99h88zM718 107h-153v278h88v-204h65v107h88v-107h47v-74h-47v-107h-88v107z" />
    <glyph glyph-name="questiondown" unicode="&#xbf;" horiz-adv-x="511" 
d="M337 512q0 -33 -3 -60t-11.5 -50.5t-23.5 -43.5t-40 -38q-15 -11 -32 -24.5t-31.5 -30t-24 -36.5t-9.5 -44q0 -48 29.5 -71t75.5 -23q21 0 40 6.5t33.5 21t23 36.5t8.5 52h115q0 -53 -18 -94t-48 -69t-70 -42t-84 -14q-45 0 -85 14t-70 39.5t-47.5 62t-17.5 81.5
q0 35 11 62.5t27.5 49t35 37.5t32.5 28q25 20 39.5 34.5t22 30t10 35.5t2.5 50h110zM366 632q0 -17 -6.5 -32.5t-18 -27t-26.5 -18t-33 -6.5t-33.5 6.5t-27 18t-18 27t-6.5 32.5t6.5 32.5t18 27t27 18.5t33.5 7t33 -7t26.5 -18.5t18 -27t6.5 -32.5z" />
    <glyph glyph-name="Agrave" unicode="&#xc0;" horiz-adv-x="571" 
d="M568 0h-121l-30 89h-263l-30 -89h-121l242 700h81zM189 192h193l-96 317zM158 886l52 85l249 -137l-52 -85z" />
    <glyph glyph-name="Aacute" unicode="&#xc1;" horiz-adv-x="571" 
d="M568 0h-121l-30 89h-263l-30 -89h-121l242 700h81zM189 192h193l-96 317zM188 730l-52 85l249 137l52 -85z" />
    <glyph glyph-name="Acircumflex" unicode="&#xc2;" horiz-adv-x="571" 
d="M568 0h-121l-30 89h-263l-30 -89h-121l242 700h81zM189 192h193l-96 317zM285 972l181 -145l-68 -76l-112 90l-111 -89l-69 75z" />
    <glyph glyph-name="Atilde" unicode="&#xc3;" horiz-adv-x="571" 
d="M568 0h-121l-30 89h-263l-30 -89h-121l242 700h81zM189 192h193l-96 317zM107 870q22 14 38.5 22t28.5 11.5t20.5 4t15.5 0.5q10 0 30 -4t41.5 -9.5t40.5 -9.5t29 -4q8 0 15 1t15.5 4t20 8t29.5 14l43 -69q-39 -32 -67.5 -38.5t-41.5 -6.5q-11 0 -30.5 4t-41 9t-40.5 9
t-29 4q-20 0 -36 -6.5t-34 -14.5z" />
    <glyph glyph-name="Adieresis" unicode="&#xc4;" horiz-adv-x="571" 
d="M568 0h-121l-30 89h-263l-30 -89h-121l242 700h81zM189 192h193l-96 317zM321 855q0 34 23.5 57.5t56.5 23.5q34 0 57.5 -23.5t23.5 -57.5q0 -33 -23.5 -56.5t-57.5 -23.5q-33 0 -56.5 23.5t-23.5 56.5zM92 855q0 34 23.5 57.5t56.5 23.5q34 0 57.5 -23.5t23.5 -57.5
q0 -33 -23.5 -56.5t-57.5 -23.5q-33 0 -56.5 23.5t-23.5 56.5z" />
    <glyph glyph-name="Aring" unicode="&#xc5;" horiz-adv-x="571" 
d="M568 0h-121l-30 89h-263l-30 -89h-121l242 700h81zM189 192h193l-96 317zM286 976q25 0 47.5 -10t39.5 -26.5t26.5 -39t9.5 -47.5t-9.5 -47.5t-26.5 -39t-39.5 -26.5t-47.5 -10q-26 0 -48 10t-39 26.5t-26.5 39t-9.5 47.5t9.5 47.5t26.5 39.5t39 26.5t48 9.5zM286 898
q-19 0 -31.5 -13.5t-12.5 -31.5q0 -17 13 -30t31 -13t31 13t13 31t-12.5 31t-31.5 13z" />
    <glyph glyph-name="AE" unicode="&#xc6;" horiz-adv-x="883" 
d="M521 597v-198h289v-103h-289v-193h289v-103h-404v90h-237l-42 -90h-125l340 700h468v-103h-289zM406 193v399l-188 -399h188z" />
    <glyph glyph-name="Ccedilla" unicode="&#xc7;" horiz-adv-x="775" 
d="M617 445q-6 36 -23.5 67t-44 53.5t-62 35.5t-78.5 13q-60 0 -107.5 -22t-79.5 -58.5t-49 -84t-17 -98.5q0 -54 17.5 -102t51 -84.5t83 -57.5t113.5 -21q30 0 60.5 10.5t56.5 29t45.5 44t28.5 55.5h126q-11 -49 -38.5 -92t-68.5 -75t-93 -51.5t-113 -22.5v-33q13 13 37 13
q13 0 27 -5.5t25.5 -16.5t19 -27t7.5 -37q0 -17 -6 -34.5t-19 -31.5t-32 -22.5t-45 -8.5q-6 0 -21 2t-31 10.5t-30.5 26t-18.5 47.5h64q9 -30 37 -30q17 0 27.5 11t10.5 30q0 17 -11 27t-26 10q-21 0 -31 -18h-54v89q-75 9 -133.5 41.5t-99.5 81.5t-62.5 111.5t-21.5 130.5
q0 71 24.5 137t71 117t112 81.5t148.5 30.5q78 0 138.5 -21.5t103.5 -58t68.5 -86t33.5 -106.5h-121z" />
    <glyph glyph-name="Egrave" unicode="&#xc8;" horiz-adv-x="545" 
d="M188 597v-198h289v-103h-289v-193h289v-103h-404v700h404v-103h-289zM143 868l52 85l249 -137l-52 -85z" />
    <glyph glyph-name="Eacute" unicode="&#xc9;" horiz-adv-x="545" 
d="M188 597v-198h289v-103h-289v-193h289v-103h-404v700h404v-103h-289zM175 749l-52 85l249 137l52 -85z" />
    <glyph glyph-name="Ecircumflex" unicode="&#xca;" horiz-adv-x="545" 
d="M188 597v-198h289v-103h-289v-193h289v-103h-404v700h404v-103h-289zM279 972l181 -145l-68 -76l-112 90l-111 -89l-69 75z" />
    <glyph glyph-name="Edieresis" unicode="&#xcb;" horiz-adv-x="545" 
d="M188 597v-198h289v-103h-289v-193h289v-103h-404v700h404v-103h-289zM325 855q0 34 23.5 57.5t56.5 23.5q34 0 57.5 -23.5t23.5 -57.5q0 -33 -23.5 -56.5t-57.5 -23.5q-33 0 -56.5 23.5t-23.5 56.5zM96 855q0 34 23.5 57.5t56.5 23.5q34 0 57.5 -23.5t23.5 -57.5
q0 -33 -23.5 -56.5t-57.5 -23.5q-33 0 -56.5 23.5t-23.5 56.5z" />
    <glyph glyph-name="Igrave" unicode="&#xcc;" horiz-adv-x="265" 
d="M73 700h119v-700h-119v700zM-18 867l52 85l249 -137l-52 -85z" />
    <glyph glyph-name="Iacute" unicode="&#xcd;" horiz-adv-x="265" 
d="M73 700h119v-700h-119v700zM34 730l-52 85l249 137l52 -85z" />
    <glyph glyph-name="Icircumflex" unicode="&#xce;" horiz-adv-x="265" 
d="M73 700h119v-700h-119v700zM132 972l181 -145l-68 -76l-112 90l-111 -89l-69 75z" />
    <glyph glyph-name="Idieresis" unicode="&#xcf;" horiz-adv-x="265" 
d="M73 700h119v-700h-119v700zM179 855q0 34 23.5 57.5t56.5 23.5q34 0 57.5 -23.5t23.5 -57.5q0 -33 -23.5 -56.5t-57.5 -23.5q-33 0 -56.5 23.5t-23.5 56.5zM-50 855q0 34 23.5 57.5t56.5 23.5q34 0 57.5 -23.5t23.5 -57.5q0 -33 -23.5 -56.5t-57.5 -23.5
q-33 0 -56.5 23.5t-23.5 56.5z" />
    <glyph glyph-name="Eth" unicode="&#xd0;" horiz-adv-x="701" 
d="M300 700q86 0 153.5 -30t114 -79t71 -112t24.5 -129t-24.5 -129t-71 -112t-114 -79t-153.5 -30h-227v302h-119v97h119v301h227zM312 302h-124v-199h112q58 0 104 21t77 55.5t47.5 79t16.5 91.5t-16.5 91.5t-47.5 79t-77 55.5t-104 21h-112v-198h124v-97z" />
    <glyph glyph-name="Ntilde" unicode="&#xd1;" horiz-adv-x="664" 
d="M476 202v498h115v-700h-126l-277 498v-498h-115v700h126zM140 870q22 14 38.5 22t28.5 11.5t20.5 4t15.5 0.5q10 0 30 -4t41.5 -9.5t40.5 -9.5t29 -4q8 0 15 1t15.5 4t20 8t29.5 14l43 -69q-39 -32 -67.5 -38.5t-41.5 -6.5q-11 0 -30.5 4t-41 9t-40.5 9t-29 4
q-20 0 -36 -6.5t-34 -14.5z" />
    <glyph glyph-name="Ograve" unicode="&#xd2;" horiz-adv-x="800" 
d="M400 -17q-84 0 -151.5 30.5t-114 81.5t-71.5 117.5t-25 137.5t25 137.5t71.5 117.5t114 81.5t151.5 30.5t151.5 -30.5t114 -81.5t71.5 -117.5t25 -137.5t-25 -137.5t-71.5 -117.5t-114 -81.5t-151.5 -30.5zM400 86q56 0 100.5 22t76 59t48 84.5t16.5 98.5t-16.5 98.5
t-48 84.5t-76 59t-100.5 22t-100.5 -22t-76 -59t-48 -84.5t-16.5 -98.5t16.5 -98.5t48 -84.5t76 -59t100.5 -22zM267 886l52 85l249 -137l-52 -85z" />
    <glyph glyph-name="Oacute" unicode="&#xd3;" horiz-adv-x="800" 
d="M400 -17q-84 0 -151.5 30.5t-114 81.5t-71.5 117.5t-25 137.5t25 137.5t71.5 117.5t114 81.5t151.5 30.5t151.5 -30.5t114 -81.5t71.5 -117.5t25 -137.5t-25 -137.5t-71.5 -117.5t-114 -81.5t-151.5 -30.5zM400 86q56 0 100.5 22t76 59t48 84.5t16.5 98.5t-16.5 98.5
t-48 84.5t-76 59t-100.5 22t-100.5 -22t-76 -59t-48 -84.5t-16.5 -98.5t16.5 -98.5t48 -84.5t76 -59t100.5 -22zM280 749l-52 85l249 137l52 -85z" />
    <glyph glyph-name="Ocircumflex" unicode="&#xd4;" horiz-adv-x="800" 
d="M400 -17q-84 0 -151.5 30.5t-114 81.5t-71.5 117.5t-25 137.5t25 137.5t71.5 117.5t114 81.5t151.5 30.5t151.5 -30.5t114 -81.5t71.5 -117.5t25 -137.5t-25 -137.5t-71.5 -117.5t-114 -81.5t-151.5 -30.5zM400 86q56 0 100.5 22t76 59t48 84.5t16.5 98.5t-16.5 98.5
t-48 84.5t-76 59t-100.5 22t-100.5 -22t-76 -59t-48 -84.5t-16.5 -98.5t16.5 -98.5t48 -84.5t76 -59t100.5 -22zM400 972l181 -145l-68 -76l-112 90l-111 -89l-69 75z" />
    <glyph glyph-name="Otilde" unicode="&#xd5;" horiz-adv-x="800" 
d="M400 -17q-84 0 -151.5 30.5t-114 81.5t-71.5 117.5t-25 137.5t25 137.5t71.5 117.5t114 81.5t151.5 30.5t151.5 -30.5t114 -81.5t71.5 -117.5t25 -137.5t-25 -137.5t-71.5 -117.5t-114 -81.5t-151.5 -30.5zM400 86q56 0 100.5 22t76 59t48 84.5t16.5 98.5t-16.5 98.5
t-48 84.5t-76 59t-100.5 22t-100.5 -22t-76 -59t-48 -84.5t-16.5 -98.5t16.5 -98.5t48 -84.5t76 -59t100.5 -22zM216 870q22 14 38.5 22t28.5 11.5t20.5 4t15.5 0.5q10 0 30 -4t41.5 -9.5t40.5 -9.5t29 -4q8 0 15 1t15.5 4t20 8t29.5 14l43 -69q-39 -32 -67.5 -38.5
t-41.5 -6.5q-11 0 -30.5 4t-41 9t-40.5 9t-29 4q-20 0 -36 -6.5t-34 -14.5z" />
    <glyph glyph-name="Odieresis" unicode="&#xd6;" horiz-adv-x="800" 
d="M400 -17q-84 0 -151.5 30.5t-114 81.5t-71.5 117.5t-25 137.5t25 137.5t71.5 117.5t114 81.5t151.5 30.5t151.5 -30.5t114 -81.5t71.5 -117.5t25 -137.5t-25 -137.5t-71.5 -117.5t-114 -81.5t-151.5 -30.5zM159 350q0 -51 16.5 -98.5t48 -84.5t76 -59t100.5 -22t100.5 22
t76 59t48 84.5t16.5 98.5t-16.5 98.5t-48 84.5t-76 59t-100.5 22t-100.5 -22t-76 -59t-48 -84.5t-16.5 -98.5zM285 775q-33 0 -56.5 23.5t-23.5 56.5q0 34 23.5 57.5t56.5 23.5q34 0 57.5 -23.5t23.5 -57.5q0 -33 -23.5 -56.5t-57.5 -23.5zM434 855q0 34 23.5 57.5
t56.5 23.5q34 0 57.5 -23.5t23.5 -57.5q0 -33 -23.5 -56.5t-57.5 -23.5q-33 0 -56.5 23.5t-23.5 56.5z" />
    <glyph glyph-name="multiply" unicode="&#xd7;" 
d="M394 467l77 -77l-109 -109l105 -105l-69 -68l-104 104l-109 -108l-77 77l108 108l-103 104l68 69l104 -104z" />
    <glyph glyph-name="Oslash" unicode="&#xd8;" horiz-adv-x="800" 
d="M400 -17q-52 0 -95 12l-35 -83l-97 41l34 82q-81 51 -125 135t-44 180q0 71 25 137.5t71.5 117.5t114 81.5t151.5 30.5q50 0 94 -12l41 95l98 -42l-41 -93q81 -51 125.5 -135t44.5 -180q0 -71 -25 -137.5t-71.5 -117.5t-114 -81.5t-151.5 -30.5zM400 86q56 0 100.5 22
t76 59t48 84.5t16.5 98.5q0 62 -24 117.5t-69 93.5l-202 -469q25 -6 54 -6zM159 350q0 -62 23.5 -117.5t68.5 -93.5l201 469q-24 6 -52 6q-56 0 -100.5 -22t-76 -59t-48 -84.5t-16.5 -98.5z" />
    <glyph glyph-name="Ugrave" unicode="&#xd9;" horiz-adv-x="640" 
d="M68 700h115v-466q0 -30 9.5 -57t27.5 -47t43 -32t56 -12t56.5 12t43.5 32t28 47t10 57v466h115v-466q0 -51 -18 -96.5t-51 -80t-79.5 -54.5t-104.5 -20q-57 0 -103 20t-79 54.5t-51 80t-18 96.5v466zM184 886l52 85l249 -137l-52 -85z" />
    <glyph glyph-name="Uacute" unicode="&#xda;" horiz-adv-x="640" 
d="M68 700h115v-466q0 -30 9.5 -57t27.5 -47t43 -32t56 -12t56.5 12t43.5 32t28 47t10 57v466h115v-466q0 -51 -18 -96.5t-51 -80t-79.5 -54.5t-104.5 -20q-57 0 -103 20t-79 54.5t-51 80t-18 96.5v466zM197 749l-52 85l249 137l52 -85z" />
    <glyph glyph-name="Ucircumflex" unicode="&#xdb;" horiz-adv-x="640" 
d="M68 700h115v-466q0 -30 9.5 -57t27.5 -47t43 -32t56 -12t56.5 12t43.5 32t28 47t10 57v466h115v-466q0 -51 -18 -96.5t-51 -80t-79.5 -54.5t-104.5 -20q-57 0 -103 20t-79 54.5t-51 80t-18 96.5v466zM314 972l181 -145l-68 -76l-112 90l-111 -89l-69 75z" />
    <glyph glyph-name="Udieresis" unicode="&#xdc;" horiz-adv-x="640" 
d="M68 700h115v-466q0 -30 9.5 -57t27.5 -47t43 -32t56 -12t56.5 12t43.5 32t28 47t10 57v466h115v-466q0 -51 -18 -96.5t-51 -80t-79.5 -54.5t-104.5 -20q-57 0 -103 20t-79 54.5t-51 80t-18 96.5v466zM353 855q0 34 23.5 57.5t56.5 23.5q34 0 57.5 -23.5t23.5 -57.5
q0 -33 -23.5 -56.5t-57.5 -23.5q-33 0 -56.5 23.5t-23.5 56.5zM124 855q0 34 23.5 57.5t56.5 23.5q34 0 57.5 -23.5t23.5 -57.5q0 -33 -23.5 -56.5t-57.5 -23.5q-33 0 -56.5 23.5t-23.5 56.5z" />
    <glyph glyph-name="Yacute" unicode="&#xdd;" horiz-adv-x="602" 
d="M260 0h-126l139 280l-262 420h133l187 -301l150 301h126zM243 749l-52 85l249 137l52 -85z" />
    <glyph glyph-name="Thorn" unicode="&#xde;" horiz-adv-x="501" 
d="M73 700h103v-131h60q57 0 100.5 -19t73.5 -50.5t45.5 -72t15.5 -82.5t-15.5 -82.5t-45.5 -72t-73.5 -50.5t-100.5 -19h-60v-121h-103v700zM176 478v-266h60q32 0 56.5 11.5t41.5 30t25.5 42.5t8.5 49t-8.5 49t-25.5 42.5t-41.5 30t-56.5 11.5h-60z" />
    <glyph glyph-name="germandbls" unicode="&#xdf;" horiz-adv-x="565" 
d="M216 94q19 -4 41.5 -6.5t35.5 -2.5q22 0 44 7t39.5 21.5t28.5 36.5t11 53q0 16 -6.5 36t-21.5 37.5t-39.5 29.5t-59.5 12h-39v97h36q31 0 53 8.5t35 23t19 33.5t6 40t-9 38.5t-25 30t-36.5 19.5t-42.5 7q-48 0 -78.5 -34t-30.5 -88v-493h-109v493q0 49 16 89t45 69t69 45
t88 16q44 0 84 -13.5t71 -39t49 -61t18 -78.5q0 -63 -28.5 -98.5t-74.5 -55.5q24 -9 45.5 -24.5t38 -36.5t26.5 -46.5t10 -55.5q0 -56 -21 -97t-54 -67t-74.5 -38.5t-82.5 -12.5q-25 0 -46 4t-31 8v94z" />
    <glyph glyph-name="agrave" unicode="&#xe0;" horiz-adv-x="603" 
d="M530 466v-466h-109v63q-22 -35 -62.5 -55t-81.5 -20q-53 0 -97 19.5t-75.5 53.5t-49 78t-17.5 94q0 49 17.5 93.5t49 78.5t75.5 53.5t97 19.5q41 0 81.5 -20t62.5 -55v63h109zM283 85q31 0 56.5 12t43.5 32t28 47t10 57t-10 57t-28 47t-43.5 32t-56.5 12t-56 -12t-43 -32
t-27.5 -47t-9.5 -57t9.5 -57t27.5 -47t43 -32t56 -12zM130 632l52 85l249 -137l-52 -85z" />
    <glyph glyph-name="aacute" unicode="&#xe1;" horiz-adv-x="603" 
d="M530 466v-466h-109v63q-22 -35 -62.5 -55t-81.5 -20q-53 0 -97 19.5t-75.5 53.5t-49 78t-17.5 94q0 49 17.5 93.5t49 78.5t75.5 53.5t97 19.5q41 0 81.5 -20t62.5 -55v63h109zM283 85q31 0 56.5 12t43.5 32t28 47t10 57t-10 57t-28 47t-43.5 32t-56.5 12t-56 -12t-43 -32
t-27.5 -47t-9.5 -57t9.5 -57t27.5 -47t43 -32t56 -12zM153 495l-52 85l249 137l52 -85z" />
    <glyph glyph-name="acircumflex" unicode="&#xe2;" horiz-adv-x="603" 
d="M530 466v-466h-109v63q-22 -35 -62.5 -55t-81.5 -20q-53 0 -97 19.5t-75.5 53.5t-49 78t-17.5 94q0 49 17.5 93.5t49 78.5t75.5 53.5t97 19.5q41 0 81.5 -20t62.5 -55v63h109zM283 85q31 0 56.5 12t43.5 32t28 47t10 57t-10 57t-28 47t-43.5 32t-56.5 12t-56 -12t-43 -32
t-27.5 -47t-9.5 -57t9.5 -57t27.5 -47t43 -32t56 -12zM283 737l181 -145l-68 -76l-112 90l-111 -89l-69 75z" />
    <glyph glyph-name="atilde" unicode="&#xe3;" horiz-adv-x="603" 
d="M530 466v-466h-109v63q-22 -35 -62.5 -55t-81.5 -20q-53 0 -97 19.5t-75.5 53.5t-49 78t-17.5 94q0 49 17.5 93.5t49 78.5t75.5 53.5t97 19.5q41 0 81.5 -20t62.5 -55v63h109zM283 85q31 0 56.5 12t43.5 32t28 47t10 57t-10 57t-28 47t-43.5 32t-56.5 12t-56 -12t-43 -32
t-27.5 -47t-9.5 -57t9.5 -57t27.5 -47t43 -32t56 -12zM103 662q22 14 38.5 22t28.5 11.5t20.5 4t15.5 0.5q10 0 30 -4t41.5 -9.5t40.5 -9.5t29 -4q8 0 15 1t15.5 4t20 8t29.5 14l43 -69q-39 -32 -67.5 -38.5t-41.5 -6.5q-11 0 -30.5 4t-41 9t-40.5 9t-29 4q-20 0 -36 -6.5
t-34 -14.5z" />
    <glyph glyph-name="adieresis" unicode="&#xe4;" horiz-adv-x="603" 
d="M421 0v63q-22 -35 -62.5 -55t-81.5 -20q-53 0 -97 19.5t-75.5 53.5t-49 78t-17.5 94q0 49 17.5 93.5t49 78.5t75.5 53.5t97 19.5q41 0 81.5 -20t62.5 -55v63h109v-466h-109zM167 534q-33 0 -56.5 23.5t-23.5 56.5q0 34 23.5 57.5t56.5 23.5q34 0 57.5 -23.5t23.5 -57.5
q0 -33 -23.5 -56.5t-57.5 -23.5zM396 534q-33 0 -56.5 23.5t-23.5 56.5q0 34 23.5 57.5t56.5 23.5q34 0 57.5 -23.5t23.5 -57.5q0 -33 -23.5 -56.5t-57.5 -23.5zM147 233q0 -30 9.5 -57t27.5 -47t43 -32t56 -12t56.5 12t43.5 32t28 47t10 57t-10 57t-28 47t-43.5 32
t-56.5 12t-56 -12t-43 -32t-27.5 -47t-9.5 -57z" />
    <glyph glyph-name="aring" unicode="&#xe5;" horiz-adv-x="603" 
d="M530 466v-466h-109v63q-22 -35 -62.5 -55t-81.5 -20q-53 0 -97 19.5t-75.5 53.5t-49 78t-17.5 94q0 49 17.5 93.5t49 78.5t75.5 53.5t97 19.5q41 0 81.5 -20t62.5 -55v63h109zM283 85q31 0 56.5 12t43.5 32t28 47t10 57t-10 57t-28 47t-43.5 32t-56.5 12t-56 -12t-43 -32
t-27.5 -47t-9.5 -57t9.5 -57t27.5 -47t43 -32t56 -12zM299 755q25 0 47.5 -10t39.5 -26.5t26.5 -39t9.5 -47.5t-9.5 -47.5t-26.5 -39t-39.5 -26.5t-47.5 -10q-26 0 -48 10t-39 26.5t-26.5 39t-9.5 47.5t9.5 47.5t26.5 39.5t39 26.5t48 9.5zM299 677q-19 0 -31.5 -13.5
t-12.5 -31.5q0 -17 13 -30t31 -13t31 13t13 31t-12.5 31t-31.5 13z" />
    <glyph glyph-name="ae" unicode="&#xe6;" horiz-adv-x="912" 
d="M530 466v-18q25 14 55.5 22t65.5 8q45 0 84.5 -16t69 -44.5t46 -66.5t16.5 -83q0 -12 -0.5 -28.5t-4.5 -39.5h-330q0 -25 7 -47t21.5 -38.5t37.5 -26t56 -9.5q23 0 39.5 5t28 13t19 19.5t12.5 23.5h110q-6 -30 -22.5 -57.5t-43 -48.5t-62.5 -33.5t-81 -12.5
q-38 0 -68.5 8.5t-55.5 22.5v-19h-109v63q-22 -35 -62.5 -55t-81.5 -20q-53 0 -97 19.5t-75.5 53.5t-49 78t-17.5 94q0 49 17.5 93.5t49 78.5t75.5 53.5t97 19.5q41 0 81.5 -20t62.5 -55v63h109zM648 387q-48 0 -81.5 -27t-33.5 -79h228q0 48 -31.5 77t-81.5 29zM283 85
q31 0 56.5 12t43.5 32t28 47t10 57q0 31 -10 58t-28 47t-43.5 31.5t-56.5 11.5t-56 -12t-43 -32t-27.5 -47t-9.5 -57t9.5 -57t27.5 -47t43 -32t56 -12z" />
    <glyph glyph-name="ccedilla" unicode="&#xe7;" horiz-adv-x="534" 
d="M384 296q-5 38 -29.5 61.5t-80.5 23.5q-32 0 -55 -12t-39 -32.5t-23.5 -47t-7.5 -56.5t7.5 -57t23.5 -47t41 -32t60 -12q48 0 70.5 20t33.5 55h109q-6 -35 -21 -65t-39.5 -52.5t-59.5 -36.5t-81 -17v-31q13 13 37 13q13 0 27 -5.5t25.5 -16.5t19 -27t7.5 -37
q0 -17 -6 -34.5t-19 -31.5t-32 -22.5t-45 -8.5q-6 0 -21 2t-31 10.5t-30.5 26t-18.5 47.5h64q9 -30 37 -30q17 0 27.5 11t10.5 30q0 17 -11 27t-26 10q-21 0 -31 -18h-54v89q-45 9 -79 31.5t-57.5 55t-35 72t-11.5 81.5q0 47 15 91.5t44.5 78.5t72.5 54.5t100 20.5t97.5 -16
t67 -41.5t40 -58t16.5 -66.5h-109z" />
    <glyph glyph-name="egrave" unicode="&#xe8;" horiz-adv-x="531" 
d="M151 200q0 -25 7 -47t21.5 -38.5t37.5 -26t56 -9.5q23 0 39.5 5t28 13t19 19.5t12.5 23.5h110q-6 -30 -22.5 -57.5t-43 -48.5t-62.5 -33.5t-81 -12.5q-59 0 -102.5 20.5t-72.5 54.5t-43.5 78t-14.5 92q0 52 15.5 97t44.5 78t72 51.5t98 18.5q45 0 84.5 -16t69 -44.5
t46 -66.5t16.5 -83q0 -12 -0.5 -28.5t-4.5 -39.5h-330zM267 387q-48 0 -81.5 -27t-33.5 -79h228q0 49 -31.5 77.5t-81.5 28.5zM145 632l52 85l249 -137l-52 -85z" />
    <glyph glyph-name="eacute" unicode="&#xe9;" horiz-adv-x="531" 
d="M151 200q0 -25 7 -47t21.5 -38.5t37.5 -26t56 -9.5q23 0 39.5 5t28 13t19 19.5t12.5 23.5h110q-6 -30 -22.5 -57.5t-43 -48.5t-62.5 -33.5t-81 -12.5q-59 0 -102.5 20.5t-72.5 54.5t-43.5 78t-14.5 92q0 52 15.5 97t44.5 78t72 51.5t98 18.5q45 0 84.5 -16t69 -44.5
t46 -66.5t16.5 -83q0 -12 -0.5 -28.5t-4.5 -39.5h-330zM267 387q-48 0 -81.5 -27t-33.5 -79h228q0 49 -31.5 77.5t-81.5 28.5zM164 495l-52 85l249 137l52 -85z" />
    <glyph glyph-name="ecircumflex" unicode="&#xea;" horiz-adv-x="531" 
d="M151 200q0 -25 7 -47t21.5 -38.5t37.5 -26t56 -9.5q23 0 39.5 5t28 13t19 19.5t12.5 23.5h110q-6 -30 -22.5 -57.5t-43 -48.5t-62.5 -33.5t-81 -12.5q-59 0 -102.5 20.5t-72.5 54.5t-43.5 78t-14.5 92q0 52 15.5 97t44.5 78t72 51.5t98 18.5q45 0 84.5 -16t69 -44.5
t46 -66.5t16.5 -83q0 -12 -0.5 -28.5t-4.5 -39.5h-330zM267 387q-48 0 -81.5 -27t-33.5 -79h228q0 49 -31.5 77.5t-81.5 28.5zM268 737l181 -145l-68 -76l-112 90l-111 -89l-69 75z" />
    <glyph glyph-name="edieresis" unicode="&#xeb;" horiz-adv-x="531" 
d="M151 200q0 -25 7 -47t21.5 -38.5t37.5 -26t56 -9.5q23 0 39.5 5t28 13t19 19.5t12.5 23.5h110q-6 -30 -22.5 -57.5t-43 -48.5t-62.5 -33.5t-81 -12.5q-59 0 -102.5 20.5t-72.5 54.5t-43.5 78t-14.5 92q0 52 15.5 97t44.5 78t72 51.5t98 18.5q45 0 84.5 -16t69 -44.5
t46 -66.5t16.5 -83q0 -12 -0.5 -28.5t-4.5 -39.5h-330zM267 387q-48 0 -81.5 -27t-33.5 -79h228q0 49 -31.5 77.5t-81.5 28.5zM302 614q0 34 23.5 57.5t56.5 23.5q34 0 57.5 -23.5t23.5 -57.5q0 -33 -23.5 -56.5t-57.5 -23.5q-33 0 -56.5 23.5t-23.5 56.5zM73 614
q0 34 23.5 57.5t56.5 23.5q34 0 57.5 -23.5t23.5 -57.5q0 -33 -23.5 -56.5t-57.5 -23.5q-33 0 -56.5 23.5t-23.5 56.5z" />
    <glyph glyph-name="igrave" unicode="&#xec;" horiz-adv-x="299" 
d="M95 466h109v-466h-109v466zM-1 652l52 85l249 -137l-52 -85z" />
    <glyph glyph-name="iacute" unicode="&#xed;" horiz-adv-x="299" 
d="M95 466h109v-466h-109v466zM51 515l-52 85l249 137l52 -85z" />
    <glyph glyph-name="icircumflex" unicode="&#xee;" horiz-adv-x="299" 
d="M96 466h109v-466h-109v466zM149 737l181 -145l-68 -76l-112 90l-111 -89l-69 75z" />
    <glyph glyph-name="idieresis" unicode="&#xef;" horiz-adv-x="299" 
d="M84 466h109v-466h-109v466zM184 614q0 34 23.5 57.5t56.5 23.5q34 0 57.5 -23.5t23.5 -57.5q0 -33 -23.5 -56.5t-57.5 -23.5q-33 0 -56.5 23.5t-23.5 56.5zM-45 614q0 34 23.5 57.5t56.5 23.5q34 0 57.5 -23.5t23.5 -57.5q0 -33 -23.5 -56.5t-57.5 -23.5
q-33 0 -56.5 23.5t-23.5 56.5z" />
    <glyph glyph-name="eth" unicode="&#xf0;" horiz-adv-x="566" 
d="M283 -12q-56 0 -101 19.5t-77 53.5t-49.5 78t-17.5 94q0 49 17.5 93.5t49.5 78.5t77 53.5t101 19.5h9l-28 45l-102 -54l-43 81l94 51l-60 99h132l27 -46l87 46l44 -81l-82 -43l124 -198q20 -32 32.5 -68.5t12.5 -76.5q0 -50 -17.5 -94t-50 -78t-78 -53.5t-101.5 -19.5z
M283 85q31 0 56.5 12t43.5 32t28 47t10 57t-10 57t-28 47t-43.5 32t-56.5 12t-56 -12t-43 -32t-27.5 -47t-9.5 -57t9.5 -57t27.5 -47t43 -32t56 -12z" />
    <glyph glyph-name="ntilde" unicode="&#xf1;" horiz-adv-x="569" 
d="M73 466h109v-65q22 38 61 57.5t91 19.5q51 0 85.5 -17t54.5 -46q17 -26 23.5 -58t6.5 -80v-277h-109v241q0 30 -5 56t-16.5 44.5t-31 29.5t-48.5 11q-57 0 -84.5 -40.5t-27.5 -100.5v-241h-109v466zM96 662q22 14 38.5 22t28.5 11.5t20.5 4t15.5 0.5q10 0 30 -4
t41.5 -9.5t40.5 -9.5t29 -4q8 0 15 1t15.5 4t20 8t29.5 14l43 -69q-39 -32 -67.5 -38.5t-41.5 -6.5q-11 0 -30.5 4t-41 9t-40.5 9t-29 4q-20 0 -36 -6.5t-34 -14.5z" />
    <glyph glyph-name="ograve" unicode="&#xf2;" horiz-adv-x="568" 
d="M283 -12q-56 0 -101 19.5t-77 53.5t-49.5 78t-17.5 94q0 49 17.5 93.5t49.5 78.5t77 53.5t101 19.5t101.5 -19.5t78 -53.5t50 -78.5t17.5 -93.5q0 -50 -17.5 -94t-50 -78t-78 -53.5t-101.5 -19.5zM283 85q31 0 56.5 12t43.5 32t28 47t10 57t-10 57t-28 47t-43.5 32
t-56.5 12t-56 -12t-43 -32t-27.5 -47t-9.5 -57t9.5 -57t27.5 -47t43 -32t56 -12zM143 632l52 85l249 -137l-52 -85z" />
    <glyph glyph-name="oacute" unicode="&#xf3;" horiz-adv-x="568" 
d="M283 -12q-56 0 -101 19.5t-77 53.5t-49.5 78t-17.5 94q0 49 17.5 93.5t49.5 78.5t77 53.5t101 19.5t101.5 -19.5t78 -53.5t50 -78.5t17.5 -93.5q0 -50 -17.5 -94t-50 -78t-78 -53.5t-101.5 -19.5zM283 85q31 0 56.5 12t43.5 32t28 47t10 57t-10 57t-28 47t-43.5 32
t-56.5 12t-56 -12t-43 -32t-27.5 -47t-9.5 -57t9.5 -57t27.5 -47t43 -32t56 -12zM156 495l-52 85l249 137l52 -85z" />
    <glyph glyph-name="ocircumflex" unicode="&#xf4;" horiz-adv-x="568" 
d="M283 -12q-56 0 -101 19.5t-77 53.5t-49.5 78t-17.5 94q0 49 17.5 93.5t49.5 78.5t77 53.5t101 19.5t101.5 -19.5t78 -53.5t50 -78.5t17.5 -93.5q0 -50 -17.5 -94t-50 -78t-78 -53.5t-101.5 -19.5zM283 85q31 0 56.5 12t43.5 32t28 47t10 57t-10 57t-28 47t-43.5 32
t-56.5 12t-56 -12t-43 -32t-27.5 -47t-9.5 -57t9.5 -57t27.5 -47t43 -32t56 -12zM284 737l181 -145l-68 -76l-112 90l-111 -89l-69 75z" />
    <glyph glyph-name="otilde" unicode="&#xf5;" horiz-adv-x="568" 
d="M283 -12q-56 0 -101 19.5t-77 53.5t-49.5 78t-17.5 94q0 49 17.5 93.5t49.5 78.5t77 53.5t101 19.5t101.5 -19.5t78 -53.5t50 -78.5t17.5 -93.5q0 -50 -17.5 -94t-50 -78t-78 -53.5t-101.5 -19.5zM283 85q31 0 56.5 12t43.5 32t28 47t10 57t-10 57t-28 47t-43.5 32
t-56.5 12t-56 -12t-43 -32t-27.5 -47t-9.5 -57t9.5 -57t27.5 -47t43 -32t56 -12zM92 637q22 14 38.5 22t28.5 11.5t20.5 4t15.5 0.5q10 0 30 -4t41.5 -9.5t40.5 -9.5t29 -4q8 0 15 1t15.5 4t20 8t29.5 14l43 -69q-39 -32 -67.5 -38.5t-41.5 -6.5q-11 0 -30.5 4t-41 9
t-40.5 9t-29 4q-20 0 -36 -6.5t-34 -14.5z" />
    <glyph glyph-name="odieresis" unicode="&#xf6;" horiz-adv-x="568" 
d="M169 534q-33 0 -56.5 23.5t-23.5 56.5q0 34 23.5 57.5t56.5 23.5q34 0 57.5 -23.5t23.5 -57.5q0 -33 -23.5 -56.5t-57.5 -23.5zM318 614q0 34 23.5 57.5t56.5 23.5q34 0 57.5 -23.5t23.5 -57.5q0 -33 -23.5 -56.5t-57.5 -23.5q-33 0 -56.5 23.5t-23.5 56.5zM283 85
q31 0 56.5 12t43.5 32t28 47t10 57t-10 57t-28 47t-43.5 32t-56.5 12t-56 -12t-43 -32t-27.5 -47t-9.5 -57t9.5 -57t27.5 -47t43 -32t56 -12zM283 -12q-56 0 -101 19.5t-77 53.5t-49.5 78t-17.5 94q0 49 17.5 93.5t49.5 78.5t77 53.5t101 19.5t101.5 -19.5t78 -53.5
t50 -78.5t17.5 -93.5q0 -50 -17.5 -94t-50 -78t-78 -53.5t-101.5 -19.5z" />
    <glyph glyph-name="divide" unicode="&#xf7;" 
d="M88 186v97h404v-97h-404zM210 74q0 34 23.5 57.5t56.5 23.5q34 0 57.5 -23.5t23.5 -57.5q0 -33 -23.5 -56.5t-57.5 -23.5q-33 0 -56.5 23.5t-23.5 56.5zM210 403q0 34 23.5 57.5t56.5 23.5q34 0 57.5 -23.5t23.5 -57.5q0 -33 -23.5 -56.5t-57.5 -23.5q-33 0 -56.5 23.5
t-23.5 56.5z" />
    <glyph glyph-name="oslash" unicode="&#xf8;" horiz-adv-x="568" 
d="M425 437q50 -34 77.5 -87.5t27.5 -116.5q0 -50 -17.5 -94t-50 -78t-78 -53.5t-101.5 -19.5q-24 0 -49 5l-36 -82l-92 40l34 79q-48 34 -75 87t-27 116q0 49 17.5 93.5t49.5 78.5t77 53.5t101 19.5q13 0 25 -1t23 -3l36 83l92 -40zM283 85q31 0 56.5 12t43.5 32t28 47
t10 57t-10 57.5t-29 47.5l-108 -253h9zM147 233q0 -61 36 -103l108 251h-8q-31 0 -56 -12t-43 -32t-27.5 -47t-9.5 -57z" />
    <glyph glyph-name="ugrave" unicode="&#xf9;" horiz-adv-x="569" 
d="M496 0h-109v65q-22 -38 -61 -57.5t-91 -19.5q-51 0 -85.5 17t-54.5 46q-17 26 -23.5 58t-6.5 80v277h109v-241q0 -30 5 -56t16.5 -44.5t31 -29.5t48.5 -11q57 0 84.5 40.5t27.5 100.5v241h109v-466zM134 632l52 85l249 -137l-52 -85z" />
    <glyph glyph-name="uacute" unicode="&#xfa;" horiz-adv-x="569" 
d="M496 0h-109v65q-22 -38 -61 -57.5t-91 -19.5q-51 0 -85.5 17t-54.5 46q-17 26 -23.5 58t-6.5 80v277h109v-241q0 -30 5 -56t16.5 -44.5t31 -29.5t48.5 -11q57 0 84.5 40.5t27.5 100.5v241h109v-466zM180 495l-52 85l249 137l52 -85z" />
    <glyph glyph-name="ucircumflex" unicode="&#xfb;" horiz-adv-x="569" 
d="M496 0h-109v65q-22 -38 -61 -57.5t-91 -19.5q-51 0 -85.5 17t-54.5 46q-17 26 -23.5 58t-6.5 80v277h109v-241q0 -30 5 -56t16.5 -44.5t31 -29.5t48.5 -11q57 0 84.5 40.5t27.5 100.5v241h109v-466zM275 737l181 -145l-68 -76l-112 90l-111 -89l-69 75z" />
    <glyph glyph-name="udieresis" unicode="&#xfc;" horiz-adv-x="569" 
d="M496 0h-109v65q-22 -38 -61 -57.5t-91 -19.5q-51 0 -85.5 17t-54.5 46q-17 26 -23.5 58t-6.5 80v277h109v-241q0 -30 5 -56t16.5 -44.5t31 -29.5t48.5 -11q57 0 84.5 40.5t27.5 100.5v241h109v-466zM316 614q0 34 23.5 57.5t56.5 23.5q34 0 57.5 -23.5t23.5 -57.5
q0 -33 -23.5 -56.5t-57.5 -23.5q-33 0 -56.5 23.5t-23.5 56.5zM87 614q0 34 23.5 57.5t56.5 23.5q34 0 57.5 -23.5t23.5 -57.5q0 -33 -23.5 -56.5t-57.5 -23.5q-33 0 -56.5 23.5t-23.5 56.5z" />
    <glyph glyph-name="yacute" unicode="&#xfd;" horiz-adv-x="578" 
d="M268 -245q-45 0 -82 15.5t-64 42t-42 61.5t-15 73h106q1 -39 27.5 -67t83.5 -28q59 0 88 28.5t29 97.5v87q-22 -38 -61 -57.5t-91 -19.5q-51 0 -85.5 17t-54.5 46q-17 26 -23.5 58t-6.5 80v277h109v-241q0 -30 5 -56t16.5 -44.5t31 -29.5t48.5 -11q57 0 84.5 40.5
t27.5 100.5v241h109v-488q0 -119 -62.5 -171t-177.5 -52zM192 495l-52 85l249 137l52 -85z" />
    <glyph glyph-name="thorn" unicode="&#xfe;" horiz-adv-x="599" 
d="M73 -234v934h109v-297q22 35 62.5 55t81.5 20q53 0 97 -19.5t75.5 -53.5t49 -78.5t17.5 -93.5q0 -50 -17.5 -94t-49 -78t-75.5 -53.5t-97 -19.5q-41 0 -81.5 20t-62.5 55v-297h-109zM320 85q31 0 56 12t43 32t27.5 47t9.5 57t-9.5 57t-27.5 47t-43 32t-56 12
q-32 0 -57.5 -12t-43.5 -32t-27.5 -47t-9.5 -57t9.5 -57t27.5 -47t43.5 -32t57.5 -12z" />
    <glyph glyph-name="ydieresis" unicode="&#xff;" horiz-adv-x="578" 
d="M268 -245q-45 0 -82 15.5t-64 42t-42 61.5t-15 73h106q1 -39 27.5 -67t83.5 -28q59 0 88 28.5t29 97.5v87q-22 -38 -61 -57.5t-91 -19.5q-51 0 -85.5 17t-54.5 46q-17 26 -23.5 58t-6.5 80v277h109v-241q0 -30 5 -56t16.5 -44.5t31 -29.5t48.5 -11q57 0 84.5 40.5
t27.5 100.5v241h109v-488q0 -119 -62.5 -171t-177.5 -52zM337 614q0 32 22 54.5t54 22.5t54.5 -22.5t22.5 -54.5t-22.5 -54t-54.5 -22t-54 22t-22 54zM108 614q0 32 22 54.5t54 22.5t54.5 -22.5t22.5 -54.5t-22.5 -54t-54.5 -22t-54 22t-22 54z" />
    <glyph glyph-name="Amacron" unicode="&#x100;" horiz-adv-x="571" 
d="M568 0h-121l-30 89h-263l-30 -89h-121l242 700h81zM189 192h193l-96 317zM464 803h-358v97h358v-97z" />
    <glyph glyph-name="amacron" unicode="&#x101;" horiz-adv-x="603" 
d="M530 466v-466h-109v63q-22 -35 -62.5 -55t-81.5 -20q-53 0 -97 19.5t-75.5 53.5t-49 78t-17.5 94q0 49 17.5 93.5t49 78.5t75.5 53.5t97 19.5q41 0 81.5 -20t62.5 -55v63h109zM283 85q31 0 56.5 12t43.5 32t28 47t10 57t-10 57t-28 47t-43.5 32t-56.5 12t-56 -12t-43 -32
t-27.5 -47t-9.5 -57t9.5 -57t27.5 -47t43 -32t56 -12zM455 566h-358v97h358v-97z" />
    <glyph glyph-name="Abreve" unicode="&#x102;" horiz-adv-x="571" 
d="M568 0h-121l-30 89h-263l-30 -89h-121l242 700h81zM189 192h193l-96 317zM185 900q25 -59 100 -59q38 0 63 16.5t36 42.5h103q-4 -33 -22 -61.5t-45.5 -49.5t-62.5 -33t-72 -12q-38 0 -72 12t-61 33t-45 49.5t-24 61.5h102z" />
    <glyph glyph-name="abreve" unicode="&#x103;" horiz-adv-x="603" 
d="M530 466v-466h-109v63q-22 -35 -62.5 -55t-81.5 -20q-53 0 -97 19.5t-75.5 53.5t-49 78t-17.5 94q0 49 17.5 93.5t49 78.5t75.5 53.5t97 19.5q41 0 81.5 -20t62.5 -55v63h109zM283 85q31 0 56.5 12t43.5 32t28 47t10 57t-10 57t-28 47t-43.5 32t-56.5 12t-56 -12t-43 -32
t-27.5 -47t-9.5 -57t9.5 -57t27.5 -47t43 -32t56 -12zM171 700q25 -59 100 -59q38 0 63 16.5t36 42.5h103q-4 -33 -22 -61.5t-45.5 -49.5t-62.5 -33t-72 -12q-38 0 -72 12t-61 33t-45 49.5t-24 61.5h102z" />
    <glyph glyph-name="Aogonek" unicode="&#x104;" horiz-adv-x="571" 
d="M574 -197q-16 -5 -40.5 -10t-50.5 -5q-57 0 -86 28.5t-29 68.5q0 32 19.5 59t59.5 56l-30 89h-263l-30 -89h-121l242 700h81l242 -700h-40q-10 -7 -20 -14.5t-18 -16.5t-13 -20.5t-5 -26.5q0 -21 12 -37t34 -16q12 0 27 3t29 9v-78zM189 192h193l-96 317z" />
    <glyph glyph-name="aogonek" unicode="&#x105;" horiz-adv-x="603" 
d="M548 -197q-16 -5 -40.5 -10t-50.5 -5q-57 0 -86 28.5t-29 68.5q0 32 19.5 59t59.5 56v63q-22 -35 -62.5 -55t-81.5 -20q-53 0 -97 19.5t-75.5 53.5t-49 78t-17.5 94q0 49 17.5 93.5t49 78.5t75.5 53.5t97 19.5q41 0 81.5 -20t62.5 -55v63h109v-466h-28q-10 -7 -20 -14.5
t-18 -16.5t-13 -20.5t-5 -26.5q0 -21 12 -37t34 -16q12 0 27 3t29 9v-78zM283 85q31 0 56.5 12t43.5 32t28 47t10 57t-10 57t-28 47t-43.5 32t-56.5 12t-56 -12t-43 -32t-27.5 -47t-9.5 -57t9.5 -57t27.5 -47t43 -32t56 -12z" />
    <glyph glyph-name="Cacute" unicode="&#x106;" horiz-adv-x="775" 
d="M738 225q-12 -51 -41 -95t-72 -77t-99 -51.5t-120 -18.5q-86 0 -154 30t-115.5 80.5t-73 117t-25.5 140.5q0 71 24.5 137t71 117t112 81.5t148.5 30.5q78 0 138.5 -21.5t103.5 -58t68.5 -86t33.5 -106.5h-121q-6 36 -23.5 67t-44 53.5t-62 35.5t-78.5 13
q-60 0 -107.5 -22t-79.5 -58.5t-49 -84t-17 -98.5q0 -54 17.5 -102t51 -84.5t83 -57.5t113.5 -21q30 0 60.5 10.5t56.5 29t45.5 44t28.5 55.5h126zM289 749l-52 85l249 137l52 -85z" />
    <glyph glyph-name="cacute" unicode="&#x107;" horiz-adv-x="534" 
d="M384 296q-5 38 -29.5 61.5t-80.5 23.5q-32 0 -55 -12t-39 -32.5t-23.5 -47t-7.5 -56.5t7.5 -57t23.5 -47t41 -32t60 -12q48 0 70.5 20t33.5 55h109q-6 -36 -22 -67.5t-43.5 -55t-66 -36.5t-89.5 -13q-57 0 -100.5 20.5t-73 54.5t-44.5 78t-15 92q0 47 15 91.5t44.5 78.5
t72.5 54.5t100 20.5t97.5 -16t67 -41.5t40 -58t16.5 -66.5h-109zM168 495l-52 85l249 137l52 -85z" />
    <glyph glyph-name="Ccircumflex" unicode="&#x108;" horiz-adv-x="775" 
d="M738 225q-12 -51 -41 -95t-72 -77t-99 -51.5t-120 -18.5q-86 0 -154 30t-115.5 80.5t-73 117t-25.5 140.5q0 71 24.5 137t71 117t112 81.5t148.5 30.5q78 0 138.5 -21.5t103.5 -58t68.5 -86t33.5 -106.5h-121q-6 36 -23.5 67t-44 53.5t-62 35.5t-78.5 13
q-60 0 -107.5 -22t-79.5 -58.5t-49 -84t-17 -98.5q0 -54 17.5 -102t51 -84.5t83 -57.5t113.5 -21q30 0 60.5 10.5t56.5 29t45.5 44t28.5 55.5h126zM396 973l180 -145l-68 -76l-112 90l-111 -89l-69 75z" />
    <glyph glyph-name="ccircumflex" unicode="&#x109;" horiz-adv-x="534" 
d="M384 296q-5 38 -29.5 61.5t-80.5 23.5q-32 0 -55 -12t-39 -32.5t-23.5 -47t-7.5 -56.5t7.5 -57t23.5 -47t41 -32t60 -12q48 0 70.5 20t33.5 55h109q-6 -36 -22 -67.5t-43.5 -55t-66 -36.5t-89.5 -13q-57 0 -100.5 20.5t-73 54.5t-44.5 78t-15 92q0 47 15 91.5t44.5 78.5
t72.5 54.5t100 20.5t97.5 -16t67 -41.5t40 -58t16.5 -66.5h-109zM267 737l180 -145l-68 -76l-112 90l-111 -89l-69 75z" />
    <glyph glyph-name="Cdotaccent" unicode="&#x10a;" horiz-adv-x="775" 
d="M738 225q-12 -51 -41 -95t-72 -77t-99 -51.5t-120 -18.5q-86 0 -154 30t-115.5 80.5t-73 117t-25.5 140.5q0 71 24.5 137t71 117t112 81.5t148.5 30.5q78 0 138.5 -21.5t103.5 -58t68.5 -86t33.5 -106.5h-121q-6 36 -23.5 67t-44 53.5t-62 35.5t-78.5 13
q-60 0 -107.5 -22t-79.5 -58.5t-49 -84t-17 -98.5q0 -54 17.5 -102t51 -84.5t83 -57.5t113.5 -21q30 0 60.5 10.5t56.5 29t45.5 44t28.5 55.5h126zM314 865q0 34 23.5 57.5t56.5 23.5q34 0 57.5 -23.5t23.5 -57.5q0 -33 -23.5 -56.5t-57.5 -23.5q-33 0 -56.5 23.5
t-23.5 56.5z" />
    <glyph glyph-name="cdotaccent" unicode="&#x10b;" horiz-adv-x="534" 
d="M384 296q-5 38 -29.5 61.5t-80.5 23.5q-32 0 -55 -12t-39 -32.5t-23.5 -47t-7.5 -56.5t7.5 -57t23.5 -47t41 -32t60 -12q48 0 70.5 20t33.5 55h109q-6 -36 -22 -67.5t-43.5 -55t-66 -36.5t-89.5 -13q-57 0 -100.5 20.5t-73 54.5t-44.5 78t-15 92q0 47 15 91.5t44.5 78.5
t72.5 54.5t100 20.5t97.5 -16t67 -41.5t40 -58t16.5 -66.5h-109zM193 613q0 34 23.5 57.5t56.5 23.5q34 0 57.5 -23.5t23.5 -57.5q0 -33 -23.5 -56.5t-57.5 -23.5q-33 0 -56.5 23.5t-23.5 56.5z" />
    <glyph glyph-name="Ccaron" unicode="&#x10c;" horiz-adv-x="775" 
d="M738 225q-12 -51 -41 -95t-72 -77t-99 -51.5t-120 -18.5q-86 0 -154 30t-115.5 80.5t-73 117t-25.5 140.5q0 71 24.5 137t71 117t112 81.5t148.5 30.5q78 0 138.5 -21.5t103.5 -58t68.5 -86t33.5 -106.5h-121q-6 36 -23.5 67t-44 53.5t-62 35.5t-78.5 13
q-60 0 -107.5 -22t-79.5 -58.5t-49 -84t-17 -98.5q0 -54 17.5 -102t51 -84.5t83 -57.5t113.5 -21q30 0 60.5 10.5t56.5 29t45.5 44t28.5 55.5h126zM227 896l58 76l101 -96l102 96l59 -76l-161 -145z" />
    <glyph glyph-name="ccaron" unicode="&#x10d;" horiz-adv-x="534" 
d="M384 296q-5 38 -29.5 61.5t-80.5 23.5q-32 0 -55 -12t-39 -32.5t-23.5 -47t-7.5 -56.5t7.5 -57t23.5 -47t41 -32t60 -12q48 0 70.5 20t33.5 55h109q-6 -36 -22 -67.5t-43.5 -55t-66 -36.5t-89.5 -13q-57 0 -100.5 20.5t-73 54.5t-44.5 78t-15 92q0 47 15 91.5t44.5 78.5
t72.5 54.5t100 20.5t97.5 -16t67 -41.5t40 -58t16.5 -66.5h-109zM114 661l58 76l101 -96l102 96l59 -76l-161 -145z" />
    <glyph glyph-name="Dcaron" unicode="&#x10e;" horiz-adv-x="701" 
d="M300 700q87 0 154.5 -30t114 -79t70.5 -112t24 -129t-24 -129t-70.5 -112t-114 -79t-154.5 -30h-227v700h227zM188 597v-494h112q58 0 104 21t77 55.5t47.5 79t16.5 91.5t-16.5 91.5t-47.5 79t-77 55.5t-104 21h-112zM170 896l58 76l101 -96l102 96l59 -76l-161 -145z
" />
    <glyph glyph-name="dcaron" unicode="&#x10f;" horiz-adv-x="751" 
d="M283 85q31 0 56.5 12t43.5 32t28 47t10 57t-10 57t-28 47t-43.5 32t-56.5 12t-56 -12t-43 -32t-27.5 -47t-9.5 -57t9.5 -57t27.5 -47t43 -32t56 -12zM421 700h109v-700h-109v63q-22 -35 -62.5 -55t-81.5 -20q-53 0 -97 19.5t-75.5 53.5t-49 78t-17.5 94q0 49 17.5 93.5
t49 78.5t75.5 53.5t97 19.5q41 0 81.5 -20t62.5 -55v297zM588 659q0 32 22.5 55t54.5 23q39 0 62.5 -27t23.5 -72q0 -88 -41.5 -123.5t-117.5 -36.5v49q25 0 41.5 5.5t27.5 14.5t16.5 20t7.5 22q-2 -2 -8 -3.5t-12 -1.5q-35 0 -56 21.5t-21 53.5z" />
    <glyph glyph-name="Dcroat" unicode="&#x110;" horiz-adv-x="701" 
d="M300 700q87 0 154.5 -30t114 -79t70.5 -112t24 -129t-24 -129t-70.5 -112t-114 -79t-154.5 -30h-227v302h-119v97h119v301h227zM312 302h-124v-199h112q58 0 104 21t77 55.5t47.5 79t16.5 91.5t-16.5 91.5t-47.5 79t-77 55.5t-104 21h-112v-198h124v-97z" />
    <glyph glyph-name="dcroat" unicode="&#x111;" horiz-adv-x="603" 
d="M571 517h-41v-517h-109v63q-22 -35 -62.5 -55t-81.5 -20q-53 0 -97 19.5t-75.5 53.5t-49 78t-17.5 94q0 49 17.5 93.5t49 78.5t75.5 53.5t97 19.5q41 0 81.5 -20t62.5 -55v114h-84v97h84v86h109v-86h41v-97zM283 85q31 0 56.5 12t43.5 32t28 47t10 57t-10 57t-28 47
t-43.5 32t-56.5 12t-56 -12t-43 -32t-27.5 -47t-9.5 -57t9.5 -57t27.5 -47t43 -32t56 -12z" />
    <glyph glyph-name="Emacron" unicode="&#x112;" horiz-adv-x="545" 
d="M188 597v-198h289v-103h-289v-193h289v-103h-404v700h404v-103h-289zM452 803h-358v97h358v-97z" />
    <glyph glyph-name="emacron" unicode="&#x113;" horiz-adv-x="531" 
d="M151 200q0 -25 7 -47t21.5 -38.5t37.5 -26t56 -9.5q23 0 39.5 5t28 13t19 19.5t12.5 23.5h110q-6 -30 -22.5 -57.5t-43 -48.5t-62.5 -33.5t-81 -12.5q-59 0 -102.5 20.5t-72.5 54.5t-43.5 78t-14.5 92q0 52 15.5 97t44.5 78t72 51.5t98 18.5q45 0 84.5 -16t69 -44.5
t46 -66.5t16.5 -83q0 -12 -0.5 -28.5t-4.5 -39.5h-330zM267 387q-48 0 -81.5 -27t-33.5 -79h228q0 49 -31.5 77.5t-81.5 28.5zM445 603h-358v97h358v-97z" />
    <glyph glyph-name="Ebreve" unicode="&#x114;" horiz-adv-x="545" 
d="M188 597v-198h289v-103h-289v-193h289v-103h-404v700h404v-103h-289zM173 899q25 -59 100 -59q38 0 63 16.5t36 42.5h103q-4 -33 -22 -61.5t-45.5 -49.5t-62.5 -33t-72 -12q-38 0 -72 12t-61 33t-45 49.5t-24 61.5h102z" />
    <glyph glyph-name="ebreve" unicode="&#x115;" horiz-adv-x="531" 
d="M151 200q0 -25 7 -47t21.5 -38.5t37.5 -26t56 -9.5q23 0 39.5 5t28 13t19 19.5t12.5 23.5h110q-6 -30 -22.5 -57.5t-43 -48.5t-62.5 -33.5t-81 -12.5q-59 0 -102.5 20.5t-72.5 54.5t-43.5 78t-14.5 92q0 52 15.5 97t44.5 78t72 51.5t98 18.5q45 0 84.5 -16t69 -44.5
t46 -66.5t16.5 -83q0 -12 -0.5 -28.5t-4.5 -39.5h-330zM267 387q-48 0 -81.5 -27t-33.5 -79h228q0 49 -31.5 77.5t-81.5 28.5zM166 700q25 -59 100 -59q38 0 63 16.5t36 42.5h103q-4 -33 -22 -61.5t-45.5 -49.5t-62.5 -33t-72 -12q-38 0 -72 12t-61 33t-45 49.5t-24 61.5
h102z" />
    <glyph glyph-name="Edotaccent" unicode="&#x116;" horiz-adv-x="545" 
d="M188 597v-198h289v-103h-289v-193h289v-103h-404v700h404v-103h-289zM192 865q0 34 23.5 57.5t56.5 23.5q34 0 57.5 -23.5t23.5 -57.5q0 -33 -23.5 -56.5t-57.5 -23.5q-33 0 -56.5 23.5t-23.5 56.5z" />
    <glyph glyph-name="edotaccent" unicode="&#x117;" horiz-adv-x="531" 
d="M151 200q0 -25 7 -47t21.5 -38.5t37.5 -26t56 -9.5q23 0 39.5 5t28 13t19 19.5t12.5 23.5h110q-6 -30 -22.5 -57.5t-43 -48.5t-62.5 -33.5t-81 -12.5q-59 0 -102.5 20.5t-72.5 54.5t-43.5 78t-14.5 92q0 52 15.5 97t44.5 78t72 51.5t98 18.5q45 0 84.5 -16t69 -44.5
t46 -66.5t16.5 -83q0 -12 -0.5 -28.5t-4.5 -39.5h-330zM267 387q-48 0 -81.5 -27t-33.5 -79h228q0 49 -31.5 77.5t-81.5 28.5zM185 613q0 34 23.5 57.5t56.5 23.5q34 0 57.5 -23.5t23.5 -57.5q0 -33 -23.5 -56.5t-57.5 -23.5q-33 0 -56.5 23.5t-23.5 56.5z" />
    <glyph glyph-name="Eogonek" unicode="&#x118;" horiz-adv-x="545" 
d="M523 -197q-16 -5 -40.5 -10t-50.5 -5q-57 0 -86 28.5t-29 68.5q0 32 19.5 59t59.5 56h-323v700h404v-103h-289v-198h289v-103h-289v-193h289v-103q-10 -7 -20 -14.5t-18 -16.5t-13 -20.5t-5 -26.5q0 -21 12 -37t34 -16q12 0 27 3t29 9v-78z" />
    <glyph glyph-name="eogonek" unicode="&#x119;" horiz-adv-x="531" 
d="M367 -197q-16 -5 -40.5 -10t-50.5 -5q-57 0 -86 28.5t-29 68.5q0 30 16.5 55.5t50.5 51.5q-48 7 -83 29.5t-58.5 55t-35 73t-11.5 83.5q0 52 15.5 97t44.5 78t72 51.5t98 18.5q45 0 84.5 -16t69 -44.5t46 -66.5t16.5 -83q0 -12 -0.5 -28.5t-4.5 -39.5h-330q0 -25 7 -47
t21.5 -38.5t37.5 -26t56 -9.5q23 0 39.5 5t28 13t19 19.5t12.5 23.5h110q-5 -27 -19 -52t-36.5 -45.5t-52.5 -34.5t-67 -18q-17 -12 -29.5 -28t-12.5 -40q0 -21 12 -37t34 -16q12 0 27 3t29 9v-78zM267 387q-48 0 -81.5 -27t-33.5 -79h228q0 49 -31.5 77.5t-81.5 28.5z" />
    <glyph glyph-name="Ecaron" unicode="&#x11a;" horiz-adv-x="545" 
d="M188 597v-198h289v-103h-289v-193h289v-103h-404v700h404v-103h-289zM112 896l58 76l101 -96l102 96l59 -76l-161 -145z" />
    <glyph glyph-name="ecaron" unicode="&#x11b;" horiz-adv-x="531" 
d="M151 200q0 -25 7 -47t21.5 -38.5t37.5 -26t56 -9.5q23 0 39.5 5t28 13t19 19.5t12.5 23.5h110q-6 -30 -22.5 -57.5t-43 -48.5t-62.5 -33.5t-81 -12.5q-59 0 -102.5 20.5t-72.5 54.5t-43.5 78t-14.5 92q0 52 15.5 97t44.5 78t72 51.5t98 18.5q45 0 84.5 -16t69 -44.5
t46 -66.5t16.5 -83q0 -12 -0.5 -28.5t-4.5 -39.5h-330zM267 387q-48 0 -81.5 -27t-33.5 -79h228q0 49 -31.5 77.5t-81.5 28.5zM105 661l58 76l101 -96l102 96l59 -76l-161 -145z" />
    <glyph glyph-name="Gcircumflex" unicode="&#x11c;" horiz-adv-x="838" 
d="M483 351h333v-103h-77q-12 -59 -39.5 -107.5t-70 -83.5t-100.5 -54.5t-131 -19.5q-86 0 -153 30.5t-113 81.5t-70 117.5t-24 137.5t25 137.5t72 117.5t113.5 81.5t149.5 30.5q62 0 114.5 -18t92 -49t63.5 -72.5t28 -87.5h-116q-5 26 -20 48.5t-39 39.5t-55.5 26.5
t-67.5 9.5q-56 0 -101 -22t-76.5 -58.5t-48 -84.5t-16.5 -99t16 -99t48 -84.5t80 -58.5t113 -22q45 0 80.5 13t61 35.5t41.5 52t21 61.5h-134v103zM399 976l180 -145l-68 -76l-112 90l-111 -89l-69 75z" />
    <glyph glyph-name="gcircumflex" unicode="&#x11d;" horiz-adv-x="600" 
d="M283 381q-31 0 -56 -12t-43 -32t-27.5 -47t-9.5 -57t9.5 -57t27.5 -47t43 -32t56 -12t56.5 12t43.5 32t28 47t10 57t-10 57t-28 47t-43.5 32t-56.5 12zM530 -23q0 -59 -17 -101t-49.5 -69t-78.5 -39.5t-104 -12.5t-101 16.5t-72 43.5t-44.5 61.5t-17.5 70.5h110
q4 -38 35 -66.5t90 -28.5q66 0 103 29.5t37 95.5v86q-22 -35 -62.5 -55t-81.5 -20q-53 0 -97 19.5t-75.5 53.5t-49 78t-17.5 94q0 49 17.5 93.5t49 78.5t75.5 53.5t97 19.5q41 0 81.5 -20t62.5 -55v63h109v-489zM277 737l180 -145l-68 -76l-112 90l-111 -89l-69 75z" />
    <glyph glyph-name="Gbreve" unicode="&#x11e;" horiz-adv-x="838" 
d="M483 351h333v-103h-77q-12 -59 -39.5 -107.5t-70 -83.5t-100.5 -54.5t-131 -19.5q-86 0 -153 30.5t-113 81.5t-70 117.5t-24 137.5t25 137.5t72 117.5t113.5 81.5t149.5 30.5q62 0 114.5 -18t92 -49t63.5 -72.5t28 -87.5h-116q-5 26 -20 48.5t-39 39.5t-55.5 26.5
t-67.5 9.5q-56 0 -101 -22t-76.5 -58.5t-48 -84.5t-16.5 -99t16 -99t48 -84.5t80 -58.5t113 -22q45 0 80.5 13t61 35.5t41.5 52t21 61.5h-134v103zM298 901q25 -59 100 -59q38 0 63 16.5t36 42.5h103q-4 -33 -22 -61.5t-45.5 -49.5t-62.5 -33t-72 -12q-38 0 -72 12t-61 33
t-45 49.5t-24 61.5h102z" />
    <glyph glyph-name="gbreve" unicode="&#x11f;" horiz-adv-x="600" 
d="M283 381q-31 0 -56 -12t-43 -32t-27.5 -47t-9.5 -57t9.5 -57t27.5 -47t43 -32t56 -12t56.5 12t43.5 32t28 47t10 57t-10 57t-28 47t-43.5 32t-56.5 12zM530 -23q0 -59 -17 -101t-49.5 -69t-78.5 -39.5t-104 -12.5t-101 16.5t-72 43.5t-44.5 61.5t-17.5 70.5h110
q4 -38 35 -66.5t90 -28.5q66 0 103 29.5t37 95.5v86q-22 -35 -62.5 -55t-81.5 -20q-53 0 -97 19.5t-75.5 53.5t-49 78t-17.5 94q0 49 17.5 93.5t49 78.5t75.5 53.5t97 19.5q41 0 81.5 -20t62.5 -55v63h109v-489zM177 700q25 -59 100 -59q38 0 63 16.5t36 42.5h103
q-4 -33 -22 -61.5t-45.5 -49.5t-62.5 -33t-72 -12q-38 0 -72 12t-61 33t-45 49.5t-24 61.5h102z" />
    <glyph glyph-name="Gdotaccent" unicode="&#x120;" horiz-adv-x="838" 
d="M483 351h333v-103h-77q-12 -59 -39.5 -107.5t-70 -83.5t-100.5 -54.5t-131 -19.5q-86 0 -153 30.5t-113 81.5t-70 117.5t-24 137.5t25 137.5t72 117.5t113.5 81.5t149.5 30.5q62 0 114.5 -18t92 -49t63.5 -72.5t28 -87.5h-116q-5 26 -20 48.5t-39 39.5t-55.5 26.5
t-67.5 9.5q-56 0 -101 -22t-76.5 -58.5t-48 -84.5t-16.5 -99t16 -99t48 -84.5t80 -58.5t113 -22q45 0 80.5 13t61 35.5t41.5 52t21 61.5h-134v103zM318 865q0 34 23.5 57.5t56.5 23.5q34 0 57.5 -23.5t23.5 -57.5q0 -33 -23.5 -56.5t-57.5 -23.5q-33 0 -56.5 23.5
t-23.5 56.5z" />
    <glyph glyph-name="gdotaccent" unicode="&#x121;" horiz-adv-x="600" 
d="M283 381q-31 0 -56 -12t-43 -32t-27.5 -47t-9.5 -57t9.5 -57t27.5 -47t43 -32t56 -12t56.5 12t43.5 32t28 47t10 57t-10 57t-28 47t-43.5 32t-56.5 12zM530 -23q0 -59 -17 -101t-49.5 -69t-78.5 -39.5t-104 -12.5t-101 16.5t-72 43.5t-44.5 61.5t-17.5 70.5h110
q4 -38 35 -66.5t90 -28.5q66 0 103 29.5t37 95.5v86q-22 -35 -62.5 -55t-81.5 -20q-53 0 -97 19.5t-75.5 53.5t-49 78t-17.5 94q0 49 17.5 93.5t49 78.5t75.5 53.5t97 19.5q41 0 81.5 -20t62.5 -55v63h109v-489zM189 613q0 34 23.5 57.5t56.5 23.5q34 0 57.5 -23.5
t23.5 -57.5q0 -33 -23.5 -56.5t-57.5 -23.5q-33 0 -56.5 23.5t-23.5 56.5z" />
    <glyph glyph-name="Gcommaaccent" unicode="&#x122;" horiz-adv-x="838" 
d="M483 351h333v-103h-77q-12 -59 -39.5 -107.5t-70 -83.5t-100.5 -54.5t-131 -19.5q-86 0 -153 30.5t-113 81.5t-70 117.5t-24 137.5t25 137.5t72 117.5t113.5 81.5t149.5 30.5q62 0 114.5 -18t92 -49t63.5 -72.5t28 -87.5h-116q-5 26 -20 48.5t-39 39.5t-55.5 26.5
t-67.5 9.5q-56 0 -101 -22t-76.5 -58.5t-48 -84.5t-16.5 -99t16 -99t48 -84.5t80 -58.5t113 -22q45 0 80.5 13t61 35.5t41.5 52t21 61.5h-134v103zM334 -93q0 27 19 46t45 19q32 0 52.5 -23t20.5 -60q0 -74 -35.5 -103.5t-98.5 -30.5v41q21 0 35 4t24 12q17 14 19 36
q-2 -2 -7 -3.5t-10 -1.5q-29 0 -46.5 19t-17.5 45z" />
    <glyph glyph-name="gcommaaccent" unicode="&#x123;" horiz-adv-x="600" 
d="M530 -23q0 -59 -17 -101t-49.5 -69t-78.5 -39.5t-104 -12.5t-101 16.5t-72 43.5t-44.5 61.5t-17.5 70.5h110q4 -38 35 -66.5t90 -28.5q66 0 103 29.5t37 95.5v86q-22 -35 -62.5 -55t-81.5 -20q-53 0 -97 19.5t-75.5 53.5t-49 78t-17.5 94q0 49 17.5 93.5t49 78.5
t75.5 53.5t97 19.5q41 0 81.5 -20t62.5 -55v63h109v-489zM283 85q31 0 56.5 12t43.5 32t28 47t10 57t-10 57t-28 47t-43.5 32t-56.5 12t-56 -12t-43 -32t-27.5 -47t-9.5 -57t9.5 -57t27.5 -47t43 -32t56 -12zM352 613q0 -32 -22.5 -55t-54.5 -23q-39 0 -62.5 27t-23.5 72
q0 88 41.5 123.5t117.5 36.5v-49q-46 0 -69 -20q-11 -8 -16.5 -19.5t-7.5 -22.5q2 2 8 3.5t12 1.5q35 0 56 -21.5t21 -53.5z" />
    <glyph glyph-name="Hcircumflex" unicode="&#x124;" horiz-adv-x="665" 
d="M477 296h-289v-296h-115v700h115v-301h289v301h115v-700h-115v296zM332 973l180 -145l-68 -76l-112 90l-111 -89l-69 75z" />
    <glyph glyph-name="hcircumflex" unicode="&#x125;" horiz-adv-x="569" 
d="M73 700h109v-299q22 38 61 57.5t91 19.5q51 0 85.5 -17t54.5 -46q17 -26 23.5 -58t6.5 -80v-277h-109v241q0 30 -5 56t-16.5 44.5t-31 29.5t-48.5 11q-57 0 -84.5 -40.5t-27.5 -100.5v-241h-109v700zM309 973l180 -145l-68 -76l-112 90l-111 -89l-69 75z" />
    <glyph glyph-name="Hbar" unicode="&#x126;" horiz-adv-x="665" 
d="M477 496h-289v-97h289v97zM188 700v-107h289v107h115v-700h-115v296h-289v-296h-115v700h115z" />
    <glyph glyph-name="hbar" unicode="&#x127;" horiz-adv-x="569" 
d="M358 517h-176v-116q22 38 61 57.5t91 19.5q51 0 85.5 -17t54.5 -46q17 -26 23.5 -58t6.5 -80v-277h-109v241q0 30 -5 56t-16.5 44.5t-31 29.5t-48.5 11q-57 0 -84.5 -40.5t-27.5 -100.5v-241h-109v517h-73v97h73v86h109v-86h176v-97z" />
    <glyph glyph-name="Itilde" unicode="&#x128;" horiz-adv-x="265" 
d="M73 700h119v-700h-119v700zM-51 870q22 14 38.5 22t28.5 11.5t20.5 4t15.5 0.5q10 0 30 -4t41.5 -9.5t40.5 -9.5t29 -4q8 0 15 1t15.5 4t20 8t29.5 14l43 -69q-39 -32 -67.5 -38.5t-41.5 -6.5q-11 0 -30.5 4t-41 9t-40.5 9t-29 4q-20 0 -36 -6.5t-34 -14.5z" />
    <glyph glyph-name="itilde" unicode="&#x129;" horiz-adv-x="299" 
d="M95 466h109v-466h-109v466zM-34 633q22 14 38.5 22t28.5 11.5t20.5 4t15.5 0.5q10 0 30 -4t41.5 -9.5t40.5 -9.5t29 -4q8 0 15 1t15.5 4t20 8t29.5 14l43 -69q-39 -32 -67.5 -38.5t-41.5 -6.5q-11 0 -30.5 4t-41 9t-40.5 9t-29 4q-20 0 -36 -6.5t-34 -14.5z" />
    <glyph glyph-name="Imacron" unicode="&#x12a;" horiz-adv-x="265" 
d="M73 700h119v-700h-119v700zM312 803h-358v97h358v-97z" />
    <glyph glyph-name="imacron" unicode="&#x12b;" horiz-adv-x="299" 
d="M96 466h109v-466h-109v466zM329 565h-358v97h358v-97z" />
    <glyph glyph-name="Ibreve" unicode="&#x12c;" horiz-adv-x="265" 
d="M73 700h119v-700h-119v700zM33 900q25 -59 100 -59q38 0 63 16.5t36 42.5h103q-4 -33 -22 -61.5t-45.5 -49.5t-62.5 -33t-72 -12q-38 0 -72 12t-61 33t-45 49.5t-24 61.5h102z" />
    <glyph glyph-name="ibreve" unicode="&#x12d;" horiz-adv-x="299" 
d="M96 466h109v-466h-109v466zM50 700q25 -59 100 -59q38 0 63 16.5t36 42.5h103q-4 -33 -22 -61.5t-45.5 -49.5t-62.5 -33t-72 -12q-38 0 -72 12t-61 33t-45 49.5t-24 61.5h102z" />
    <glyph glyph-name="Iogonek" unicode="&#x12e;" horiz-adv-x="265" 
d="M154 0q-10 -7 -20 -14.5t-18 -16.5t-13 -20.5t-5 -26.5q0 -21 12 -37t34 -16q12 0 27 3t29 9v-78q-16 -5 -40.5 -10t-50.5 -5q-57 0 -86 28.5t-29 68.5q0 32 19.5 59t59.5 56v700h119v-700h-38z" />
    <glyph glyph-name="iogonek" unicode="&#x12f;" horiz-adv-x="299" 
d="M248 -197q-16 -5 -40.5 -10t-50.5 -5q-57 0 -86 28.5t-29 68.5q0 32 19.5 59t59.5 56v466h109v-466h-28q-10 -7 -20 -14.5t-18 -16.5t-13 -20.5t-5 -26.5q0 -21 12 -37t34 -16q12 0 27 3t29 9v-78zM95 636q0 34 23.5 57.5t56.5 23.5q34 0 57.5 -23.5t23.5 -57.5
q0 -33 -23.5 -56.5t-57.5 -23.5q-33 0 -56.5 23.5t-23.5 56.5z" />
    <glyph glyph-name="Idotaccent" unicode="&#x130;" horiz-adv-x="265" 
d="M73 700h119v-700h-119v700zM52 865q0 34 23.5 57.5t56.5 23.5q34 0 57.5 -23.5t23.5 -57.5q0 -33 -23.5 -56.5t-57.5 -23.5q-33 0 -56.5 23.5t-23.5 56.5z" />
    <glyph glyph-name="dotlessi" unicode="&#x131;" horiz-adv-x="238" 
d="M65 466h109v-466h-109v466z" />
    <glyph glyph-name="Jcircumflex" unicode="&#x134;" horiz-adv-x="536" 
d="M468 227q0 -51 -15 -95.5t-44.5 -77.5t-72 -52t-97.5 -19q-54 0 -96.5 19t-71.5 52.5t-44 78t-15 95.5h115q0 -63 27.5 -102.5t84.5 -39.5t85.5 39t28.5 102v473h115v-473zM410 972l180 -145l-68 -76l-112 90l-111 -89l-69 75z" />
    <glyph glyph-name="jcircumflex" unicode="&#x135;" horiz-adv-x="295" 
d="M202 -109q0 -39 -8.5 -65t-22.5 -41.5t-31.5 -22t-35.5 -6.5q-26 0 -49.5 3t-34.5 8v90q16 -4 23.5 -5t14.5 -1q17 0 26 10.5t9 36.5v568h109v-575zM151 794l180 -145l-68 -76l-112 90l-111 -89l-69 75z" />
    <glyph glyph-name="Kcommaaccent" unicode="&#x136;" horiz-adv-x="607" 
d="M448 0l-260 307v-307h-115v700h115v-308l260 308h144l-296 -350l296 -350h-144zM242 -82q0 27 19 46t45 19q32 0 52.5 -23t20.5 -60q0 -74 -35.5 -103.5t-98.5 -30.5v41q21 0 35 4t24 12q17 14 19 36q-2 -2 -7 -3.5t-10 -1.5q-29 0 -46.5 19t-17.5 45z" />
    <glyph glyph-name="kcommaaccent" unicode="&#x137;" horiz-adv-x="499" 
d="M489 466l-194 -233l194 -233h-136l-171 205v-205h-109v700h109v-440l171 206h136zM182 -82q0 27 19 46t45 19q32 0 52.5 -23t20.5 -60q0 -74 -35.5 -103.5t-98.5 -30.5v41q21 0 35 4t24 12q17 14 19 36q-2 -2 -7 -3.5t-10 -1.5q-29 0 -46.5 19t-17.5 45z" />
    <glyph glyph-name="kgreenlandic" unicode="&#x138;" horiz-adv-x="499" 
d="M295 233l194 -233h-136l-171 205v-205h-109v466h109v-206l171 206h136z" />
    <glyph glyph-name="Lacute" unicode="&#x139;" horiz-adv-x="429" 
d="M404 103v-103h-331v700h115v-597h216zM35 749l-52 85l249 137l52 -85z" />
    <glyph glyph-name="lacute" unicode="&#x13a;" horiz-adv-x="255" 
d="M73 700h109v-700h-109v700zM29 751l-52 85l249 137l52 -85z" />
    <glyph glyph-name="Lcommaaccent" unicode="&#x13b;" horiz-adv-x="429" 
d="M73 700h115v-597h216v-103h-331v700zM146 -82q0 27 19 46t45 19q32 0 52.5 -23t20.5 -60q0 -74 -35.5 -103.5t-98.5 -30.5v41q21 0 35 4t24 12q17 14 19 36q-5 -5 -17 -5q-29 0 -46.5 19t-17.5 45z" />
    <glyph glyph-name="lcommaaccent" unicode="&#x13c;" horiz-adv-x="255" 
d="M73 700h109v-700h-109v700zM59 -82q0 27 19 46t45 19q32 0 52.5 -23t20.5 -60q0 -74 -35.5 -103.5t-98.5 -30.5v41q21 0 35 4t24 12q17 14 19 36q-5 -5 -17 -5q-29 0 -46.5 19t-17.5 45z" />
    <glyph glyph-name="Lcaron" unicode="&#x13d;" horiz-adv-x="429" 
d="M404 103v-103h-331v700h115v-597h216zM-31 896l58 76l101 -96l102 96l59 -76l-161 -145z" />
    <glyph glyph-name="lcaron" unicode="&#x13e;" horiz-adv-x="403" 
d="M73 700h109v-700h-109v700zM240 662q0 32 22.5 55t54.5 23q39 0 62.5 -27t23.5 -72q0 -88 -41.5 -123.5t-117.5 -36.5v49q25 0 41.5 5.5t27.5 14.5t16.5 20t7.5 22q-2 -2 -8 -3.5t-12 -1.5q-35 0 -56 21.5t-21 53.5z" />
    <glyph glyph-name="Ldot" unicode="&#x13f;" horiz-adv-x="429" 
d="M404 103v-103h-331v700h115v-597h216zM268 312q0 34 23.5 57.5t56.5 23.5q34 0 57.5 -23.5t23.5 -57.5q0 -33 -23.5 -56.5t-57.5 -23.5q-33 0 -56.5 23.5t-23.5 56.5z" />
    <glyph glyph-name="ldot" unicode="&#x140;" horiz-adv-x="362" 
d="M73 700h109v-700h-109v700zM201 312q0 34 23.5 57.5t56.5 23.5q34 0 57.5 -23.5t23.5 -57.5q0 -33 -23.5 -56.5t-57.5 -23.5q-33 0 -56.5 23.5t-23.5 56.5z" />
    <glyph glyph-name="Lslash" unicode="&#x141;" horiz-adv-x="429" 
d="M404 103v-103h-331v255l-44 -18v104l44 18v341h115v-294l167 70v-104l-167 -70v-199h216z" />
    <glyph glyph-name="lslash" unicode="&#x142;" horiz-adv-x="255" 
d="M73 272l-66 -35v104l66 35v324h119v-261l69 37v-104l-69 -37v-335h-119v272z" />
    <glyph glyph-name="Nacute" unicode="&#x143;" horiz-adv-x="664" 
d="M476 202v498h115v-700h-126l-277 498v-498h-115v700h126zM233 749l-52 85l249 137l52 -85z" />
    <glyph glyph-name="nacute" unicode="&#x144;" horiz-adv-x="569" 
d="M73 466h109v-65q22 38 61 57.5t91 19.5q51 0 85.5 -17t54.5 -46q17 -26 23.5 -58t6.5 -80v-277h-109v241q0 30 -5 56t-16.5 44.5t-31 29.5t-48.5 11q-57 0 -84.5 -40.5t-27.5 -100.5v-241h-109v466zM186 495l-52 85l249 137l52 -85z" />
    <glyph glyph-name="Ncommaaccent" unicode="&#x145;" horiz-adv-x="664" 
d="M465 0l-277 498v-498h-115v700h126l277 -498v498h115v-700h-126zM263 -82q0 27 19 46t45 19q32 0 52.5 -23t20.5 -60q0 -74 -35.5 -103.5t-98.5 -30.5v41q21 0 35 4t24 12q17 14 19 36q-2 -2 -7 -3.5t-10 -1.5q-29 0 -46.5 19t-17.5 45z" />
    <glyph glyph-name="ncommaaccent" unicode="&#x146;" horiz-adv-x="569" 
d="M73 0v466h109v-65q22 38 61 57.5t91 19.5q51 0 85.5 -17t54.5 -46q17 -26 23.5 -58t6.5 -80v-277h-109v241q0 30 -5 56t-16.5 44.5t-31 29.5t-48.5 11q-57 0 -84.5 -40.5t-27.5 -100.5v-241h-109zM231 -82q0 27 19 46t45 19q32 0 52.5 -23t20.5 -60q0 -74 -35.5 -103.5
t-98.5 -30.5v41q21 0 35 4t24 12q17 14 19 36q-2 -2 -7 -3.5t-10 -1.5q-29 0 -46.5 19t-17.5 45z" />
    <glyph glyph-name="Ncaron" unicode="&#x147;" horiz-adv-x="664" 
d="M476 202v498h115v-700h-126l-277 498v-498h-115v700h126zM172 896l58 76l101 -96l102 96l59 -76l-161 -145z" />
    <glyph glyph-name="ncaron" unicode="&#x148;" horiz-adv-x="569" 
d="M73 0v466h109v-65q22 38 61 57.5t91 19.5q51 0 85.5 -17t54.5 -46q17 -26 23.5 -58t6.5 -80v-277h-109v241q0 30 -5 56t-16.5 44.5t-31 29.5t-48.5 11q-57 0 -84.5 -40.5t-27.5 -100.5v-241h-109zM139 717l58 76l101 -96l102 96l59 -76l-161 -145z" />
    <glyph glyph-name="napostrophe" unicode="&#x149;" horiz-adv-x="569" 
d="M73 0v466h109v-65q22 38 61 57.5t91 19.5q51 0 85.5 -17t54.5 -46q17 -26 23.5 -58t6.5 -80v-277h-109v241q0 30 -5 56t-16.5 44.5t-31 29.5t-48.5 11q-57 0 -84.5 -40.5t-27.5 -100.5v-241h-109zM58 672q0 27 19 46t45 19q32 0 52.5 -23t20.5 -60q0 -74 -35.5 -103.5
t-98.5 -30.5v41q21 0 35 4.5t24 11.5q17 14 19 36q-2 -2 -7 -3.5t-10 -1.5q-29 0 -46.5 19t-17.5 45z" />
    <glyph glyph-name="Eng" unicode="&#x14a;" horiz-adv-x="664" 
d="M476 202v498h115v-701q0 -51 -15 -95.5t-44.5 -77.5t-72 -52t-97.5 -19q-56 0 -96.5 22.5t-69.5 57.5l75 72q21 -21 40 -35t51 -14q57 0 85.5 39t28.5 102l-288 499v-498h-115v700h115z" />
    <glyph glyph-name="eng" unicode="&#x14b;" horiz-adv-x="569" 
d="M202 -101q20 -20 37.5 -33t48.5 -13q54 0 80.5 36.5t26.5 95.5v256q0 30 -5 56t-16.5 44.5t-31 29.5t-48.5 11q-57 0 -84.5 -40.5t-27.5 -100.5v-241h-109v466h109v-65q22 38 61 57.5t91 19.5q51 0 85.5 -17t54.5 -46q17 -26 23.5 -58t6.5 -80v-292q0 -48 -14 -90
t-41.5 -73t-68 -49t-92.5 -18q-53 0 -91 21.5t-66 54.5z" />
    <glyph glyph-name="Omacron" unicode="&#x14c;" horiz-adv-x="800" 
d="M400 -17q-84 0 -151.5 30.5t-114 81.5t-71.5 117.5t-25 137.5t25 137.5t71.5 117.5t114 81.5t151.5 30.5t151.5 -30.5t114 -81.5t71.5 -117.5t25 -137.5t-25 -137.5t-71.5 -117.5t-114 -81.5t-151.5 -30.5zM400 86q56 0 100.5 22t76 59t48 84.5t16.5 98.5t-16.5 98.5
t-48 84.5t-76 59t-100.5 22t-100.5 -22t-76 -59t-48 -84.5t-16.5 -98.5t16.5 -98.5t48 -84.5t76 -59t100.5 -22zM579 803h-358v97h358v-97z" />
    <glyph glyph-name="omacron" unicode="&#x14d;" horiz-adv-x="568" 
d="M283 -12q-56 0 -101 19.5t-77 53.5t-49.5 78t-17.5 94q0 49 17.5 93.5t49.5 78.5t77 53.5t101 19.5t101.5 -19.5t78 -53.5t50 -78.5t17.5 -93.5q0 -50 -17.5 -94t-50 -78t-78 -53.5t-101.5 -19.5zM283 85q31 0 56.5 12t43.5 32t28 47t10 57t-10 57t-28 47t-43.5 32
t-56.5 12t-56 -12t-43 -32t-27.5 -47t-9.5 -57t9.5 -57t27.5 -47t43 -32t56 -12zM463 565h-358v97h358v-97z" />
    <glyph glyph-name="Obreve" unicode="&#x14e;" horiz-adv-x="800" 
d="M400 -17q-84 0 -151.5 30.5t-114 81.5t-71.5 117.5t-25 137.5t25 137.5t71.5 117.5t114 81.5t151.5 30.5t151.5 -30.5t114 -81.5t71.5 -117.5t25 -137.5t-25 -137.5t-71.5 -117.5t-114 -81.5t-151.5 -30.5zM400 86q56 0 100.5 22t76 59t48 84.5t16.5 98.5t-16.5 98.5
t-48 84.5t-76 59t-100.5 22t-100.5 -22t-76 -59t-48 -84.5t-16.5 -98.5t16.5 -98.5t48 -84.5t76 -59t100.5 -22zM300 899q25 -59 100 -59q38 0 63 16.5t36 42.5h103q-4 -33 -22 -61.5t-45.5 -49.5t-62.5 -33t-72 -12q-38 0 -72 12t-61 33t-45 49.5t-24 61.5h102z" />
    <glyph glyph-name="obreve" unicode="&#x14f;" horiz-adv-x="568" 
d="M283 -12q-56 0 -101 19.5t-77 53.5t-49.5 78t-17.5 94q0 49 17.5 93.5t49.5 78.5t77 53.5t101 19.5t101.5 -19.5t78 -53.5t50 -78.5t17.5 -93.5q0 -50 -17.5 -94t-50 -78t-78 -53.5t-101.5 -19.5zM283 85q31 0 56.5 12t43.5 32t28 47t10 57t-10 57t-28 47t-43.5 32
t-56.5 12t-56 -12t-43 -32t-27.5 -47t-9.5 -57t9.5 -57t27.5 -47t43 -32t56 -12zM184 700q25 -59 100 -59q38 0 63 16.5t36 42.5h103q-4 -33 -22 -61.5t-45.5 -49.5t-62.5 -33t-72 -12q-38 0 -72 12t-61 33t-45 49.5t-24 61.5h102z" />
    <glyph glyph-name="Ohungarumlaut" unicode="&#x150;" horiz-adv-x="800" 
d="M400 -17q-84 0 -151.5 30.5t-114 81.5t-71.5 117.5t-25 137.5t25 137.5t71.5 117.5t114 81.5t151.5 30.5t151.5 -30.5t114 -81.5t71.5 -117.5t25 -137.5t-25 -137.5t-71.5 -117.5t-114 -81.5t-151.5 -30.5zM400 86q56 0 100.5 22t76 59t48 84.5t16.5 98.5t-16.5 98.5
t-48 84.5t-76 59t-100.5 22t-100.5 -22t-76 -59t-48 -84.5t-16.5 -98.5t16.5 -98.5t48 -84.5t76 -59t100.5 -22zM539 968l96 -48l-169 -146l-52 28zM344 968l96 -48l-169 -146l-52 28z" />
    <glyph glyph-name="ohungarumlaut" unicode="&#x151;" horiz-adv-x="568" 
d="M283 -12q-56 0 -101 19.5t-77 53.5t-49.5 78t-17.5 94q0 49 17.5 93.5t49.5 78.5t77 53.5t101 19.5t101.5 -19.5t78 -53.5t50 -78.5t17.5 -93.5q0 -50 -17.5 -94t-50 -78t-78 -53.5t-101.5 -19.5zM116 568l125 166l96 -48l-169 -146zM147 233q0 -30 9.5 -57t27.5 -47
t43 -32t56 -12t56.5 12t43.5 32t28 47t10 57t-10 57t-28 47t-43.5 32t-56.5 12t-56 -12t-43 -32t-27.5 -47t-9.5 -57zM363 540l-52 28l125 166l96 -48z" />
    <glyph glyph-name="OE" unicode="&#x152;" horiz-adv-x="1114" 
d="M757 597v-198h289v-103h-289v-193h289v-103h-404v71q-45 -42 -106 -66t-136 -24q-84 0 -151.5 30.5t-114 81.5t-71.5 117.5t-25 137.5t25 137.5t71.5 117.5t114 81.5t151.5 30.5q75 0 136 -24t106 -66v75h404v-103h-289zM400 84q56 0 100.5 22t76 59t48 84.5t16.5 98.5
t-16.5 98.5t-48 84.5t-76 59t-100.5 22t-100.5 -22t-76 -59t-48 -84.5t-16.5 -98.5t16.5 -98.5t48 -84.5t76 -59t100.5 -22z" />
    <glyph glyph-name="oe" unicode="&#x153;" horiz-adv-x="912" 
d="M532 200q0 -25 7 -47t21.5 -38.5t37.5 -26t56 -9.5q23 0 39.5 5t28 13t19 19.5t12.5 23.5h110q-6 -30 -22.5 -57.5t-43 -48.5t-62.5 -33.5t-81 -12.5q-63 0 -108 22.5t-74 60.5q-32 -38 -80.5 -60.5t-108.5 -22.5q-56 0 -101 19.5t-77 53.5t-49.5 78t-17.5 94
q0 49 17.5 93.5t49.5 78.5t77 53.5t101 19.5q60 0 107.5 -22t79.5 -60q29 38 75 60t106 22q45 0 84.5 -16t69 -44.5t46 -66.5t16.5 -83q0 -12 -0.5 -28.5t-4.5 -39.5h-330zM648 387q-48 0 -81.5 -27t-33.5 -79h228q0 49 -31.5 77.5t-81.5 28.5zM283 85q31 0 56.5 11.5
t43.5 31t28 46.5t10 59q0 31 -10 58t-28 47t-43.5 31.5t-56.5 11.5t-56 -12t-43 -32t-27.5 -47t-9.5 -57t9.5 -57t27.5 -47t43 -32t56 -12z" />
    <glyph glyph-name="Racute" unicode="&#x154;" horiz-adv-x="609" 
d="M73 700h251q56 0 101.5 -19.5t78 -53.5t50 -78.5t17.5 -93.5q0 -38 -10 -72.5t-29.5 -64t-47 -53t-61.5 -37.5l139 -228h-131l-128 210h-115v-210h-115v700zM324 313q30 0 54.5 11.5t41.5 31t26.5 45t9.5 54.5t-9.5 54.5t-26.5 45t-41.5 31t-54.5 11.5h-136v-284h136z
M206 749l-52 85l249 137l52 -85z" />
    <glyph glyph-name="racute" unicode="&#x155;" horiz-adv-x="378" 
d="M369 365q-13 3 -21.5 4t-21.5 1q-70 0 -107 -40.5t-37 -128.5v-201h-109v466h109v-75q8 16 22.5 30.5t34 26t42 18t45.5 6.5q26 0 43 -7v-100zM91 515l-52 85l249 137l52 -85z" />
    <glyph glyph-name="Rcommaaccent" unicode="&#x156;" horiz-adv-x="609" 
d="M73 700h251q56 0 101.5 -19.5t78 -53.5t50 -78.5t17.5 -93.5q0 -38 -10 -72.5t-29.5 -64t-47 -53t-61.5 -37.5l139 -228h-131l-128 210h-115v-210h-115v700zM188 597v-284h136q30 0 54.5 11.5t41.5 31t26.5 45t9.5 54.5t-9.5 54.5t-26.5 45t-41.5 31t-54.5 11.5h-136z
M236 -82q0 27 19 46t45 19q32 0 52.5 -23t20.5 -60q0 -74 -35.5 -103.5t-98.5 -30.5v41q41 0 58.5 16t19.5 36q-2 -2 -7 -3.5t-10 -1.5q-29 0 -46.5 19t-17.5 45z" />
    <glyph glyph-name="rcommaaccent" unicode="&#x157;" horiz-adv-x="378" 
d="M369 365q-13 3 -21.5 4t-21.5 1q-70 0 -107 -40.5t-37 -128.5v-201h-109v466h109v-75q8 16 22.5 30.5t34 26t42 18t45.5 6.5q26 0 43 -7v-100zM59 -82q0 27 19 46t45 19q32 0 52.5 -23t20.5 -60q0 -74 -35.5 -103.5t-98.5 -30.5v41q21 0 35 4t24 12q17 14 19 36
q-5 -5 -17 -5q-29 0 -46.5 19t-17.5 45z" />
    <glyph glyph-name="Rcaron" unicode="&#x158;" horiz-adv-x="609" 
d="M73 700h251q56 0 101.5 -19.5t78 -53.5t50 -78.5t17.5 -93.5q0 -38 -10 -72.5t-29.5 -64t-47 -53t-61.5 -37.5l139 -228h-131l-128 210h-115v-210h-115v700zM324 313q30 0 54.5 11.5t41.5 31t26.5 45t9.5 54.5t-9.5 54.5t-26.5 45t-41.5 31t-54.5 11.5h-136v-284h136z
M124 898l58 76l101 -96l102 96l59 -76l-161 -145z" />
    <glyph glyph-name="rcaron" unicode="&#x159;" horiz-adv-x="378" 
d="M369 365q-13 3 -21.5 4t-21.5 1q-70 0 -107 -40.5t-37 -128.5v-201h-109v466h109v-75q8 16 22.5 30.5t34 26t42 18t45.5 6.5q26 0 43 -7v-100zM44 655l58 76l101 -96l102 96l59 -76l-161 -145z" />
    <glyph glyph-name="Sacute" unicode="&#x15a;" horiz-adv-x="569" 
d="M157 229q0 -69 38 -106t98 -37q24 0 45 7.5t36.5 21t24.5 32.5t9 43q0 27 -10.5 45t-27 30.5t-36 21t-37.5 14.5q-48 17 -90 34.5t-73.5 42t-49.5 59.5t-18 88q0 43 17.5 78.5t47 61t69 39t83.5 13.5q47 0 88 -16t71 -45t47 -69t17 -89h-115q0 52 -28 84t-77 32
q-43 0 -74 -22t-31 -67q0 -21 8.5 -37.5t23 -28.5t32.5 -21t38 -16q41 -15 83.5 -32t77.5 -42t57 -60t22 -85q0 -54 -19 -95t-52 -69t-76.5 -42t-92.5 -14q-48 0 -91.5 16.5t-76.5 48t-53 77t-20 104.5h115zM186 749l-52 85l249 137l52 -85z" />
    <glyph glyph-name="sacute" unicode="&#x15b;" horiz-adv-x="454" 
d="M285 263q24 -9 47 -19t41 -25t28.5 -36t10.5 -53q0 -36 -14.5 -63t-40 -44.5t-59.5 -26t-72 -8.5t-72 11t-60.5 32.5t-42 53t-15.5 72.5h106q0 -46 25.5 -64.5t64.5 -18.5q32 0 54 12t22 42q0 16 -9 26t-27 18.5t-45 17.5t-64 23q-24 9 -44.5 19.5t-35.5 24.5t-23 35
t-8 51q0 33 14 58t38 42.5t55.5 26t67.5 8.5q37 0 69.5 -12t56.5 -33t38 -50t14 -63h-106q0 33 -17.5 52.5t-57.5 19.5q-28 0 -47.5 -13t-19.5 -38q0 -15 8 -24.5t24 -17t40 -16t56 -20.5zM129 495l-52 85l249 137l52 -85z" />
    <glyph glyph-name="Scircumflex" unicode="&#x15c;" horiz-adv-x="569" 
d="M157 229q0 -69 38 -106t98 -37q24 0 45 7.5t36.5 21t24.5 32.5t9 43q0 27 -10.5 45t-27 30.5t-36 21t-37.5 14.5q-48 17 -90 34.5t-73.5 42t-49.5 59.5t-18 88q0 43 17.5 78.5t47 61t69 39t83.5 13.5q47 0 88 -16t71 -45t47 -69t17 -89h-115q0 52 -28 84t-77 32
q-43 0 -74 -22t-31 -67q0 -21 8.5 -37.5t23 -28.5t32.5 -21t38 -16q41 -15 83.5 -32t77.5 -42t57 -60t22 -85q0 -54 -19 -95t-52 -69t-76.5 -42t-92.5 -14q-48 0 -91.5 16.5t-76.5 48t-53 77t-20 104.5h115zM284 973l180 -145l-68 -76l-112 90l-111 -89l-69 75z" />
    <glyph glyph-name="scircumflex" unicode="&#x15d;" horiz-adv-x="454" 
d="M285 263q24 -9 47 -19t41 -25t28.5 -36t10.5 -53q0 -36 -14.5 -63t-40 -44.5t-59.5 -26t-72 -8.5t-72 11t-60.5 32.5t-42 53t-15.5 72.5h106q0 -46 25.5 -64.5t64.5 -18.5q32 0 54 12t22 42q0 16 -9 26t-27 18.5t-45 17.5t-64 23q-24 9 -44.5 19.5t-35.5 24.5t-23 35
t-8 51q0 33 14 58t38 42.5t55.5 26t67.5 8.5q37 0 69.5 -12t56.5 -33t38 -50t14 -63h-106q0 33 -17.5 52.5t-57.5 19.5q-28 0 -47.5 -13t-19.5 -38q0 -15 8 -24.5t24 -17t40 -16t56 -20.5zM227 737l180 -145l-68 -76l-112 90l-111 -89l-69 75z" />
    <glyph glyph-name="Scedilla" unicode="&#x15e;" horiz-adv-x="569" 
d="M249 -15q-42 6 -80 24.5t-66 49.5t-44.5 73.5t-16.5 96.5h115q0 -69 38 -106t98 -37q24 0 45 7.5t36.5 21t24.5 32.5t9 43q0 27 -10.5 45t-27 30.5t-36 21t-37.5 14.5q-48 17 -90 34.5t-73.5 42t-49.5 59.5t-18 88q0 43 17.5 78.5t47 61t69 39t83.5 13.5q47 0 88 -16
t71 -45t47 -69t17 -89h-115q0 52 -28 84t-77 32q-43 0 -74 -22t-31 -67q0 -21 8.5 -37.5t23 -28.5t32.5 -21t38 -16q41 -15 83.5 -32t77.5 -42t57 -60t22 -85q0 -49 -16 -87.5t-43.5 -66t-64.5 -43.5t-80 -21v-49q13 13 37 13q13 0 27 -5.5t25.5 -16.5t19 -27t7.5 -37
q0 -17 -6 -34.5t-19 -31.5t-32 -22.5t-45 -8.5q-6 0 -21 2t-31 10.5t-30.5 26t-18.5 47.5h64q9 -30 37 -30q17 0 27.5 11t10.5 30q0 17 -11 27t-26 10q-21 0 -31 -18h-54v103z" />
    <glyph glyph-name="scedilla" unicode="&#x15f;" horiz-adv-x="454" 
d="M184 -8q-31 5 -58 18t-47 34t-31.5 49t-11.5 64h106q0 -46 25.5 -64.5t64.5 -18.5q32 0 54 12t22 42q0 16 -9 26t-27 18.5t-45 17.5t-64 23q-24 9 -44.5 19.5t-35.5 24.5t-23 35t-8 51q0 33 14 58t38 42.5t55.5 26t67.5 8.5q37 0 69.5 -12t56.5 -33t38 -50t14 -63h-106
q0 33 -17.5 52.5t-57.5 19.5q-28 0 -47.5 -13t-19.5 -38q0 -15 8 -24.5t24 -17t40 -16t56 -20.5q24 -9 47 -19t41 -25t28.5 -36t10.5 -53q0 -33 -12 -58t-33.5 -42.5t-50.5 -27t-62 -12.5v-54q13 13 37 13q13 0 27 -5.5t25.5 -16.5t19 -27t7.5 -37q0 -17 -6 -34.5t-19 -31.5
t-32 -22.5t-45 -8.5q-6 0 -21 2t-31 10.5t-30.5 26t-18.5 47.5h64q9 -30 37 -30q17 0 27.5 11t10.5 30q0 17 -11 27t-26 10q-21 0 -31 -18h-54v110z" />
    <glyph glyph-name="Scaron" unicode="&#x160;" horiz-adv-x="569" 
d="M157 229q0 -69 38 -106t98 -37q24 0 45 7.5t36.5 21t24.5 32.5t9 43q0 27 -10.5 45t-27 30.5t-36 21t-37.5 14.5q-48 17 -90 34.5t-73.5 42t-49.5 59.5t-18 88q0 43 18 78.5t48 61t70 39t84 13.5q47 0 87.5 -16t70 -45t46 -69t16.5 -89h-115q0 52 -28 84t-77 32
q-43 0 -74 -22t-31 -67q0 -21 8.5 -37.5t23 -28.5t32.5 -21t38 -16q41 -15 83.5 -32t77.5 -42t57 -60t22 -85q0 -54 -19 -95t-52 -69t-76.5 -42t-92.5 -14q-48 0 -91.5 16.5t-76.5 48t-53 77t-20 104.5h115zM127 909l58 76l101 -96l102 96l59 -76l-161 -145z" />
    <glyph glyph-name="scaron" unicode="&#x161;" horiz-adv-x="454" 
d="M285 263q24 -9 47 -19t41 -25t28.5 -36t10.5 -53q0 -36 -14.5 -63t-40 -44.5t-59.5 -26t-72 -8.5t-72 11t-60.5 32.5t-42 53t-15.5 72.5h106q0 -46 25.5 -64.5t64.5 -18.5q32 0 54 12t22 42q0 16 -9 26t-27 18.5t-45 17.5t-64 23q-24 9 -44.5 19.5t-35.5 24.5t-23 35
t-8 51q0 33 14 58t38 42.5t55.5 26t67.5 8.5q37 0 69.5 -12t56.5 -33t38 -50t14 -63h-106q0 33 -17.5 52.5t-57.5 19.5q-28 0 -47.5 -13t-19.5 -38q0 -15 8 -24.5t24 -17t40 -16t56 -20.5zM68 655l58 76l101 -96l102 96l59 -76l-161 -145z" />
    <glyph glyph-name="Tcommaaccent" unicode="&#x162;" horiz-adv-x="482" 
d="M183 597h-173v103h462v-103h-174v-597h-115v597zM176 -82q0 27 19 46t45 19q32 0 52.5 -23t20.5 -60q0 -74 -35.5 -103.5t-98.5 -30.5v41q41 0 58.5 16t19.5 36q-5 -5 -17 -5q-29 0 -46.5 19t-17.5 45z" />
    <glyph glyph-name="tcommaaccent" unicode="&#x163;" horiz-adv-x="351" 
d="M20 466h79v141h109v-141h107v-91h-107v-192q0 -30 4.5 -48t13.5 -27.5t21.5 -12.5t28.5 -3q13 0 30 1t25 3v-96q-13 -2 -35 -4t-46 -2q-20 0 -46 3.5t-49.5 19.5t-39.5 49t-16 92v217h-79v91zM107 -82q0 27 19 46t45 19q32 0 52.5 -23t20.5 -60q0 -74 -35.5 -103.5
t-98.5 -30.5v41q21 0 35 4t24 12q17 14 19 36q-5 -5 -17 -5q-29 0 -46.5 19t-17.5 45z" />
    <glyph glyph-name="Tcaron" unicode="&#x164;" horiz-adv-x="482" 
d="M183 597h-173v103h462v-103h-174v-597h-115v597zM81 898l58 76l101 -96l102 96l59 -76l-161 -145z" />
    <glyph glyph-name="tcaron" unicode="&#x165;" horiz-adv-x="564" 
d="M20 466h79v141h109v-141h107v-91h-107v-192q0 -30 4.5 -48t13.5 -27.5t21.5 -12.5t28.5 -3q13 0 30 1t25 3v-96q-13 -2 -35 -4t-46 -2q-20 0 -46 3.5t-49.5 19.5t-39.5 49t-16 92v217h-79v91zM336 639q0 32 22.5 55t54.5 23q39 0 62.5 -27t23.5 -72q0 -88 -41.5 -123.5
t-117.5 -36.5v49q25 0 41.5 5.5t27.5 14.5t16.5 20t7.5 22q-2 -2 -8 -3.5t-12 -1.5q-35 0 -56 21.5t-21 53.5z" />
    <glyph glyph-name="Tbar" unicode="&#x166;" horiz-adv-x="482" 
d="M420 403h-122v-403h-115v403h-121v97h121v97h-173v103h462v-103h-174v-97h122v-97z" />
    <glyph glyph-name="tbar" unicode="&#x167;" horiz-adv-x="351" 
d="M331 0q-13 -2 -35 -4t-46 -2q-20 0 -46 3.5t-49.5 19.5t-39.5 49t-16 92v34h-79v92h79v91h-79v91h79v141h109v-141h107v-91h-107v-91h107v-92h-107v-9q0 -30 4.5 -48t13.5 -27.5t21.5 -12.5t28.5 -3q13 0 30 1t25 3v-96z" />
    <glyph glyph-name="Utilde" unicode="&#x168;" horiz-adv-x="640" 
d="M68 700h115v-466q0 -30 9.5 -57t27.5 -47t43 -32t56 -12t56.5 12t43.5 32t28 47t10 57v466h115v-466q0 -51 -18 -96.5t-51 -80t-79.5 -54.5t-104.5 -20q-57 0 -103 20t-79 54.5t-51 80t-18 96.5v466zM136 870q22 14 38.5 22t28.5 11.5t20.5 4t15.5 0.5q10 0 30 -4
t41.5 -9.5t40.5 -9.5t29 -4q8 0 15 1t15.5 4t20 8t29.5 14l43 -69q-39 -32 -67.5 -38.5t-41.5 -6.5q-11 0 -30.5 4t-41 9t-40.5 9t-29 4q-20 0 -36 -6.5t-34 -14.5z" />
    <glyph glyph-name="utilde" unicode="&#x169;" horiz-adv-x="569" 
d="M496 0h-109v65q-22 -38 -61 -57.5t-91 -19.5q-51 0 -85.5 17t-54.5 46q-17 26 -23.5 58t-6.5 80v277h109v-241q0 -30 5 -56t16.5 -44.5t31 -29.5t48.5 -11q57 0 84.5 40.5t27.5 100.5v241h109v-466zM101 632q22 14 38.5 22t28.5 11.5t20.5 4t15.5 0.5q10 0 30 -4
t41.5 -9.5t40.5 -9.5t29 -4q8 0 15 1t15.5 4t20 8t29.5 14l43 -69q-39 -32 -67.5 -38.5t-41.5 -6.5q-11 0 -30.5 4t-41 9t-40.5 9t-29 4q-20 0 -36 -6.5t-34 -14.5z" />
    <glyph glyph-name="Umacron" unicode="&#x16a;" horiz-adv-x="640" 
d="M68 700h115v-466q0 -30 9.5 -57t27.5 -47t43 -32t56 -12t56.5 12t43.5 32t28 47t10 57v466h115v-466q0 -51 -18 -96.5t-51 -80t-79.5 -54.5t-104.5 -20q-57 0 -103 20t-79 54.5t-51 80t-18 96.5v466zM499 803h-358v97h358v-97z" />
    <glyph glyph-name="umacron" unicode="&#x16b;" horiz-adv-x="569" 
d="M496 0h-109v65q-22 -38 -61 -57.5t-91 -19.5q-51 0 -85.5 17t-54.5 46q-17 26 -23.5 58t-6.5 80v277h109v-241q0 -30 5 -56t16.5 -44.5t31 -29.5t48.5 -11q57 0 84.5 40.5t27.5 100.5v241h109v-466zM463 565h-358v97h358v-97z" />
    <glyph glyph-name="Ubreve" unicode="&#x16c;" horiz-adv-x="640" 
d="M68 700h115v-466q0 -30 9.5 -57t27.5 -47t43 -32t56 -12t56.5 12t43.5 32t28 47t10 57v466h115v-466q0 -51 -18 -96.5t-51 -80t-79.5 -54.5t-104.5 -20q-57 0 -103 20t-79 54.5t-51 80t-18 96.5v466zM220 902q25 -59 100 -59q38 0 63 16.5t36 42.5h103q-4 -33 -22 -61.5
t-45.5 -49.5t-62.5 -33t-72 -12q-38 0 -72 12t-61 33t-45 49.5t-24 61.5h102z" />
    <glyph glyph-name="ubreve" unicode="&#x16d;" horiz-adv-x="569" 
d="M496 0h-109v65q-22 -38 -61 -57.5t-91 -19.5q-51 0 -85.5 17t-54.5 46q-17 26 -23.5 58t-6.5 80v277h109v-241q0 -30 5 -56t16.5 -44.5t31 -29.5t48.5 -11q57 0 84.5 40.5t27.5 100.5v241h109v-466zM184 700q25 -59 100 -59q38 0 63 16.5t36 42.5h103q-4 -33 -22 -61.5
t-45.5 -49.5t-62.5 -33t-72 -12q-38 0 -72 12t-61 33t-45 49.5t-24 61.5h102z" />
    <glyph glyph-name="Uring" unicode="&#x16e;" horiz-adv-x="640" 
d="M68 700h115v-466q0 -30 9.5 -57t27.5 -47t43 -32t56 -12t56.5 12t43.5 32t28 47t10 57v466h115v-466q0 -51 -18 -96.5t-51 -80t-79.5 -54.5t-104.5 -20q-57 0 -103 20t-79 54.5t-51 80t-18 96.5v466zM320 976q25 0 47.5 -10t39.5 -26.5t26.5 -39t9.5 -47.5t-9.5 -47.5
t-26.5 -39t-39.5 -26.5t-47.5 -10q-26 0 -48 10t-39 26.5t-26.5 39t-9.5 47.5t9.5 47.5t26.5 39.5t39 26.5t48 9.5zM320 898q-19 0 -31.5 -13.5t-12.5 -31.5q0 -17 13 -30t31 -13t31 13t13 31t-12.5 31t-31.5 13z" />
    <glyph glyph-name="uring" unicode="&#x16f;" horiz-adv-x="569" 
d="M496 0h-109v65q-22 -38 -61 -57.5t-91 -19.5q-51 0 -85.5 17t-54.5 46q-17 26 -23.5 58t-6.5 80v277h109v-241q0 -30 5 -56t16.5 -44.5t31 -29.5t48.5 -11q57 0 84.5 40.5t27.5 100.5v241h109v-466zM279 755q25 0 47.5 -10t39.5 -26.5t26.5 -39t9.5 -47.5t-9.5 -47.5
t-26.5 -39t-39.5 -26.5t-47.5 -10q-26 0 -48 10t-39 26.5t-26.5 39t-9.5 47.5t9.5 47.5t26.5 39.5t39 26.5t48 9.5zM279 677q-19 0 -31.5 -13.5t-12.5 -31.5q0 -17 13 -30t31 -13t31 13t13 31t-12.5 31t-31.5 13z" />
    <glyph glyph-name="Uhungarumlaut" unicode="&#x170;" horiz-adv-x="640" 
d="M68 700h115v-466q0 -30 9.5 -57t27.5 -47t43 -32t56 -12t56.5 12t43.5 32t28 47t10 57v466h115v-466q0 -51 -18 -96.5t-51 -80t-79.5 -54.5t-104.5 -20q-57 0 -103 20t-79 54.5t-51 80t-18 96.5v466zM474 968l96 -48l-169 -146l-52 28zM279 968l96 -48l-169 -146l-52 28z
" />
    <glyph glyph-name="uhungarumlaut" unicode="&#x171;" horiz-adv-x="569" 
d="M496 466v-466h-109v65q-22 -38 -61 -57.5t-91 -19.5q-51 0 -85.5 17t-54.5 46q-17 26 -23.5 58t-6.5 80v277h109v-241q0 -30 5 -56t16.5 -44.5t31 -29.5t48.5 -11q57 0 84.5 40.5t27.5 100.5v241h109zM159 517l-52 28l125 166l96 -48zM354 517l-52 28l125 166l96 -48z
" />
    <glyph glyph-name="Uogonek" unicode="&#x172;" horiz-adv-x="640" 
d="M415 -197q-16 -5 -40.5 -10t-50.5 -5q-57 0 -86 28.5t-29 68.5q0 29 15 53t47 49q-47 8 -84.5 30.5t-63.5 55.5t-40.5 74.5t-14.5 86.5v466h115v-466q0 -30 9.5 -57t27.5 -47t43 -32t56 -12t56.5 12t43.5 32t28 47t10 57v466h115v-466q0 -48 -15.5 -91t-45 -76.5t-71 -55
t-92.5 -26.5q-14 -11 -24.5 -26t-10.5 -37q0 -21 12 -37t34 -16q12 0 27 3t29 9v-78z" />
    <glyph glyph-name="uogonek" unicode="&#x173;" horiz-adv-x="569" 
d="M514 -197q-16 -5 -40.5 -10t-50.5 -5q-57 0 -86 28.5t-29 68.5q0 32 19.5 59t59.5 56v65q-22 -38 -61 -57.5t-91 -19.5q-51 0 -85.5 17t-54.5 46q-17 26 -23.5 58t-6.5 80v277h109v-241q0 -30 5 -56t16.5 -44.5t31 -29.5t48.5 -11q57 0 84.5 40.5t27.5 100.5v241h109
v-466h-28q-10 -7 -20 -14.5t-18 -16.5t-13 -20.5t-5 -26.5q0 -21 12 -37t34 -16q12 0 27 3t29 9v-78z" />
    <glyph glyph-name="Wcircumflex" unicode="&#x174;" horiz-adv-x="983" 
d="M492 499l-162 -499h-83l-242 700h121l161 -499l162 499h85l162 -499l161 499h121l-242 -700h-83zM491 973l180 -145l-68 -76l-112 90l-111 -89l-69 75z" />
    <glyph glyph-name="wcircumflex" unicode="&#x175;" horiz-adv-x="753" 
d="M377 348l-123 -348h-73l-181 466h117l101 -295l105 295h107l105 -295l101 295h117l-181 -466h-73zM376 737l180 -145l-68 -76l-112 90l-111 -89l-69 75z" />
    <glyph glyph-name="Ycircumflex" unicode="&#x176;" horiz-adv-x="602" 
d="M260 0h-126l139 280l-262 420h133l187 -301l150 301h126zM301 973l180 -145l-68 -76l-112 90l-111 -89l-69 75z" />
    <glyph glyph-name="ycircumflex" unicode="&#x177;" horiz-adv-x="578" 
d="M268 -245q-45 0 -82 15.5t-64 42t-42 61.5t-15 73h106q1 -39 27.5 -67t83.5 -28q59 0 88 28.5t29 97.5v87q-22 -38 -61 -57.5t-91 -19.5q-51 0 -85.5 17t-54.5 46q-17 26 -23.5 58t-6.5 80v277h109v-241q0 -30 5 -56t16.5 -44.5t31 -29.5t48.5 -11q57 0 84.5 40.5
t27.5 100.5v241h109v-488q0 -119 -62.5 -171t-177.5 -52zM289 737l180 -145l-68 -76l-112 90l-111 -89l-69 75z" />
    <glyph glyph-name="Ydieresis" unicode="&#x178;" horiz-adv-x="602" 
d="M260 0h-126l139 280l-262 420h133l187 -301l150 301h126zM369 855q0 32 22 54.5t54 22.5t54.5 -22.5t22.5 -54.5t-22.5 -54t-54.5 -22t-54 22t-22 54zM140 855q0 32 22 54.5t54 22.5t54.5 -22.5t22.5 -54.5t-22.5 -54t-54.5 -22t-54 22t-22 54z" />
    <glyph glyph-name="Zacute" unicode="&#x179;" horiz-adv-x="577" 
d="M34 700h533l-363 -597h361v-103h-552l363 597h-342v103zM190 749l-52 85l249 137l52 -85z" />
    <glyph glyph-name="zacute" unicode="&#x17a;" horiz-adv-x="438" 
d="M424 466l-220 -369h220v-97h-402l221 369h-215v97h396zM121 494l-52 85l249 137l52 -85z" />
    <glyph glyph-name="Zdotaccent" unicode="&#x17b;" horiz-adv-x="577" 
d="M34 700h533l-363 -597h361v-103h-552l363 597h-342v103zM208 865q0 34 23.5 57.5t56.5 23.5q34 0 57.5 -23.5t23.5 -57.5q0 -33 -23.5 -56.5t-57.5 -23.5q-33 0 -56.5 23.5t-23.5 56.5z" />
    <glyph glyph-name="zdotaccent" unicode="&#x17c;" horiz-adv-x="438" 
d="M424 466l-220 -369h220v-97h-402l221 369h-215v97h396zM139 613q0 34 23.5 57.5t56.5 23.5q34 0 57.5 -23.5t23.5 -57.5q0 -33 -23.5 -56.5t-57.5 -23.5q-33 0 -56.5 23.5t-23.5 56.5z" />
    <glyph glyph-name="Zcaron" unicode="&#x17d;" horiz-adv-x="577" 
d="M128 876l58 76l101 -96l102 96l59 -76l-161 -145zM34 700h533l-363 -597h361v-103h-552l363 597h-342v103z" />
    <glyph glyph-name="zcaron" unicode="&#x17e;" horiz-adv-x="438" 
d="M69 641l58 76l101 -96l102 96l59 -76l-161 -145zM424 466l-220 -369h220v-97h-402l221 369h-215v97h396z" />
    <glyph glyph-name="longs" unicode="&#x17f;" horiz-adv-x="359" 
d="M346 602q-11 3 -23 5t-25 2t-26 -1t-23.5 -8t-17.5 -22t-7 -42v-536h-109v375h-95v91h95v58q0 67 18.5 103.5t45 54t55.5 21t49 3.5q21 0 37.5 -3.5t25.5 -8.5v-92z" />
    <glyph glyph-name="florin" unicode="&#x192;" horiz-adv-x="441" 
d="M-44 -78q11 -3 22.5 -5t24.5 -2t25 1.5t23.5 8.5t21 21.5t17.5 41.5l68 387h-95l16 91h95l10 58q12 67 37 103.5t54.5 54t59 21t49.5 3.5q21 0 37 -3.5t24 -8.5l-16 -92q-11 3 -22.5 5t-24.5 2t-26 -1t-25 -8t-21.5 -22t-14.5 -42l-12 -70h122l-16 -91h-122l-66 -375
q-12 -67 -37 -103.5t-54.5 -54t-59 -21t-49.5 -3.5q-21 0 -37 3.5t-24 8.5z" />
    <glyph glyph-name="Aringacute" unicode="&#x1fa;" horiz-adv-x="571" 
d="M352 754q0 -17 -7.5 -31t-18.5 -23l242 -700h-121l-30 89h-263l-30 -89h-121l241 698q-29 19 -29 56q0 28 20 48t49 20q28 0 48 -20t20 -48zM189 192h193l-96 317zM284 779q-11 0 -18 -7.5t-7 -17.5t7 -17t18 -7q10 0 17 7t7 17t-6.5 17.5t-17.5 7.5zM162 783l-33 52
l249 137l33 -52z" />
    <glyph glyph-name="aringacute" unicode="&#x1fb;" horiz-adv-x="603" 
d="M421 466h109v-466h-109v63q-22 -35 -62.5 -55t-81.5 -20q-53 0 -97 19.5t-75.5 53.5t-49 78t-17.5 94q0 49 17.5 93.5t49 78.5t75.5 53.5t97 19.5q41 0 81.5 -20t62.5 -55v63zM147 233q0 -30 9.5 -57t27.5 -47t43 -32t56 -12t56.5 12t43.5 32t28 47t10 57t-10 57t-28 47
t-43.5 32t-56.5 12t-56 -12t-43 -32t-27.5 -47t-9.5 -57zM321 607q0 18 -12.5 31t-31.5 13t-31.5 -13.5t-12.5 -31.5q0 -17 13 -30t31 -13t31 13t13 31zM277 729q25 0 47.5 -10t39.5 -26.5t26.5 -39t9.5 -47.5t-9.5 -47.5t-26.5 -39t-39.5 -26.5t-47.5 -10q-26 0 -48 10
t-39 26.5t-26.5 39t-9.5 47.5t9.5 47.5t26.5 39.5t39 26.5t48 9.5zM117 785l249 137l52 -85l-249 -137z" />
    <glyph glyph-name="AEacute" unicode="&#x1fc;" horiz-adv-x="883" 
d="M521 597v-198h289v-103h-289v-193h289v-103h-404v90h-237l-42 -90h-125l340 700h468v-103h-289zM406 193v399l-188 -399h188zM395 749l-52 85l249 137l52 -85z" />
    <glyph glyph-name="aeacute" unicode="&#x1fd;" horiz-adv-x="912" 
d="M530 466v-18q25 14 55.5 22t65.5 8q45 0 84.5 -16t69 -44.5t46 -66.5t16.5 -83q0 -12 -0.5 -28.5t-4.5 -39.5h-330q0 -25 7 -47t21.5 -38.5t37.5 -26t56 -9.5q23 0 39.5 5t28 13t19 19.5t12.5 23.5h110q-6 -30 -22.5 -57.5t-43 -48.5t-62.5 -33.5t-81 -12.5
q-38 0 -68.5 8.5t-55.5 22.5v-19h-109v63q-22 -35 -62.5 -55t-81.5 -20q-53 0 -97 19.5t-75.5 53.5t-49 78t-17.5 94q0 49 17.5 93.5t49 78.5t75.5 53.5t97 19.5q41 0 81.5 -20t62.5 -55v63h109zM648 387q-48 0 -81.5 -27t-33.5 -79h228q0 48 -31.5 77t-81.5 29zM283 85
q31 0 56.5 12t43.5 32t28 47t10 57q0 31 -10 58t-28 47t-43.5 31.5t-56.5 11.5t-56 -12t-43 -32t-27.5 -47t-9.5 -57t9.5 -57t27.5 -47t43 -32t56 -12zM357 478l-52 85l249 137l52 -85z" />
    <glyph glyph-name="Oslashacute" unicode="&#x1fe;" horiz-adv-x="800" 
d="M400 -17q-52 0 -95 12l-35 -83l-97 41l34 82q-81 51 -125 135t-44 180q0 71 25 137.5t71.5 117.5t114 81.5t151.5 30.5q50 0 94 -12l41 95l98 -42l-41 -93q81 -51 125.5 -135t44.5 -180q0 -71 -25 -137.5t-71.5 -117.5t-114 -81.5t-151.5 -30.5zM159 350
q0 -62 23.5 -117.5t68.5 -93.5l201 469q-24 6 -52 6q-56 0 -100.5 -22t-76 -59t-48 -84.5t-16.5 -98.5zM641 350q0 62 -24 117.5t-69 93.5l-202 -469q25 -6 54 -6q56 0 100.5 22t76 59t48 84.5t16.5 98.5zM301 749l-52 85l249 137l52 -85z" />
    <glyph glyph-name="oslashacute" unicode="&#x1ff;" horiz-adv-x="568" 
d="M425 437q50 -34 77.5 -87.5t27.5 -116.5q0 -50 -17.5 -94t-50 -78t-78 -53.5t-101.5 -19.5q-24 0 -49 5l-36 -82l-92 40l34 79q-48 34 -75 87t-27 116q0 49 17.5 93.5t49.5 78.5t77 53.5t101 19.5q13 0 25 -1t23 -3l36 83l92 -40zM283 85q31 0 56.5 12t43.5 32t28 47
t10 57t-10 57.5t-29 47.5l-108 -253h9zM147 233q0 -61 36 -103l108 251h-8q-31 0 -56 -12t-43 -32t-27.5 -47t-9.5 -57zM185 495l-52 85l249 137l52 -85z" />
    <glyph glyph-name="Scommaaccent" unicode="&#x218;" horiz-adv-x="569" 
d="M157 229q0 -69 38 -106t98 -37q24 0 45 7.5t36.5 21t24.5 32.5t9 43q0 27 -10.5 45t-27 30.5t-36 21t-37.5 14.5q-48 17 -90 34.5t-73.5 42t-49.5 59.5t-18 88q0 43 17.5 78.5t47 61t69 39t83.5 13.5q47 0 88 -16t71 -45t47 -69t17 -89h-115q0 52 -28 84t-77 32
q-43 0 -74 -22t-31 -67q0 -21 8.5 -37.5t23 -28.5t32.5 -21t38 -16q41 -15 83.5 -32t77.5 -42t57 -60t22 -85q0 -54 -19 -95t-52 -69t-76.5 -42t-92.5 -14q-48 0 -91.5 16.5t-76.5 48t-53 77t-20 104.5h115zM216 -93q0 27 19 46t45 19q32 0 52.5 -23t20.5 -60
q0 -74 -35.5 -103.5t-98.5 -30.5v41q41 0 58.5 16t19.5 36q-2 -2 -7 -3.5t-10 -1.5q-29 0 -46.5 19t-17.5 45z" />
    <glyph glyph-name="scommaaccent" unicode="&#x219;" horiz-adv-x="454" 
d="M162 -82q0 27 19 46t45 19q32 0 52.5 -23t20.5 -60q0 -74 -35.5 -103.5t-98.5 -30.5v41q21 0 35 4t24 12q17 14 19 36q-5 -5 -17 -5q-29 0 -46.5 19t-17.5 45zM142 157q0 -46 25.5 -64.5t64.5 -18.5q32 0 54 12t22 42q0 16 -9 26t-27 18.5t-45 17.5t-64 23
q-24 9 -44.5 19.5t-35.5 24.5t-23 35t-8 51q0 33 14 58t38 42.5t55.5 26t67.5 8.5q37 0 69.5 -12t56.5 -33t38 -50t14 -63h-106q0 33 -17.5 52.5t-57.5 19.5q-28 0 -47.5 -13t-19.5 -38q0 -15 8 -24.5t24 -17t40 -16t56 -20.5q24 -9 47 -19t41 -25t28.5 -36t10.5 -53
q0 -36 -14.5 -63t-40 -44.5t-59.5 -26t-72 -8.5t-72 11t-60.5 32.5t-42 53t-15.5 72.5h106z" />
    <glyph glyph-name="uni021A" unicode="&#x21a;" horiz-adv-x="482" 
d="M183 597h-173v103h462v-103h-174v-597h-115v597zM176 -82q0 27 19 46t45 19q32 0 52.5 -23t20.5 -60q0 -74 -35.5 -103.5t-98.5 -30.5v41q41 0 58.5 16t19.5 36q-5 -5 -17 -5q-29 0 -46.5 19t-17.5 45z" />
    <glyph glyph-name="uni021B" unicode="&#x21b;" horiz-adv-x="351" 
d="M20 466h79v141h109v-141h107v-91h-107v-192q0 -30 4.5 -48t13.5 -27.5t21.5 -12.5t28.5 -3q13 0 30 1t25 3v-96q-13 -2 -35 -4t-46 -2q-20 0 -46 3.5t-49.5 19.5t-39.5 49t-16 92v217h-79v91zM107 -82q0 27 19 46t45 19q32 0 52.5 -23t20.5 -60q0 -74 -35.5 -103.5
t-98.5 -30.5v41q21 0 35 4t24 12q17 14 19 36q-5 -5 -17 -5q-29 0 -46.5 19t-17.5 45z" />
    <glyph glyph-name="hsuperior" unicode="&#x2b0;" horiz-adv-x="388" 
d="M66 700h81v-158q11 20 33 32t52 12q49 0 73 -30q12 -16 16.5 -36t4.5 -49v-156h-81v136q0 29 -10 46.5t-37 17.5q-26 0 -38.5 -18t-12.5 -49v-133h-81v385z" />
    <glyph glyph-name="jsuperior" unicode="&#x2b2;" horiz-adv-x="236" 
d="M161 273q0 -26 -5.5 -42.5t-15.5 -26t-22.5 -13t-27.5 -3.5q-16 0 -32 2t-24 5v62q8 -2 12.5 -2.5t9.5 -0.5q22 0 22 26v300h83v-307zM66 668q0 22 15 37.5t38 15.5t38.5 -15.5t15.5 -37.5t-15.5 -37.5t-38.5 -15.5t-38 15.5t-15 37.5z" />
    <glyph glyph-name="wsuperior" unicode="&#x2b7;" horiz-adv-x="500" 
d="M250 485l-55 -170h-67l-99 265h86l50 -158l46 158h77l47 -158l50 158h86l-99 -265h-67z" />
    <glyph glyph-name="ysuperior" unicode="&#x2b8;" horiz-adv-x="398" 
d="M190 188q-63 0 -95.5 29t-32.5 77h82q1 -19 13 -31.5t38 -12.5q28 0 41 14t13 48v45q-11 -21 -33.5 -33t-53.5 -12q-26 0 -44.5 8.5t-29.5 22.5q-12 16 -16 35.5t-4 48.5v153h83v-136q0 -29 10 -47t37 -18q26 0 38.5 18.5t12.5 49.5v133h84v-264q0 -70 -33.5 -99
t-109.5 -29z" />
    <glyph glyph-name="apostrophemod" unicode="&#x2bc;" horiz-adv-x="283" 
d="M60 662q0 32 22.5 55t54.5 23q39 0 62.5 -27t23.5 -72q0 -88 -41.5 -123.5t-117.5 -36.5v49q25 0 41.5 5.5t27.5 14.5t16.5 20t7.5 22q-2 -2 -8 -3.5t-12 -1.5q-35 0 -56 21.5t-21 53.5z" />
    <glyph glyph-name="circumflex" unicode="&#x2c6;" horiz-adv-x="492" 
d="M243 842l180 -145l-68 -76l-112 90l-111 -89l-69 75z" />
    <glyph glyph-name="caron" unicode="&#x2c7;" horiz-adv-x="452" 
d="M66 749l58 76l101 -96l102 96l59 -76l-161 -145z" />
    <glyph glyph-name="breve" unicode="&#x2d8;" horiz-adv-x="555" 
d="M177 856q25 -59 100 -59q38 0 63 16.5t36 42.5h103q-4 -33 -22 -61.5t-45.5 -49.5t-62.5 -33t-72 -12q-38 0 -72 12t-61 33t-45 49.5t-24 61.5h102z" />
    <glyph glyph-name="dotaccent" unicode="&#x2d9;" horiz-adv-x="589" 
d="M214 631q0 34 23.5 57.5t56.5 23.5q34 0 57.5 -23.5t23.5 -57.5q0 -33 -23.5 -56.5t-57.5 -23.5q-33 0 -56.5 23.5t-23.5 56.5z" />
    <glyph glyph-name="ring" unicode="&#x2da;" horiz-adv-x="567" 
d="M283 835q25 0 47.5 -10t39.5 -26.5t26.5 -39t9.5 -47.5t-9.5 -47.5t-26.5 -39t-39.5 -26.5t-47.5 -10q-26 0 -48 10t-39 26.5t-26.5 39t-9.5 47.5t9.5 47.5t26.5 39.5t39 26.5t48 9.5zM283 757q-19 0 -31.5 -13.5t-12.5 -31.5q0 -17 13 -30t31 -13t31 13t13 31t-12.5 31
t-31.5 13z" />
    <glyph glyph-name="ogonek" unicode="&#x2db;" horiz-adv-x="568" 
d="M387 -197q-16 -5 -40.5 -10t-50.5 -5q-57 0 -86 28.5t-29 68.5q0 32 19.5 59t59.5 56h81q-10 -7 -20 -14.5t-18 -16.5t-13 -20.5t-5 -26.5q0 -21 12 -37t34 -16q12 0 27 3t29 9v-78z" />
    <glyph glyph-name="tilde" unicode="&#x2dc;" horiz-adv-x="527" 
d="M80 662q22 14 38.5 22t28.5 11.5t20.5 4t15.5 0.5q10 0 30 -4t41.5 -9.5t40.5 -9.5t29 -4q8 0 15 1t15.5 4t20 8t29.5 14l43 -69q-39 -32 -67.5 -38.5t-41.5 -6.5q-11 0 -30.5 4t-41 9t-40.5 9t-29 4q-20 0 -36 -6.5t-34 -14.5z" />
    <glyph glyph-name="hungarumlaut" unicode="&#x2dd;" horiz-adv-x="525" 
d="M408 734l96 -48l-169 -146l-52 28zM213 734l96 -48l-169 -146l-52 28z" />
    <glyph glyph-name="xsuperior" unicode="&#x2e3;" horiz-adv-x="342" 
d="M311 315h-96l-44 77l-44 -77h-96l91 134l-89 131h96l42 -75l42 75h97l-90 -131z" />
    <glyph glyph-name="Delta" unicode="&#x394;" horiz-adv-x="571" 
d="M162 103h247l-123 406zM568 0h-565l242 700h81z" />
    <glyph glyph-name="Omega" unicode="&#x3a9;" horiz-adv-x="716" 
d="M358 609q-50 0 -87 -17t-61.5 -45.5t-37 -65.5t-12.5 -77q0 -39 9 -75t28 -66t49 -51.5t72 -30.5v-181h-255v103h165v18q-44 17 -78 45t-57 64t-35.5 79t-12.5 90q0 62 21.5 118.5t62 100t98.5 69t131 25.5t131 -25.5t98.5 -69t62 -100t21.5 -118.5q0 -47 -12.5 -90
t-35.5 -79t-57.5 -64.5t-77.5 -45.5v-17h165v-103h-255v181q42 9 72 30.5t49 51.5t28 66t9 75q0 40 -12.5 77t-37 65.5t-62 45.5t-86.5 17z" />
    <glyph glyph-name="mu" unicode="&#x3bc;" 
d="M74 466h109v-241q0 -30 5 -56t16.5 -44.5t31 -29.5t48.5 -11q57 0 84.5 40.5t27.5 100.5v241h109v-466h-109v65q-22 -38 -61 -57.5t-91 -19.5q-32 0 -61 8v-230h-109v700z" />
    <glyph glyph-name="pi" unicode="&#x3c0;" 
d="M548 369h-70v-369h-109v369h-158v-369h-109v369h-70v97h516v-97z" />
    <glyph glyph-name="Wgrave" unicode="&#x1e80;" horiz-adv-x="983" 
d="M492 499l-162 -499h-83l-242 700h121l161 -499l162 499h85l162 -499l161 499h121l-242 -700h-83zM341 886l52 85l249 -137l-52 -85z" />
    <glyph glyph-name="wgrave" unicode="&#x1e81;" horiz-adv-x="753" 
d="M377 348l-123 -348h-73l-181 466h117l101 -295l105 295h107l105 -295l101 295h117l-181 -466h-73zM226 632l52 85l249 -137l-52 -85z" />
    <glyph glyph-name="Wacute" unicode="&#x1e82;" horiz-adv-x="983" 
d="M492 499l-162 -499h-83l-242 700h121l161 -499l162 499h85l162 -499l161 499h121l-242 -700h-83zM393 749l-52 85l249 137l52 -85z" />
    <glyph glyph-name="wacute" unicode="&#x1e83;" horiz-adv-x="753" 
d="M377 348l-123 -348h-73l-181 466h117l101 -295l105 295h107l105 -295l101 295h117l-181 -466h-73zM278 495l-52 85l249 137l52 -85z" />
    <glyph glyph-name="Wdieresis" unicode="&#x1e84;" horiz-adv-x="983" 
d="M492 499l-162 -499h-83l-242 700h121l161 -499l162 499h85l162 -499l161 499h121l-242 -700h-83zM529 869q0 32 22 54.5t54 22.5t54.5 -22.5t22.5 -54.5t-22.5 -54t-54.5 -22t-54 22t-22 54zM300 869q0 32 22 54.5t54 22.5t54.5 -22.5t22.5 -54.5t-22.5 -54t-54.5 -22
t-54 22t-22 54z" />
    <glyph glyph-name="wdieresis" unicode="&#x1e85;" horiz-adv-x="753" 
d="M377 348l-123 -348h-73l-181 466h117l101 -295l105 295h107l105 -295l101 295h117l-181 -466h-73zM414 614q0 32 22 54.5t54 22.5t54.5 -22.5t22.5 -54.5t-22.5 -54t-54.5 -22t-54 22t-22 54zM185 614q0 32 22 54.5t54 22.5t54.5 -22.5t22.5 -54.5t-22.5 -54t-54.5 -22
t-54 22t-22 54z" />
    <glyph glyph-name="Ygrave" unicode="&#x1ef2;" horiz-adv-x="602" 
d="M260 0h-126l139 280l-262 420h133l187 -301l150 301h126zM150 886l52 85l249 -137l-52 -85z" />
    <glyph glyph-name="ygrave" unicode="&#x1ef3;" horiz-adv-x="578" 
d="M268 -245q-45 0 -82 15.5t-64 42t-42 61.5t-15 73h106q1 -39 27.5 -67t83.5 -28q59 0 88 28.5t29 97.5v87q-22 -38 -61 -57.5t-91 -19.5q-51 0 -85.5 17t-54.5 46q-17 26 -23.5 58t-6.5 80v277h109v-241q0 -30 5 -56t16.5 -44.5t31 -29.5t48.5 -11q57 0 84.5 40.5
t27.5 100.5v241h109v-488q0 -119 -62.5 -171t-177.5 -52zM138 632l52 85l249 -137l-52 -85z" />
    <glyph glyph-name="thinspace" unicode="&#x2009;" horiz-adv-x="206" 
 />
    <glyph glyph-name="endash" unicode="&#x2013;" horiz-adv-x="503" 
d="M50 236v97h403v-97h-403z" />
    <glyph glyph-name="emdash" unicode="&#x2014;" horiz-adv-x="1006" 
d="M50 236v97h906v-97h-906z" />
    <glyph glyph-name="quoteleft" unicode="&#x2018;" horiz-adv-x="283" 
d="M223 559q0 -32 -22.5 -55t-54.5 -23q-39 0 -62.5 27t-23.5 72q0 88 41.5 123.5t117.5 36.5v-49q-46 0 -69 -20q-11 -8 -16.5 -19.5t-7.5 -22.5q2 2 8 3.5t12 1.5q35 0 56 -21.5t21 -53.5z" />
    <glyph glyph-name="quoteright" unicode="&#x2019;" horiz-adv-x="283" 
d="M60 662q0 32 22.5 55t54.5 23q39 0 62.5 -27t23.5 -72q0 -88 -41.5 -123.5t-117.5 -36.5v49q25 0 41.5 5.5t27.5 14.5t16.5 20t7.5 22q-2 -2 -8 -3.5t-12 -1.5q-35 0 -56 21.5t-21 53.5z" />
    <glyph glyph-name="quotesinglbase" unicode="&#x201a;" horiz-adv-x="283" 
d="M60 63q0 32 22.5 55t54.5 23q39 0 62.5 -27t23.5 -72q0 -88 -41.5 -123.5t-117.5 -36.5v49q25 0 41.5 5.5t27.5 14.5q11 8 16.5 19.5t7.5 22.5q-2 -2 -8 -3.5t-12 -1.5q-35 0 -56 21.5t-21 53.5z" />
    <glyph glyph-name="quotedblleft" unicode="&#x201c;" horiz-adv-x="470" 
d="M410 559q0 -32 -22.5 -55t-54.5 -23q-39 0 -62.5 27t-23.5 72q0 88 41.5 123.5t117.5 36.5v-49q-46 0 -69 -20q-11 -8 -16.5 -19.5t-7.5 -22.5q2 2 8 3.5t12 1.5q35 0 56 -21.5t21 -53.5zM223 559q0 -32 -22.5 -55t-54.5 -23q-39 0 -62.5 27t-23.5 72q0 88 41.5 123.5
t117.5 36.5v-49q-46 0 -69 -20q-11 -8 -16.5 -19.5t-7.5 -22.5q2 2 8 3.5t12 1.5q35 0 56 -21.5t21 -53.5z" />
    <glyph glyph-name="quotedblright" unicode="&#x201d;" horiz-adv-x="470" 
d="M60 662q0 32 22.5 55t54.5 23q39 0 62.5 -27t23.5 -72q0 -88 -41.5 -123.5t-117.5 -36.5v49q25 0 41.5 5.5t27.5 14.5t16.5 20t7.5 22q-2 -2 -8 -3.5t-12 -1.5q-35 0 -56 21.5t-21 53.5zM247 662q0 32 22.5 55t54.5 23q39 0 62.5 -27t23.5 -72q0 -88 -41.5 -123.5
t-117.5 -36.5v49q25 0 41.5 5.5t27.5 14.5t16.5 20t7.5 22q-2 -2 -8 -3.5t-12 -1.5q-35 0 -56 21.5t-21 53.5z" />
    <glyph glyph-name="quotedblbase" unicode="&#x201e;" horiz-adv-x="470" 
d="M60 63q0 32 22.5 55t54.5 23q39 0 62.5 -27t23.5 -72q0 -88 -41.5 -123.5t-117.5 -36.5v49q25 0 41.5 5.5t27.5 14.5q11 8 16.5 19.5t7.5 22.5q-2 -2 -8 -3.5t-12 -1.5q-35 0 -56 21.5t-21 53.5zM247 63q0 32 22.5 55t54.5 23q39 0 62.5 -27t23.5 -72q0 -88 -41.5 -123.5
t-117.5 -36.5v49q25 0 41.5 5.5t27.5 14.5q11 8 16.5 19.5t7.5 22.5q-2 -2 -8 -3.5t-12 -1.5q-35 0 -56 21.5t-21 53.5z" />
    <glyph glyph-name="dagger" unicode="&#x2020;" horiz-adv-x="486" 
d="M189 -182v551h-116v97h116v251h109v-251h115v-97h-115v-551h-109z" />
    <glyph glyph-name="daggerdbl" unicode="&#x2021;" horiz-adv-x="486" 
d="M298 717v-251h115v-94h-115v-278h115v-94h-115v-182h-109v182h-116v94h116v278h-116v94h116v251h109z" />
    <glyph glyph-name="bullet" unicode="&#x2022;" horiz-adv-x="353" 
d="M60 312q0 24 9 45.5t25 37.5t37 25t45 9t45.5 -9t37.5 -25t25 -37.5t9 -45.5t-9 -45t-25 -37t-37.5 -25t-45.5 -9t-45 9t-37 25t-25 37t-9 45z" />
    <glyph glyph-name="ellipsis" unicode="&#x2026;" horiz-adv-x="965" 
d="M60 74q0 34 23.5 57.5t56.5 23.5q34 0 57.5 -23.5t23.5 -57.5q0 -33 -23.5 -56.5t-57.5 -23.5q-33 0 -56.5 23.5t-23.5 56.5zM402 73q0 34 23.5 57.5t56.5 23.5q34 0 57.5 -23.5t23.5 -57.5q0 -33 -23.5 -56.5t-57.5 -23.5q-33 0 -56.5 23.5t-23.5 56.5zM744 72
q0 34 23.5 57.5t56.5 23.5q34 0 57.5 -23.5t23.5 -57.5q0 -33 -23.5 -56.5t-57.5 -23.5q-33 0 -56.5 23.5t-23.5 56.5z" />
    <glyph glyph-name="perthousand" unicode="&#x2030;" horiz-adv-x="1296" 
d="M642 752l87 -50l-437 -753l-87 50zM81 571q0 28 10 52.5t29 43.5t46 30t61 11t61 -11t46 -30t29.5 -43.5t10.5 -52.5v-127q0 -28 -10.5 -53t-29.5 -43.5t-46 -29.5t-61 -11t-61 11t-46 29.5t-29 43.5t-10 53v127zM286 571q0 26 -16 44.5t-43 18.5q-26 0 -42 -18.5
t-16 -44.5v-127q0 -26 16 -44.5t42 -18.5q27 0 43 18.5t16 44.5v127zM575 256q0 28 10 52.5t29 43.5t46 30t61 11t61 -11t46 -30t29.5 -43.5t10.5 -52.5v-127q0 -28 -10.5 -53t-29.5 -43.5t-46 -29.5t-61 -11t-61 11t-46 29.5t-29 43.5t-10 53v127zM780 256q0 26 -16 44.5
t-43 18.5q-26 0 -42 -18.5t-16 -44.5v-127q0 -26 16 -44.5t42 -18.5q27 0 43 18.5t16 44.5v127zM921 256q0 28 10 52.5t29 43.5t46 30t61 11t61 -11t46 -30t29.5 -43.5t10.5 -52.5v-127q0 -28 -10.5 -53t-29.5 -43.5t-46 -29.5t-61 -11t-61 11t-46 29.5t-29 43.5t-10 53v127
zM1126 256q0 26 -16 44.5t-43 18.5q-26 0 -42 -18.5t-16 -44.5v-127q0 -26 16 -44.5t42 -18.5q27 0 43 18.5t16 44.5v127z" />
    <glyph glyph-name="guilsinglleft" unicode="&#x2039;" horiz-adv-x="276" 
d="M236 95l-196 164v64l196 164v-105l-109 -91l109 -91v-105z" />
    <glyph glyph-name="guilsinglright" unicode="&#x203a;" horiz-adv-x="276" 
d="M40 200l109 91l-109 91v105l196 -164v-64l-196 -164v105z" />
    <glyph glyph-name="fraction" unicode="&#x2044;" horiz-adv-x="224" 
d="M287 752l87 -50l-437 -753l-87 50z" />
    <glyph glyph-name="zerosuperior" unicode="&#x2070;" horiz-adv-x="399" 
d="M53 571q0 28 10 52.5t29 43.5t46 30t61 11t61 -11t46 -30t29.5 -43.5t10.5 -52.5v-127q0 -28 -10.5 -53t-29.5 -43.5t-46 -29.5t-61 -11t-61 11t-46 29.5t-29 43.5t-10 53v127zM258 571q0 26 -16 44.5t-43 18.5q-26 0 -42 -18.5t-16 -44.5v-127q0 -26 16 -44.5t42 -18.5
q27 0 43 18.5t16 44.5v127z" />
    <glyph glyph-name="foursuperior" unicode="&#x2074;" horiz-adv-x="395" 
d="M215 422h-153v278h88v-204h65v107h88v-107h47v-74h-47v-107h-88v107z" />
    <glyph glyph-name="fivesuperior" unicode="&#x2075;" horiz-adv-x="408" 
d="M68 700h259v-69h-178v-87q11 19 33.5 27.5t44.5 8.5q32 0 55.5 -11.5t39.5 -30t23.5 -42.5t7.5 -49q0 -29 -10 -54t-29 -44.5t-46.5 -30.5t-61.5 -11q-35 0 -62 11t-46 30t-29 44.5t-10 53.5h86q0 -27 16 -46.5t45 -19.5q28 0 44.5 19.5t16.5 47.5q0 26 -16 46t-45 20
q-38 0 -56 -36h-82v223z" />
    <glyph glyph-name="sixsuperior" unicode="&#x2076;" horiz-adv-x="390" 
d="M194 308q-35 0 -62 11t-46 30t-29 44t-10 54q0 45 23 80l111 173h100l-77 -116q6 -1 12 -2.5t11 -2.5q53 -8 83.5 -45t30.5 -87q0 -29 -10 -54t-29 -44t-46.5 -30t-61.5 -11zM194 381q28 0 44.5 19.5t16.5 46.5t-16.5 46.5t-44.5 19.5q-29 0 -45 -19.5t-16 -46.5
t16 -46.5t45 -19.5z" />
    <glyph glyph-name="sevensuperior" unicode="&#x2077;" horiz-adv-x="351" 
d="M325 700l-164 -385h-94l133 311h-151v74h276z" />
    <glyph glyph-name="eightsuperior" unicode="&#x2078;" horiz-adv-x="399" 
d="M200 307q-69 0 -107 34.5t-38 83.5q0 31 17 57t45 34q-25 10 -38.5 32.5t-13.5 49.5q0 45 35 77.5t100 32.5q32 0 57 -9t42 -24t26 -35t9 -42q0 -27 -13.5 -49.5t-38.5 -32.5q28 -9 45 -35t17 -56q0 -24 -9.5 -45t-28 -37.5t-45.5 -26t-61 -9.5zM200 545q23 0 36.5 14.5
t13.5 34.5q0 19 -13.5 33t-36.5 14q-25 0 -38 -14t-13 -33q0 -20 13 -34.5t38 -14.5zM200 374q27 0 42.5 16t15.5 37q0 20 -15 36.5t-43 16.5q-29 0 -44 -16t-15 -37q0 -22 15.5 -37.5t43.5 -15.5z" />
    <glyph glyph-name="ninesuperior" unicode="&#x2079;" horiz-adv-x="390" 
d="M196 707q34 0 61.5 -11t46.5 -30t29 -44.5t10 -53.5q0 -23 -6.5 -43t-17.5 -37l-111 -173h-99l77 115q-64 4 -100.5 42.5t-36.5 95.5q0 28 10 53.5t29 44.5t46 30t62 11zM196 634q-28 0 -44.5 -19.5t-16.5 -46.5t16.5 -46.5t44.5 -19.5t44.5 19.5t16.5 46.5t-16.5 46.5
t-44.5 19.5z" />
    <glyph glyph-name="plussuperior" unicode="&#x207a;" horiz-adv-x="397" 
d="M163 354v84h-82v67h82v84h71v-84h82v-67h-82v-84h-71z" />
    <glyph glyph-name="minussuperior" unicode="&#x207b;" horiz-adv-x="397" 
d="M81 438v67h235v-67h-235z" />
    <glyph glyph-name="equalsuperior" unicode="&#x207c;" horiz-adv-x="397" 
d="M81 487v67h235v-67h-235zM81 388v67h235v-67h-235z" />
    <glyph glyph-name="parenleftsuperior" unicode="&#x207d;" horiz-adv-x="279" 
d="M229 666q-33 0 -52 -22t-19 -54v-251q0 -31 19 -53.5t52 -22.5v-75q-36 0 -65.5 12t-49.5 32.5t-31 48t-11 58.5v251q0 31 11 58.5t31 48t49.5 32.5t65.5 12v-75z" />
    <glyph glyph-name="parenrightsuperior" unicode="&#x207e;" horiz-adv-x="279" 
d="M50 741q36 0 65.5 -12t49.5 -32.5t31 -48t11 -58.5v-251q0 -31 -11 -58.5t-31 -48t-49.5 -32.5t-65.5 -12v75q33 0 52 22.5t19 53.5v251q0 32 -19 54t-52 22v75z" />
    <glyph glyph-name="nsuperior" unicode="&#x207f;" horiz-adv-x="393" 
d="M66 580h83v-38q24 44 87 44q51 0 75 -30q12 -16 16 -35.5t4 -48.5v-157h-83v136q0 29 -10.5 46.5t-36.5 17.5t-39 -18t-13 -49v-133h-83v265z" />
    <glyph glyph-name="zeroinferior" unicode="&#x2080;" horiz-adv-x="399" 
d="M53 56q0 28 10 52.5t29 43.5t46 30t61 11t61 -11t46 -30t29.5 -43.5t10.5 -52.5v-127q0 -28 -10.5 -53t-29.5 -43.5t-46 -29.5t-61 -11t-61 11t-46 29.5t-29 43.5t-10 53v127zM258 56q0 26 -16 44.5t-43 18.5q-26 0 -42 -18.5t-16 -44.5v-127q0 -26 16 -44.5t42 -18.5
q27 0 43 18.5t16 44.5v127z" />
    <glyph glyph-name="oneinferior" unicode="&#x2081;" horiz-adv-x="282" 
d="M46 118q28 0 45.5 4t27.5 12t14 21t4 30h78v-385h-90v255h-79v63z" />
    <glyph glyph-name="twoinferior" unicode="&#x2082;" horiz-adv-x="377" 
d="M55 -200q0 47 7.5 79t21 54t32 37t41.5 29q34 20 57 37.5t23 46.5q0 23 -12.5 33t-31.5 10q-21 0 -35 -13t-14 -43h-88q0 53 35.5 88t101.5 35q26 0 50 -6.5t42 -21t28.5 -36.5t10.5 -52q0 -25 -10.5 -44.5t-25.5 -35t-32.5 -27t-31.5 -20.5q-20 -13 -33 -22.5t-21 -18
t-11 -17t-3 -20.5h166v-72h-267v0z" />
    <glyph glyph-name="threeinferior" unicode="&#x2083;" horiz-adv-x="391" 
d="M136 -71q0 -32 16.5 -49t42.5 -17q25 0 38 15.5t13 35.5q0 24 -12.5 38.5t-44.5 14.5h-34v69h34q30 0 40.5 13t10.5 34q0 23 -12 33t-32 10q-29 0 -39 -15t-10 -41h-88q0 25 7.5 47t24 39t42 27t61.5 10q27 0 51 -7t42.5 -20.5t29.5 -33.5t11 -47q0 -32 -17 -54.5
t-40 -30.5q26 -9 44.5 -32.5t18.5 -59.5q0 -28 -11.5 -49.5t-30.5 -36.5t-44 -22.5t-52 -7.5q-72 0 -110 38t-38 99h88z" />
    <glyph glyph-name="fourinferior" unicode="&#x2084;" horiz-adv-x="395" 
d="M215 -93h-153v278h88v-204h65v107h88v-107h47v-74h-47v-107h-88v107z" />
    <glyph glyph-name="fiveinferior" unicode="&#x2085;" horiz-adv-x="408" 
d="M68 185h259v-69h-178v-87q11 19 33.5 27.5t44.5 8.5q32 0 55.5 -11.5t39.5 -30t23.5 -42.5t7.5 -49q0 -29 -10 -54t-29 -44.5t-46.5 -30.5t-61.5 -11q-35 0 -62 11t-46 30t-29 44.5t-10 53.5h86q0 -27 16 -46.5t45 -19.5q28 0 44.5 19.5t16.5 47.5q0 26 -16 46t-45 20
q-38 0 -56 -36h-82v223z" />
    <glyph glyph-name="sixinferior" unicode="&#x2086;" horiz-adv-x="390" 
d="M194 -207q-35 0 -62 11t-46 30t-29 44t-10 54q0 45 23 80l111 173h100l-77 -116q6 -1 12 -2.5t11 -2.5q53 -8 83.5 -45t30.5 -87q0 -29 -10 -54t-29 -44t-46.5 -30t-61.5 -11zM194 -134q28 0 44.5 19.5t16.5 46.5t-16.5 46.5t-44.5 19.5q-29 0 -45 -19.5t-16 -46.5
t16 -46.5t45 -19.5z" />
    <glyph glyph-name="seveninferior" unicode="&#x2087;" horiz-adv-x="351" 
d="M325 185l-164 -385h-94l133 311h-151v74h276z" />
    <glyph glyph-name="eightinferior" unicode="&#x2088;" horiz-adv-x="399" 
d="M200 -208q-69 0 -107 34.5t-38 83.5q0 31 17 57t45 34q-25 10 -38.5 32.5t-13.5 49.5q0 45 35 77.5t100 32.5q32 0 57 -9t42 -24t26 -35t9 -42q0 -27 -13.5 -49.5t-38.5 -32.5q28 -9 45 -35t17 -56q0 -24 -9.5 -45t-28 -37.5t-45.5 -26t-61 -9.5zM200 30q23 0 36.5 14.5
t13.5 34.5q0 19 -13.5 33t-36.5 14q-25 0 -38 -14t-13 -33q0 -20 13 -34.5t38 -14.5zM200 -141q27 0 42.5 16t15.5 37q0 20 -15 36.5t-43 16.5q-29 0 -44 -16t-15 -37q0 -22 15.5 -37.5t43.5 -15.5z" />
    <glyph glyph-name="nineinferior" unicode="&#x2089;" horiz-adv-x="390" 
d="M196 192q34 0 61.5 -11t46.5 -30t29 -44.5t10 -53.5q0 -23 -6.5 -43t-17.5 -37l-111 -173h-99l77 115q-64 4 -100.5 42.5t-36.5 95.5q0 28 10 53.5t29 44.5t46 30t62 11zM196 119q-28 0 -44.5 -19.5t-16.5 -46.5t16.5 -46.5t44.5 -19.5t44.5 19.5t16.5 46.5t-16.5 46.5
t-44.5 19.5z" />
    <glyph glyph-name="parenleftinferior" unicode="&#x208d;" horiz-adv-x="279" 
d="M229 151q-33 0 -52 -22t-19 -54v-251q0 -31 19 -53.5t52 -22.5v-75q-36 0 -65.5 12t-49.5 32.5t-31 48t-11 58.5v251q0 31 11 58.5t31 48t49.5 32.5t65.5 12v-75z" />
    <glyph glyph-name="parenrightinferior" unicode="&#x208e;" horiz-adv-x="279" 
d="M50 226q36 0 65.5 -12t49.5 -32.5t31 -48t11 -58.5v-251q0 -31 -11 -58.5t-31 -48t-49.5 -32.5t-65.5 -12v75q33 0 52 22.5t19 53.5v251q0 32 -19 54t-52 22v75z" />
    <glyph glyph-name="Euro" unicode="&#x20ac;" 
d="M554 234q0 -50 -17.5 -94.5t-50 -78.5t-78 -53.5t-101.5 -19.5t-101 20t-77 53.5t-49.5 78t-17.5 94.5h-62l20 82h42v69h-62l20 81h42q0 49 17.5 94t49.5 78.5t77 53.5t101 20q52 0 95.5 -17t75.5 -47t51 -70t24 -85h-116q-8 49 -42 82.5t-88 33.5q-30 0 -54 -11.5
t-41 -31t-26 -45.5t-9 -55h208l-20 -81h-188v-69h208l-20 -82h-188q0 -29 9 -55t26 -45.5t41 -31t54 -11.5t54.5 11.5t41.5 31t26.5 45.5t9.5 55h115z" />
    <glyph glyph-name="afii61289" unicode="&#x2113;" horiz-adv-x="423" 
d="M282 -12q-23 0 -51.5 3.5t-53.5 21t-42.5 53t-17.5 100.5l-64 -48l-48 83l112 80v226q0 100 35.5 155t110.5 55q35 0 62 -13.5t45 -37.5t27.5 -56.5t9.5 -71.5q0 -46 -16 -87.5t-43 -79t-62.5 -70.5t-74.5 -63v-80q0 -27 7.5 -42.5t19.5 -23t27 -9t30 -1.5q24 0 43 3
t30 6v-91q-14 -6 -34 -9t-52 -3zM267 631q-28 0 -42 -30t-14 -74v-171q28 25 47.5 47.5t31.5 44.5t17.5 45t5.5 49q0 16 -2.5 32t-7.5 29t-14 20.5t-22 7.5z" />
    <glyph glyph-name="afii61352" unicode="&#x2116;" horiz-adv-x="1083" 
d="M476 202v498h115v-700h-126l-277 498v-498h-115v700h126zM845 309q-48 0 -86.5 16t-65 43.5t-41 63.5t-14.5 77t14.5 77.5t41 64t65 43.5t86.5 16t86.5 -16t65.5 -43.5t41.5 -64t14.5 -77.5t-14.5 -77t-41.5 -63.5t-65.5 -43.5t-86.5 -16zM845 403q22 0 40.5 8.5t31.5 23
t20 33.5t7 41t-7 41t-20 33.5t-31.5 23t-40.5 8.5q-45 0 -71.5 -31t-26.5 -75t26.5 -75t71.5 -31zM638 193v97h415v-97h-415z" />
    <glyph glyph-name="trademark" unicode="&#x2122;" horiz-adv-x="817" 
d="M376 700h109l95 -276l94 276h103v-407h-66v311l-108 -311h-47l-114 326v-326h-66v407zM308 700v-60h-101v-347h-67v347h-100v60h268z" />
    <glyph glyph-name="uni2126" unicode="&#x2126;" horiz-adv-x="716" 
d="M358 609q-50 0 -87 -17t-61.5 -45.5t-37 -65.5t-12.5 -77q0 -39 9 -75t28 -66t49 -51.5t72 -30.5v-181h-255v103h165v18q-44 17 -78 45t-57 64t-35.5 79t-12.5 90q0 62 21.5 118.5t62 100t98.5 69t131 25.5t131 -25.5t98.5 -69t62 -100t21.5 -118.5q0 -47 -12.5 -90
t-35.5 -79t-57.5 -64.5t-77.5 -45.5v-17h165v-103h-255v181q42 9 72 30.5t49 51.5t28 66t9 75q0 40 -12.5 77t-37 65.5t-62 45.5t-86.5 17z" />
    <glyph glyph-name="estimated" unicode="&#x212e;" horiz-adv-x="531" 
d="M151 239v-193q24 -17 54 -26t68 -9q36 0 66 9.5t53 25t39 36.5t24 45h23q-8 -28 -25.5 -53.5t-43.5 -44.5t-60.5 -30t-75.5 -11q-59 0 -102.5 20.5t-72.5 54.5t-43.5 78.5t-14.5 92.5q0 52 15.5 97t44.5 77.5t72 51t98 18.5q45 0 84.5 -16t68.5 -44t46 -66.5t17 -83.5
v-12t-1 -17h-334zM270 456q-69 0 -119 -33v-161h228v162q-23 15 -51 23.5t-58 8.5z" />
    <glyph glyph-name="arrowleft" unicode="&#x2190;" 
d="M-60 350l234 216l60 -65l-120 -107h526v-89h-525l119 -106l-60 -65z" />
    <glyph glyph-name="arrowup" unicode="&#x2191;" 
d="M290 700l216 -234l-65 -60l-107 120v-526h-89v524l-106 -118l-65 60z" />
    <glyph glyph-name="arrowright" unicode="&#x2192;" 
d="M640 350l-234 -216l-60 65l120 107h-526v89h524l-118 106l60 65z" />
    <glyph glyph-name="arrowdown" unicode="&#x2193;" 
d="M290 0l-216 234l65 60l107 -120v526h89v-525l106 119l65 -60z" />
    <glyph glyph-name="uni2196" unicode="&#x2196;" 
d="M27 597l318 -12l-4 -89l-160 9l372 -371l-63 -63l-371 370l9 -158l-89 -4z" />
    <glyph glyph-name="uni2197" unicode="&#x2197;" 
d="M553 597l-12 -318l-89 4l10 160l-372 -372l-63 63l370 371l-158 -9l-4 89z" />
    <glyph glyph-name="uni2198" unicode="&#x2198;" 
d="M553 103l-318 12l4 89l160 -9l-372 371l63 63l371 -370l-9 158l89 4z" />
    <glyph glyph-name="uni2199" unicode="&#x2199;" 
d="M27 103l12 318l89 -4l-9 -160l371 372l63 -63l-370 -371l158 9l4 -89z" />
    <glyph glyph-name="partialdiff" unicode="&#x2202;" 
d="M280 445q41 0 79 -14.5t63 -35.5q-4 69 -14 112t-27 67.5t-40 33.5t-53 9q-28 0 -50.5 -11t-38.5 -30.5t-24.5 -46t-8.5 -57.5h-115q0 51 16.5 95.5t47.5 78t75 52.5t98 19q61 0 106.5 -20t76 -68t46 -126.5t15.5 -195.5q0 -89 -18 -151t-51 -100.5t-79.5 -56
t-103.5 -17.5q-53 0 -95.5 18.5t-73 49.5t-47 72.5t-16.5 88.5q0 46 16.5 88.5t47 75t73 51.5t95.5 19zM280 345q-28 0 -51 -10.5t-39.5 -28.5t-25.5 -42.5t-9 -52.5q0 -56 34 -92.5t91 -36.5q32 0 58.5 9t45.5 33t29.5 65.5t11.5 106.5q-29 23 -61.5 36t-83.5 13z" />
    <glyph glyph-name="uni2206" unicode="&#x2206;" horiz-adv-x="571" 
d="M162 103h247l-123 406zM568 0h-565l242 700h81z" />
    <glyph glyph-name="product" unicode="&#x220f;" horiz-adv-x="665" 
d="M662 692h-70v-926h-115v926h-289v-926h-115v926h-70v102h659v-102z" />
    <glyph glyph-name="summation" unicode="&#x2211;" 
d="M30 -234v107l357 412l-357 412v97h519v-102h-373l356 -392l-356 -422h373v-112h-519z" />
    <glyph glyph-name="minus" unicode="&#x2212;" 
d="M88 236v97h404v-97h-404z" />
    <glyph glyph-name="radical" unicode="&#x221a;" horiz-adv-x="684" 
d="M2 232h197l88 -275l274 837h121l-355 -1028h-81l-128 369h-116v97z" />
    <glyph glyph-name="infinity" unicode="&#x221e;" horiz-adv-x="833" 
d="M597 491q51 0 90 -16.5t65 -44t39.5 -64.5t13.5 -77q0 -41 -13.5 -77.5t-39.5 -64t-65 -44t-90 -16.5q-48 0 -94 25t-87 79q-41 -54 -86.5 -79t-93.5 -25q-52 0 -91 17.5t-65 46t-39 64.5t-13 74t13 74t39 64.5t65 46t91 17.5q48 0 93.5 -25t86.5 -79q41 54 87 79t94 25z
M597 394q-30 0 -62.5 -25.5t-61.5 -79.5q29 -55 61.5 -80t62.5 -25q52 0 78.5 31.5t26.5 73.5t-26.5 73.5t-78.5 31.5zM236 394q-52 0 -78.5 -31.5t-26.5 -73.5t26.5 -73.5t78.5 -31.5q29 0 61.5 25t62.5 80q-30 54 -62.5 79.5t-61.5 25.5z" />
    <glyph glyph-name="integral" unicode="&#x222b;" horiz-adv-x="294" 
d="M201 -109q0 -39 -8.5 -65t-22 -41.5t-31 -22t-35.5 -6.5q-26 0 -49.5 3t-34.5 8v90q16 -4 23.5 -5t14.5 -1q17 0 26 10.5t9 36.5v761q0 39 8.5 65t22 41.5t31 22t35.5 6.5q26 0 49.5 -3t34.5 -8v-90q-16 4 -23.5 5t-14.5 1q-17 0 -26 -10.5t-9 -36.5v-761z" />
    <glyph glyph-name="approxequal" unicode="&#x2248;" 
d="M66 195q25 33 55 46t56 13q27 0 57 -9.5t61 -22.5l58 -24t50 -12q34 0 62 17.5t48 37.5v-93q-25 -33 -55 -46t-56 -13q-29 0 -55.5 9.5t-52.5 23.5t-56 24.5t-66 10.5q-31 0 -58.5 -17.5t-47.5 -37.5v93zM66 351q25 33 55 46t56 13q27 0 57 -9.5t61 -22.5l58 -24t50 -12
q34 0 62 17.5t48 37.5v-93q-25 -33 -55 -46t-56 -13q-29 0 -55.5 9.5t-52.5 23.5t-56 24.5t-66 10.5q-31 0 -58.5 -17.5t-47.5 -37.5v93z" />
    <glyph glyph-name="notequal" unicode="&#x2260;" 
d="M291 157l-45 -105h-122l45 105h-81v97h122l26 59h-148v97h190l45 105h122l-45 -105h92v-97h-134l-26 -59h160v-97h-201z" />
    <glyph glyph-name="lessequal" unicode="&#x2264;" 
d="M492 251l-404 140v77l404 140v-100l-243 -78l243 -79v-100zM88 0v97h404v-97h-404z" />
    <glyph glyph-name="greaterequal" unicode="&#x2265;" 
d="M88 351l243 79l-243 78v100l404 -140v-77l-404 -140v100zM88 0v97h404v-97h-404z" />
    <glyph glyph-name="lozenge" unicode="&#x25ca;" horiz-adv-x="485" 
d="M5 396l189 398h98l188 -398l-188 -396h-98zM242 115l126 281l-125 281l-126 -281z" />
    <glyph glyph-name="apple" unicode="&#xf8ff;" horiz-adv-x="800" 
d="M201 500q0 18 12.5 30.5t29.5 12.5q18 0 30.5 -12.5t12.5 -30.5q0 -17 -12.5 -30t-30.5 -13q-17 0 -29.5 13t-12.5 30zM498 500q0 18 12.5 30.5t29.5 12.5q18 0 30.5 -12.5t12.5 -30.5q0 -17 -12.5 -30t-30.5 -13q-17 0 -29.5 13t-12.5 30zM219 259l179 268l-110 -243
h178v-25h-247zM600 161q2 5 2 9.5v8.5q-2 9 -4 13q-1 3 -3 5q-1 0 -3 2q-2 0 -4 2q-4 1 -14 5q-8 4 -16.5 8t-16.5 11q-10 7 -18 20q-1 2 -2 5l-2 6q-1 4 -2 7t-1 7q-2 8 -3 15.5t-1 15.5q1 5 1 10t2 9l15 -5q0 -2 -0.5 -4.5t-0.5 -5.5v-13q1 -7 1.5 -14t2.5 -13
q2 -4 2.5 -7t2.5 -5q3 -6 8 -10.5t11 -9.5q6 -4 13 -7t13 -6q9 -3 15 -6q3 -1 7 -5q6 -4 7 -9q5 -9 6 -19v-12t-2 -12zM213 331q0 -5 0.5 -10t1.5 -10t1.5 -10t0.5 -10q0 -10 -7 -20q-7 -9 -14 -13q-1 0 -2 -0.5t-2 -0.5q-5 -2 -10.5 -4.5t-10.5 -5.5q-4 -1 -10 -5
q-4 -4 -6 -5q-3 -5 -5 -13q-1 -5 -1.5 -9t-0.5 -8h-16q0 5 0.5 10t1.5 10q2 5 3.5 10t5.5 10q2 2 9 8q2 2 5 3.5t6 3.5q5 3 11.5 5.5t12.5 4.5l1 1q4 1 9 8q4 6 4 10q0 5 -0.5 9t-1.5 9t-1.5 10t-1.5 10zM168 228q25 -15 47 -28t44 -22.5t45.5 -15t51.5 -5.5q21 0 49 1.5
t58.5 5t60 11t52.5 19.5q1 0 3 2q-13 -28 -42 -54t-65 -45q-57 -31 -106 -31t-97.5 37.5t-100.5 124.5zM230 169q15 -22 34 -37t38.5 -24t36.5 -12.5t27 -3.5q25 0 52 9t50 20t39 21t20 13q-43 -8 -81 -15.5t-88 -7.5q-13 0 -30.5 1.5t-35.5 6t-34.5 11.5t-27.5 18zM400 695
q-76 0 -143 -29q-60 -27 -106 -76q-45 -50 -67 -110q-24 -63 -24 -130q0 -68 24 -129q22 -62 67 -110q46 -50 106 -76q67 -29 143 -29t142 29q60 26 106 76q45 48 67 110q24 61 24 129q0 67 -24 130q-22 60 -67 110q-46 49 -106 76q-66 29 -142 29zM400 717
q84 0 151.5 -30.5t114 -81.5t71.5 -117.5t25 -137.5t-25 -137.5t-71.5 -117.5t-114 -81.5t-151.5 -30.5t-151.5 30.5t-114 81.5t-71.5 117.5t-25 137.5t25 137.5t71.5 117.5t114 81.5t151.5 30.5z" />
    <glyph glyph-name="one.plf" horiz-adv-x="366" 
d="M30 584q48 0 78 6.5t47 20t23 35.5t6 54h109v-700h-119v493h-144v91z" />
    <glyph glyph-name="two.plf" horiz-adv-x="527" 
d="M47 0q0 83 14 139t39 95t59.5 66t74.5 53q23 14 47.5 29t44.5 33.5t33 42t13 55.5q0 51 -29 73.5t-72 22.5q-45 0 -77 -27.5t-32 -88.5h-115q0 53 18.5 94t50 68.5t72 42t84.5 14.5q45 0 84.5 -13t68.5 -39.5t45.5 -66t16.5 -91.5q0 -48 -23 -86t-54 -66.5t-62.5 -48.5
t-48.5 -32q-38 -27 -61.5 -47t-36.5 -38t-17.5 -37t-4.5 -44h304v-103h-436v0z" />
    <glyph glyph-name="four.plf" horiz-adv-x="559" 
d="M320 210h-255v490h115v-387h140v210h115v-210h96v-103h-96v-210h-115v210z" />
    <glyph glyph-name="three.plf" horiz-adv-x="569" 
d="M148 234q0 -34 10.5 -60.5t28.5 -45t42.5 -28t52.5 -9.5q27 0 49 9t37 24t23 35t8 41q0 25 -6.5 46t-21 36.5t-38.5 24.5t-60 9h-47v102h48q62 0 85 28.5t23 73.5t-27.5 67t-71.5 22q-62 0 -86.5 -32t-24.5 -84h-115q0 49 16 89t45 69t69 45t88 16q45 0 85.5 -13.5
t70.5 -39t48 -61t18 -78.5q0 -60 -26.5 -98t-68.5 -56q48 -19 80 -58.5t32 -106.5q0 -48 -19 -87t-51 -67t-75.5 -43.5t-91.5 -15.5t-92 16.5t-77.5 48t-54 77t-20.5 104.5h115z" />
    <glyph glyph-name="Adieresis.001" horiz-adv-x="571" 
d="M258 740h-83l87 130h83zM382 740h-83l87 130h83zM568 0h-121l-30 89h-263l-30 -89h-121l242 700h81zM189 192h193l-96 317z" />
    <glyph glyph-name="Odieresis.001" horiz-adv-x="800" 
d="M360 870h83l-87 -130h-83zM480 740h-83l87 130h83zM400 -17q-84 0 -151.5 30.5t-114 81.5t-71.5 117.5t-25 137.5t25 137.5t71.5 117.5t114 81.5t151.5 30.5t151.5 -30.5t114 -81.5t71.5 -117.5t25 -137.5t-25 -137.5t-71.5 -117.5t-114 -81.5t-151.5 -30.5zM400 86
q56 0 100.5 22t76 59t48 84.5t16.5 98.5t-16.5 98.5t-48 84.5t-76 59t-100.5 22t-100.5 -22t-76 -59t-48 -84.5t-16.5 -98.5t16.5 -98.5t48 -84.5t76 -59t100.5 -22z" />
    <glyph glyph-name="Udieresis.001" horiz-adv-x="640" 
d="M288 740h-83l87 130h83zM412 740h-83l87 130h83zM68 700h115v-466q0 -30 9.5 -57t27.5 -47t43 -32t56 -12t56.5 12t43.5 32t28 47t10 57v466h115v-466q0 -51 -18 -96.5t-51 -80t-79.5 -54.5t-104.5 -20q-57 0 -103 20t-79 54.5t-51 80t-18 96.5v466z" />
    <glyph glyph-name="Edieresis.001" horiz-adv-x="545" 
d="M257 740h-83l87 130h83zM381 740h-83l87 130h83zM188 597v-198h289v-103h-289v-193h289v-103h-404v700h404v-103h-289z" />
    <glyph glyph-name="zero.plf" 
d="M44 467q0 49 17.5 93.5t49.5 78.5t77 53.5t101 19.5t101.5 -19.5t78 -53.5t50 -78.5t17.5 -93.5v-234q0 -50 -17.5 -94t-50 -78t-78 -53.5t-101.5 -19.5t-101 19.5t-77 53.5t-49.5 78t-17.5 94v234zM421 467q0 29 -9.5 54.5t-26.5 45t-41.5 31t-54.5 11.5t-54 -11.5
t-41 -31t-26 -45t-9 -54.5v-234q0 -29 9 -54.5t26 -45t41 -31t54 -11.5t54.5 11.5t41.5 31t26.5 45t9.5 54.5v234z" />
    <glyph glyph-name="five.plf" horiz-adv-x="606" 
d="M76 700h425v-103h-322v-194q11 20 29 34t39 23t42.5 13t39.5 4q56 0 98.5 -19.5t71 -53t43 -78t14.5 -93.5q0 -50 -17.5 -94t-50 -78t-78 -53.5t-101.5 -19.5t-101 19.5t-77 53.5t-49.5 78t-17.5 94h115q0 -29 9 -54.5t26 -45t41 -31t54 -11.5t54.5 11.5t42 31t26.5 45
t9 54.5t-9 54.5t-26.5 45t-42 31t-54.5 11.5q-38 0 -68 -18.5t-50 -58.5h-115v402z" />
    <glyph glyph-name="six.plf" horiz-adv-x="569" 
d="M282 -12q-56 0 -101 19.5t-77 53.5t-49.5 78t-17.5 94q0 40 12 76.5t32 68.5l201 322h132l-147 -223q5 1 15 1q56 0 101.5 -19.5t78 -53.5t50 -78.5t17.5 -93.5q0 -50 -17.5 -94t-50 -78t-78 -53.5t-101.5 -19.5zM282 91q30 0 54.5 11.5t41.5 31t26.5 45t9.5 54.5
t-9.5 54.5t-26.5 45t-41.5 31t-54.5 11.5t-54 -11.5t-41 -31t-26 -45t-9 -54.5t9 -54.5t26 -45t41 -31t54 -11.5z" />
    <glyph glyph-name="seven.plf" horiz-adv-x="479" 
d="M484 700l-298 -700h-122l258 597h-284v103h446z" />
    <glyph glyph-name="eight.plf" horiz-adv-x="589" 
d="M295 -12q-56 0 -100.5 17t-75.5 46.5t-47.5 68t-16.5 82.5q0 25 6 50.5t18.5 48t31.5 40.5t46 27q-47 21 -66 62t-19 83q0 40 15 76.5t44 63.5t70 43t94 16q52 0 93.5 -16t70 -43.5t43.5 -63.5t15 -76q0 -42 -19 -83t-66 -62q27 -9 46 -27t31.5 -41t18.5 -48.5t6 -49.5
q0 -42 -16.5 -80.5t-47 -68.5t-75 -47.5t-100.5 -17.5zM295 406q25 0 45 8.5t33.5 22.5t21 32.5t7.5 38.5t-7.5 38t-21 32t-33.5 22.5t-45 8.5q-26 0 -46 -8t-33.5 -22t-21 -32.5t-7.5 -38.5q0 -21 7.5 -39.5t21 -32.5t33.5 -22t46 -8zM295 91q29 0 52 9t39 24.5t24.5 35.5
t8.5 42q0 21 -8 41.5t-24 36t-39 25t-53 9.5t-53.5 -9t-39.5 -24.5t-24 -36t-8 -42.5q0 -23 8.5 -43t24.5 -35t39.5 -24t52.5 -9z" />
    <glyph glyph-name="nine.plf" horiz-adv-x="569" 
d="M287 712q55 0 100.5 -19.5t77.5 -53.5t49.5 -78.5t17.5 -93.5q0 -41 -12.5 -77t-32.5 -68l-200 -322h-132l147 222q-60 0 -108 18.5t-82.5 51t-53 77.5t-18.5 98q0 49 17.5 93.5t49.5 78.5t78 53.5t102 19.5zM287 609q-30 0 -54.5 -11.5t-41.5 -31t-26.5 -45t-9.5 -54.5
t9.5 -54.5t26.5 -45t41.5 -31t54.5 -11.5t54 11.5t41 31t26 45t9 54.5t-9 54.5t-26 45t-41 31t-54 11.5z" />
    <glyph glyph-name="zero.slash" 
d="M536 233q0 -50 -17.5 -94t-50 -78t-78 -53.5t-101.5 -19.5t-101 19.5t-77 53.5t-49.5 78t-17.5 94v234q0 49 17.5 93.5t49.5 78.5t77 53.5t101 19.5t101.5 -19.5t78 -53.5t50 -78.5t17.5 -93.5v-234zM345 596q-28 13 -56 13q-30 0 -54 -11.5t-41 -31t-26 -45t-9 -54.5
v-234q0 -25 8 -51zM241 100q21 -9 48 -9q30 0 54.5 11.5t41.5 31t26.5 45t9.5 54.5v234q0 11 -1.5 20.5t-3.5 19.5z" />
    <glyph glyph-name="zero.plfslash" 
d="M289 -12q-56 0 -101 19.5t-77 53.5t-49.5 78t-17.5 94v234q0 49 17.5 93.5t49.5 78.5t77 53.5t101 19.5t101.5 -19.5t78 -53.5t50 -78.5t17.5 -93.5v-234q0 -50 -17.5 -94t-50 -78t-78 -53.5t-101.5 -19.5zM159 233q0 -25 8 -51l178 414q-28 13 -56 13q-30 0 -54 -11.5
t-41 -31t-26 -45t-9 -54.5v-234zM241 100q21 -9 48 -9q30 0 54.5 11.5t41.5 31t26.5 45t9.5 54.5v234q0 11 -1.5 20.5t-3.5 19.5z" />
    <glyph glyph-name="commaaccent" horiz-adv-x="250" 
d="M61 69q0 27 19 46t45 19q32 0 52.5 -23t20.5 -60q0 -74 -35.5 -103.5t-98.5 -30.5v41q21 0 35 4t24 12q17 14 19 36q-2 -2 -7 -3.5t-10 -1.5q-29 0 -46.5 19t-17.5 45z" />
    <glyph glyph-name="commaturn" horiz-adv-x="250" 
d="M198 642q0 -27 -19 -46t-45 -19q-32 0 -52.5 23t-20.5 60q0 74 35.5 103.5t98.5 30.5v-41q-39 0 -58 -16q-10 -8 -14 -17t-6 -19q5 5 17 5q29 0 46.5 -19t17.5 -45z" />
    <glyph glyph-name="E.smcp" horiz-adv-x="501" 
d="M199 466v-142h221v-92h-221v-138h221v-94h-334v560h334v-94h-221z" />
    <glyph glyph-name="P.smcp" horiz-adv-x="554" 
d="M86 560h220q46 0 83 -16t63 -43.5t40.5 -64t14.5 -76.5t-14.5 -76t-40.5 -63.5t-63 -43.5t-83 -16h-107v-161h-113v560zM296 256q22 0 40 8.5t30.5 22.5t19.5 33t7 40q0 43 -26 74t-70 31h-98v-209h97z" />
    <glyph glyph-name="W.smcp" horiz-adv-x="869" 
d="M435 373l-120 -373h-88l-196 560h119l121 -381l120 381h86l121 -381l121 381h119l-196 -560h-88z" />
    <glyph glyph-name="N.smcp" horiz-adv-x="615" 
d="M417 180v380h112v-560h-119l-211 377v-377h-113v560h120z" />
    <glyph glyph-name="H.smcp" horiz-adv-x="608" 
d="M409 229h-210v-229h-113v560h113v-233h210v233h113v-560h-113v229z" />
    <glyph glyph-name="I.smcp" horiz-adv-x="287" 
d="M86 560h115v-560h-115v560z" />
    <glyph glyph-name="L.smcp" horiz-adv-x="414" 
d="M364 99v-99h-278v560h113v-461h165z" />
    <glyph glyph-name="M.smcp" horiz-adv-x="740" 
d="M654 0h-112v347l-129 -347h-84l-132 347v-347h-111v560h122l163 -402l162 402h121v-560z" />
    <glyph glyph-name="T.smcp" horiz-adv-x="457" 
d="M172 461h-132v99h377v-99h-132v-461h-113v461z" />
    <glyph glyph-name="K.smcp" horiz-adv-x="568" 
d="M199 241v-241h-113v560h113v-242l193 242h137l-228 -280l228 -280h-137z" />
    <glyph glyph-name="J.smcp" horiz-adv-x="510" 
d="M429 188q0 -92 -50.5 -147t-144.5 -55q-48 0 -84 16t-60.5 43t-37 64t-12.5 79h113q0 -45 20 -74t61 -29t62 27.5t21 75.5v372h112v-372z" />
    <glyph glyph-name="B.smcp" horiz-adv-x="555" 
d="M84 560h214q58 0 93.5 -16.5t55 -40.5t26 -51.5t6.5 -49.5q0 -28 -8.5 -49t-21.5 -35t-29 -22.5t-30 -12.5q12 -3 28.5 -11t31 -22.5t24.5 -36t10 -52.5q0 -22 -6.5 -50t-26 -52.5t-55 -41.5t-93.5 -17h-219v560zM197 239v-147h91q25 0 41 7.5t25 18.5t12.5 24t3.5 24
q0 10 -3.5 22.5t-12.5 23.5t-25 19t-41 8h-91zM284 329q25 0 41 7t25 18t12.5 23t3.5 23q0 10 -3 22t-12 23t-25 18.5t-42 7.5h-87v-142h87z" />
    <glyph glyph-name="C.smcp" horiz-adv-x="686" 
d="M629 191q-9 -43 -32 -80.5t-58 -65t-81.5 -43.5t-101.5 -16q-70 0 -125 24t-93.5 64.5t-59 94t-20.5 112.5q0 57 20 110t57.5 93.5t91 65t121.5 24.5q64 0 113.5 -17.5t84.5 -48.5t56 -72t27 -87h-118q-10 53 -49.5 88.5t-104.5 35.5q-44 0 -78.5 -16t-58 -42.5
t-35.5 -61.5t-12 -72q0 -40 13 -75t37.5 -61.5t60 -42t81.5 -15.5q24 0 47 8t42 22t33.5 33t20.5 41h121z" />
    <glyph glyph-name="V.smcp" horiz-adv-x="549" 
d="M321 0h-95l-197 560h120l125 -401l124 401h122z" />
    <glyph glyph-name="Q.smcp" horiz-adv-x="703" 
d="M645 280q0 -44 -12 -85t-34.5 -77t-55 -64t-74.5 -44l48 -65q-8 -5 -21.5 -11.5t-28 -14t-28 -14.5t-21.5 -11l-67 92q-69 0 -123.5 24.5t-92 65.5t-57.5 94t-20 110t20 110.5t58 94t92 65t123 24.5t123.5 -24.5t92.5 -65t58 -94t20 -110.5zM351 88q41 0 74 16t56 43
t35 61.5t12 71.5t-12 71.5t-35 61.5t-56 43t-74 16t-73.5 -16t-55.5 -43t-35 -61.5t-12 -71.5t12 -71.5t35 -61.5t55.5 -43t73.5 -16z" />
    <glyph glyph-name="X.smcp" horiz-adv-x="529" 
d="M370 560h125l-166 -280l166 -280h-125l-105 189l-105 -189h-126l166 280l-166 280h126l105 -190z" />
    <glyph glyph-name="F.smcp" horiz-adv-x="496" 
d="M199 463v-163h221v-96h-221v-204h-113v560h334v-97h-221z" />
    <glyph glyph-name="Z.smcp" horiz-adv-x="546" 
d="M62 560h444l-282 -463h276v-97h-458l281 463h-261v97z" />
    <glyph glyph-name="U.smcp" horiz-adv-x="579" 
d="M79 560h113v-370q0 -43 26.5 -74t70.5 -31q45 0 72 31t27 74v370h112v-371q0 -42 -14.5 -79t-42 -64.5t-66.5 -43.5t-88 -16q-48 0 -87 16t-66 43.5t-42 64.5t-15 79v371z" />
    <glyph glyph-name="D.smcp" horiz-adv-x="630" 
d="M281 560q69 0 123.5 -23.5t91.5 -62.5t56.5 -89.5t19.5 -104.5t-19.5 -104.5t-56.5 -89.5t-91 -62.5t-124 -23.5h-195v560h195zM199 461v-362h78q43 0 76 15.5t56 40.5t35 57.5t12 67.5q0 34 -12 67t-35 58t-56 40.5t-76 15.5h-78z" />
    <glyph glyph-name="Y.smcp" horiz-adv-x="559" 
d="M257 0h-125l108 217l-204 343h131l133 -229l110 229h125z" />
    <glyph glyph-name="A.smcp" horiz-adv-x="557" 
d="M524 0h-122l-22 69h-204l-23 -69h-120l197 560h95zM205 162h145l-72 241z" />
    <glyph glyph-name="Eth.smcp" horiz-adv-x="630" 
d="M281 560q69 0 123 -23.5t91.5 -62.5t57 -89.5t19.5 -104.5t-19.5 -104.5t-57 -89.5t-91.5 -62.5t-123 -23.5h-195v236h-91v89h91v235h195zM293 236h-94v-137h78q43 0 76 15.5t56 40.5t35 57.5t12 67.5q0 34 -12 67t-35 58t-56 40.5t-76 15.5h-78v-136h94v-89z" />
    <glyph glyph-name="Lslash.smcp" horiz-adv-x="415" 
d="M365 99v-99h-278v202l-34 -14v92l34 13v267h113v-223l120 49v-91l-120 -50v-146h165z" />
    <glyph glyph-name="G.smcp" horiz-adv-x="729" 
d="M404 289h280v-90h-60q-9 -47 -30.5 -86.5t-56 -67.5t-82 -43.5t-106.5 -15.5q-70 0 -124 24t-91 64.5t-56.5 94t-19.5 111.5q0 57 20 110t58 94t91.5 65.5t121.5 24.5q52 0 96.5 -15t77 -41t52.5 -60t23 -73h-118q-6 36 -41.5 63t-89.5 27q-42 0 -74.5 -16.5t-55 -43.5
t-34.5 -62.5t-12 -73.5q0 -39 11.5 -74.5t34.5 -62.5t58.5 -43t82.5 -16q32 0 57.5 9.5t44.5 25.5t30 37t15 44h-103v90z" />
    <glyph glyph-name="Adieresis.smcp" horiz-adv-x="557" 
d="M524 0h-122l-22 69h-204l-23 -69h-120l197 560h95zM205 162h145l-72 241zM302 683q0 29 20.5 49.5t49.5 20.5q30 0 50.5 -20.5t20.5 -49.5t-20.5 -49.5t-50.5 -20.5q-29 0 -49.5 20.5t-20.5 49.5zM114 683q0 29 20.5 49.5t49.5 20.5q30 0 50.5 -20.5t20.5 -49.5
t-20.5 -49.5t-50.5 -20.5q-29 0 -49.5 20.5t-20.5 49.5z" />
    <glyph glyph-name="Odieresis.smcp" horiz-adv-x="703" 
d="M351 -14q-69 0 -123 24.5t-92 65t-58 94t-20 110.5t20 110.5t58 94t92 65t123 24.5t123.5 -24.5t92.5 -65t58 -94t20 -110.5t-20 -110.5t-58 -94t-92.5 -65t-123.5 -24.5zM351 88q41 0 74 16t56 43t35 61.5t12 71.5t-12 71.5t-35 61.5t-56 43t-74 16t-73.5 -16t-55.5 -43
t-35 -61.5t-12 -71.5t12 -71.5t35 -61.5t55.5 -43t73.5 -16zM374 683q0 30 20.5 50.5t49.5 20.5q30 0 50.5 -20.5t20.5 -50.5q0 -29 -20.5 -49t-50.5 -20q-29 0 -49.5 20t-20.5 49zM186 683q0 30 20.5 50.5t49.5 20.5q30 0 50.5 -20.5t20.5 -50.5q0 -29 -20.5 -49t-50.5 -20
q-29 0 -49.5 20t-20.5 49z" />
    <glyph glyph-name="Udieresis.smcp" horiz-adv-x="579" 
d="M79 560h113v-370q0 -43 26.5 -74t70.5 -31q45 0 72 31t27 74v370h112v-371q0 -42 -14.5 -79t-42 -64.5t-66.5 -43.5t-88 -16q-48 0 -87 16t-66 43.5t-42 64.5t-15 79v371zM312 683q0 29 20.5 49.5t49.5 20.5q30 0 50.5 -20.5t20.5 -49.5t-20.5 -49.5t-50.5 -20.5
q-29 0 -49.5 20.5t-20.5 49.5zM123 683q0 29 21 49.5t50 20.5t50 -20.5t21 -49.5t-21 -49.5t-50 -20.5t-50 20.5t-21 49.5z" />
    <glyph glyph-name="Ydieresis.smcp" horiz-adv-x="559" 
d="M257 0h-125l108 217l-204 343h131l133 -229l110 229h125zM326 683q0 28 19.5 48t48.5 20t48.5 -20t19.5 -48t-19.5 -47.5t-48.5 -19.5t-48.5 19.5t-19.5 47.5zM138 683q0 28 19.5 48t47.5 20q29 0 49 -20t20 -48t-20 -47.5t-49 -19.5q-28 0 -47.5 19.5t-19.5 47.5z" />
    <glyph glyph-name="Edieresis.smcp" horiz-adv-x="501" 
d="M199 466v-142h221v-92h-221v-138h221v-94h-334v560h334v-94h-221zM287 683q0 29 20.5 49.5t49.5 20.5q30 0 50.5 -20.5t20.5 -49.5t-20.5 -49.5t-50.5 -20.5q-29 0 -49.5 20.5t-20.5 49.5zM98 683q0 29 21 49.5t50 20.5t50 -20.5t21 -49.5t-21 -49.5t-50 -20.5t-50 20.5
t-21 49.5z" />
    <glyph glyph-name="Aring.smcp" horiz-adv-x="557" 
d="M524 0h-122l-22 69h-204l-23 -69h-120l197 560h95zM205 162h145l-72 241zM279 789q21 0 40 -8.5t33 -22.5t22 -33t8 -40t-8 -39.5t-22 -33t-33 -22.5t-40 -8q-22 0 -41 8t-33 22.5t-22 33t-8 39.5t8 40t22 33.5t33 22.5t41 8zM279 722q-16 0 -26 -11t-10 -26
q0 -14 10.5 -24t25.5 -10q14 0 24.5 10.5t10.5 24.5t-10 25t-25 11z" />
    <glyph glyph-name="Ccedilla.smcp" horiz-adv-x="686" 
d="M629 191q-8 -41 -29.5 -77t-54 -63t-75.5 -44t-94 -20v-26q5 5 12.5 8t19.5 3q24 0 44.5 -19t20.5 -51q0 -15 -5.5 -29t-16 -25t-26.5 -18t-37 -7q-8 0 -21 2.5t-26 10t-23.5 21.5t-13.5 37h56q2 -11 9.5 -17.5t18.5 -6.5q13 0 21 9t8 23q0 13 -8.5 20.5t-19.5 7.5
q-17 0 -24 -14h-49v72q-61 7 -109 33t-81 65.5t-50.5 89.5t-17.5 105q0 57 20 110t57.5 93.5t91 65t121.5 24.5q64 0 113.5 -17.5t84.5 -48.5t56 -72t27 -87h-118q-10 53 -49.5 88.5t-104.5 35.5q-44 0 -78.5 -16t-58 -42.5t-35.5 -61.5t-12 -72q0 -40 13 -75t37.5 -61.5
t60 -42t81.5 -15.5q24 0 47 8t42 22t33.5 33t20.5 41h121v0z" />
    <glyph glyph-name="Eacute.smcp" horiz-adv-x="501" 
d="M199 466v-142h221v-92h-221v-138h221v-94h-334v560h334v-94h-221zM166 595l-40 77l212 106l40 -77z" />
    <glyph glyph-name="Ntilde.smcp" horiz-adv-x="615" 
d="M417 180v380h112v-560h-119l-211 377v-377h-113v560h120zM150 697q37 22 55.5 26t29.5 4q9 0 25 -3.5t34 -7t34 -7t24 -3.5q7 0 12.5 0.5t13 3t17 6.5t23.5 11l36 -64q-32 -26 -55.5 -31t-34.5 -5q-9 0 -25.5 3.5t-34 7t-33.5 7t-24 3.5q-17 0 -30 -5.5t-28 -11.5z" />
    <glyph glyph-name="Aacute.smcp" horiz-adv-x="557" 
d="M524 0h-122l-22 69h-204l-23 -69h-120l197 560h95zM205 162h145l-72 241zM193 583l-40 77l212 105l40 -77z" />
    <glyph glyph-name="Egrave.smcp" horiz-adv-x="501" 
d="M199 466v-142h221v-92h-221v-138h221v-94h-334v560h334v-94h-221zM139 689l40 77l211 -105l-40 -78z" />
    <glyph glyph-name="Ocircumflex.smcp" horiz-adv-x="703" 
d="M351 -14q-69 0 -123 24.5t-92 65t-58 94t-20 110.5t20 110.5t58 94t92 65t123 24.5t123.5 -24.5t92.5 -65t58 -94t20 -110.5t-20 -110.5t-58 -94t-92.5 -65t-123.5 -24.5zM351 88q41 0 74 16t56 43t35 61.5t12 71.5t-12 71.5t-35 61.5t-56 43t-74 16t-73.5 -16t-55.5 -43
t-35 -61.5t-12 -71.5t12 -71.5t35 -61.5t55.5 -43t73.5 -16zM351 782l152 -122l-59 -66l-92 74l-91 -73l-60 65z" />
    <glyph glyph-name="Ucircumflex.smcp" horiz-adv-x="579" 
d="M79 560h113v-370q0 -43 26.5 -74t70.5 -31q45 0 72 31t27 74v370h112v-371q0 -42 -14.5 -79t-42 -64.5t-66.5 -43.5t-88 -16q-48 0 -87 16t-66 43.5t-42 64.5t-15 79v371zM286 782l151 -122l-59 -66l-92 74l-91 -73l-60 65z" />
    <glyph glyph-name="AE.smcp" horiz-adv-x="782" 
d="M477 466v-142h220v-92h-220v-138h220v-94h-333v70h-179l-31 -70h-123l270 560h396v-94h-220zM364 163v294l-136 -294h136z" />
    <glyph glyph-name="Ecircumflex.smcp" horiz-adv-x="501" 
d="M199 466v-142h221v-92h-221v-138h221v-94h-334v560h334v-94h-221zM255 782l152 -122l-59 -66l-92 74l-91 -73l-60 65z" />
    <glyph glyph-name="Acircumflex.smcp" horiz-adv-x="557" 
d="M524 0h-122l-22 69h-204l-23 -69h-120l197 560h95zM205 162h145l-72 241zM278 788l152 -122l-60 -66l-91 74l-91 -73l-60 65z" />
    <glyph glyph-name="Oacute.smcp" horiz-adv-x="703" 
d="M351 -14q-69 0 -123 24.5t-92 65t-58 94t-20 110.5t20 110.5t58 94t92 65t123 24.5t123.5 -24.5t92.5 -65t58 -94t20 -110.5t-20 -110.5t-58 -94t-92.5 -65t-123.5 -24.5zM351 88q41 0 74 16t56 43t35 61.5t12 71.5t-12 71.5t-35 61.5t-56 43t-74 16t-73.5 -16t-55.5 -43
t-35 -61.5t-12 -71.5t12 -71.5t35 -61.5t55.5 -43t73.5 -16zM252 595l-40 77l211 106l40 -77z" />
    <glyph glyph-name="Ograve.smcp" horiz-adv-x="703" 
d="M351 -14q-69 0 -123 24.5t-92 65t-58 94t-20 110.5t20 110.5t58 94t92 65t123 24.5t123.5 -24.5t92.5 -65t58 -94t20 -110.5t-20 -110.5t-58 -94t-92.5 -65t-123.5 -24.5zM351 88q41 0 74 16t56 43t35 61.5t12 71.5t-12 71.5t-35 61.5t-56 43t-74 16t-73.5 -16t-55.5 -43
t-35 -61.5t-12 -71.5t12 -71.5t35 -61.5t55.5 -43t73.5 -16zM237 701l40 77l211 -106l-40 -77z" />
    <glyph glyph-name="Uacute.smcp" horiz-adv-x="579" 
d="M79 560h113v-370q0 -43 26.5 -74t70.5 -31q45 0 72 31t27 74v370h112v-371q0 -42 -14.5 -79t-42 -64.5t-66.5 -43.5t-88 -16q-48 0 -87 16t-66 43.5t-42 64.5t-15 79v371zM188 595l-40 77l211 106l40 -77z" />
    <glyph glyph-name="Ugrave.smcp" horiz-adv-x="579" 
d="M79 560h113v-370q0 -43 26.5 -74t70.5 -31q45 0 72 31t27 74v370h112v-371q0 -42 -14.5 -79t-42 -64.5t-66.5 -43.5t-88 -16q-48 0 -87 16t-66 43.5t-42 64.5t-15 79v371zM173 701l40 77l212 -106l-40 -77z" />
    <glyph glyph-name="Agrave.smcp" horiz-adv-x="557" 
d="M524 0h-122l-22 69h-204l-23 -69h-120l197 560h95zM205 162h145l-72 241zM167 700l40 77l211 -106l-40 -77z" />
    <glyph glyph-name="Atilde.smcp" horiz-adv-x="557" 
d="M524 0h-122l-22 69h-204l-23 -69h-120l197 560h95zM205 162h145l-72 241zM129 697q37 22 56 26t30 4q9 0 25 -3.5t34 -7.5t34 -7.5t24 -3.5q13 0 25 4t41 18l36 -64q-32 -26 -56 -31t-35 -5q-9 0 -25.5 3t-34 7t-33 7t-23.5 3q-17 0 -30.5 -5t-28.5 -11z" />
    <glyph glyph-name="Otilde.smcp" horiz-adv-x="703" 
d="M351 -14q-69 0 -123 24.5t-92 65t-58 94t-20 110.5t20 110.5t58 94t92 65t123 24.5t123.5 -24.5t92.5 -65t58 -94t20 -110.5t-20 -110.5t-58 -94t-92.5 -65t-123.5 -24.5zM351 88q41 0 74 16t56 43t35 61.5t12 71.5t-12 71.5t-35 61.5t-56 43t-74 16t-73.5 -16t-55.5 -43
t-35 -61.5t-12 -71.5t12 -71.5t35 -61.5t55.5 -43t73.5 -16zM199 697q37 22 55.5 26t29.5 4q9 0 25.5 -3.5t34 -7.5t33.5 -7.5t24 -3.5q14 0 26 4t41 18l35 -64q-32 -26 -55.5 -31t-34.5 -5q-9 0 -25.5 3t-34 7t-33.5 7t-24 3q-17 0 -30 -5t-28 -11z" />
    <glyph glyph-name="Scaron.smcp" horiz-adv-x="532" 
d="M175 185q0 -51 27 -78t71 -27q35 0 58.5 20t23.5 53q0 19 -7.5 32t-20 22.5t-28.5 16t-32 12.5q-39 14 -73 28t-59.5 34.5t-40.5 49t-15 70.5q0 37 15.5 66t42 49t60.5 30.5t71 10.5q44 0 79 -13.5t59 -37.5t37 -56.5t13 -69.5h-113q0 39 -20 62.5t-56 23.5
q-31 0 -53 -15.5t-22 -47.5q0 -31 23.5 -48.5t56.5 -29.5q34 -12 68.5 -26t62.5 -34t46 -48.5t18 -69.5q0 -43 -15.5 -76.5t-42.5 -56t-64 -34t-80 -11.5q-42 0 -79 13t-64.5 38.5t-43.5 62.5t-16 85h113zM131 727l53 66l84 -78l85 78l54 -66l-139 -121z" />
    <glyph glyph-name="Yacute.smcp" horiz-adv-x="559" 
d="M257 0h-125l108 217l-204 343h131l133 -229l110 229h125zM226 594l-40 77l211 106l40 -77z" />
    <glyph glyph-name="OE.smcp" horiz-adv-x="943" 
d="M642 466v-142h220v-92h-220v-138h220v-94h-333v64q-11 -16 -26 -30t-36 -25t-49.5 -17.5t-66.5 -6.5q-69 0 -123 24.5t-92 65t-58 94t-20 110.5t20 110t58 94t92 65.5t123 24.5q31 0 59 -6.5t51.5 -16.5t41 -22.5t26.5 -24.5v57h333v-94h-220zM351 86q41 0 74 16t56 43
t35 61.5t12 72.5q0 37 -12 71.5t-35 61.5t-56 43t-74 16t-73.5 -16t-55.5 -43t-35 -61.5t-12 -71.5q0 -38 12 -72.5t35 -61.5t55.5 -43t73.5 -16z" />
    <glyph glyph-name="Oslash.smcp" horiz-adv-x="703" 
d="M351 -14q-35 0 -70 8l-29 -68l-89 38l28 66q-64 40 -98.5 107t-34.5 143q0 57 20 110.5t58 94t92 65t123 24.5q18 0 35 -2t34 -5l32 75l91 -39l-32 -73q65 -41 99.5 -107.5t34.5 -142.5q0 -57 -20 -110.5t-58 -94t-92.5 -65t-123.5 -24.5zM351 88q41 0 74 16t56 43
t35 61.5t12 71.5q0 42 -16 80.5t-45 66.5l-145 -337q7 -2 14 -2h15zM175 280q0 -42 15.5 -81t44.5 -66l143 337q-7 1 -13.5 1.5t-13.5 0.5q-41 0 -73.5 -16t-55.5 -43t-35 -61.5t-12 -71.5z" />
    <glyph glyph-name="Igrave.smcp" horiz-adv-x="287" 
d="M86 560h115v-560h-115v560zM18 688l40 78l211 -106l-40 -77z" />
    <glyph glyph-name="Idieresis.smcp" horiz-adv-x="287" 
d="M86 560h115v-560h-115v560zM176 683q0 29 21 49.5t50 20.5t50 -20.5t21 -49.5t-21 -49.5t-50 -20.5t-50 20.5t-21 49.5zM-12 683q0 29 20.5 49.5t49.5 20.5q30 0 50.5 -20.5t20.5 -49.5t-20.5 -49.5t-50.5 -20.5q-29 0 -49.5 20.5t-20.5 49.5z" />
    <glyph glyph-name="Icircumflex.smcp" horiz-adv-x="287" 
d="M86 560h115v-560h-115v560zM143 782l152 -122l-59 -66l-92 74l-91 -73l-60 65z" />
    <glyph glyph-name="Iacute.smcp" horiz-adv-x="287" 
d="M86 560h115v-560h-115v560zM58 583l-40 77l211 105l40 -77z" />
    <glyph glyph-name="Zcaron.smcp" horiz-adv-x="546" 
d="M138 703l53 66l84 -78l85 78l54 -66l-139 -122zM62 560h444l-282 -463h276v-97h-458l281 463h-261v97z" />
    <glyph glyph-name="R.smcp" horiz-adv-x="567" 
d="M86 560h220q46 0 83 -16t63 -43.5t40.5 -64t14.5 -76.5q0 -60 -30 -108.5t-84 -72.5l111 -179h-130l-100 161h-75v-161h-113v560zM296 256q22 0 40 8.5t30.5 22.5t19.5 33t7 40q0 43 -26 74t-70 31h-98v-209h97z" />
    <glyph glyph-name="O.smcp" horiz-adv-x="703" 
d="M351 -14q-69 0 -123 24.5t-92 65t-58 94t-20 110.5t20 110.5t58 94t92 65t123 24.5t123.5 -24.5t92.5 -65t58 -94t20 -110.5t-20 -110.5t-58 -94t-92.5 -65t-123.5 -24.5zM351 88q41 0 74 16t56 43t35 61.5t12 71.5t-12 71.5t-35 61.5t-56 43t-74 16t-73.5 -16t-55.5 -43
t-35 -61.5t-12 -71.5t12 -71.5t35 -61.5t55.5 -43t73.5 -16z" />
    <glyph glyph-name="S.smcp" horiz-adv-x="532" 
d="M175 185q0 -51 27 -78t71 -27q35 0 58.5 20t23.5 53q0 19 -7.5 32t-20 22.5t-28.5 16t-32 12.5q-39 14 -73 28t-59.5 34.5t-40.5 49t-15 70.5q0 37 15.5 66t41 49t59.5 30.5t71 10.5q44 0 79.5 -13.5t60 -37.5t37.5 -56.5t13 -69.5h-113q0 39 -20 62.5t-56 23.5
q-31 0 -53 -15.5t-22 -47.5q0 -31 23.5 -48.5t56.5 -29.5q34 -12 68.5 -26t62.5 -34t46 -48.5t18 -69.5q0 -43 -15.5 -76.5t-42.5 -56t-64 -34t-80 -11.5q-42 0 -79 13t-64.5 38.5t-43.5 62.5t-16 85h113z" />
    <glyph glyph-name="Amacron.smcp" horiz-adv-x="557" 
d="M524 0h-122l-22 69h-204l-23 -69h-120l197 560h95zM205 162h145l-72 241zM423 638h-291v86h291v-86z" />
    <glyph glyph-name="Emacron.smcp" horiz-adv-x="501" 
d="M199 466v-142h221v-92h-221v-138h221v-94h-334v560h334v-94h-221zM396 638h-291v86h291v-86z" />
    <glyph glyph-name="Omacron.smcp" horiz-adv-x="703" 
d="M351 -14q-69 0 -123 24.5t-92 65t-58 94t-20 110.5t20 110.5t58 94t92 65t123 24.5t123.5 -24.5t92.5 -65t58 -94t20 -110.5t-20 -110.5t-58 -94t-92.5 -65t-123.5 -24.5zM351 88q41 0 74 16t56 43t35 61.5t12 71.5t-12 71.5t-35 61.5t-56 43t-74 16t-73.5 -16t-55.5 -43
t-35 -61.5t-12 -71.5t12 -71.5t35 -61.5t55.5 -43t73.5 -16zM497 638h-291v86h291v-86z" />
    <glyph glyph-name="Umacron.smcp" horiz-adv-x="579" 
d="M79 560h113v-370q0 -43 26.5 -74t70.5 -31q45 0 72 31t27 74v370h112v-371q0 -42 -14.5 -79t-42 -64.5t-66.5 -43.5t-88 -16q-48 0 -87 16t-66 43.5t-42 64.5t-15 79v371zM435 646h-291v86h291v-86z" />
    <glyph glyph-name="Imacron.smcp" horiz-adv-x="287" 
d="M85 560h116v-560h-116v560zM289 638h-291v86h291v-86z" />
    <glyph glyph-name="Dcroat.smcp" horiz-adv-x="630" 
d="M281 560q70 0 124 -23.5t91 -62.5t56.5 -89.5t19.5 -104.5t-19.5 -104.5t-56.5 -89.5t-91 -62.5t-124 -23.5h-195v237h-87v86h87v237h195zM290 237h-91v-138h79q42 0 75.5 15.5t56.5 40.5t35 57.5t12 67.5q0 34 -12 67t-35 58t-56.5 40.5t-75.5 15.5h-79v-138h91v-86z
" />
    <glyph glyph-name="Ecaron.smcp" horiz-adv-x="501" 
d="M199 466v-142h221v-92h-221v-138h221v-94h-334v560h334v-94h-221zM112 716l53 66l85 -78l85 78l53 -66l-138 -122z" />
    <glyph glyph-name="Dcaron.smcp" horiz-adv-x="630" 
d="M281 560q69 0 123.5 -23.5t91.5 -62.5t56.5 -89.5t19.5 -104.5t-19.5 -104.5t-56.5 -89.5t-91 -62.5t-124 -23.5h-195v560h195zM199 461v-362h78q43 0 76 15.5t56 40.5t35 57.5t12 67.5q0 34 -12 67t-35 58t-56 40.5t-76 15.5h-78zM163 716l53 66l85 -78l85 78l54 -66
l-139 -122z" />
    <glyph glyph-name="Ccaron.smcp" horiz-adv-x="686" 
d="M629 191q-9 -43 -32 -80.5t-58 -65t-81.5 -43.5t-101.5 -16q-70 0 -125 24t-93.5 64.5t-59 94t-20.5 112.5q0 57 20 110t57.5 93.5t91 65t121.5 24.5q64 0 113.5 -17.5t84.5 -48.5t56 -72t27 -87h-118q-10 53 -49.5 88.5t-104.5 35.5q-44 0 -78.5 -16t-58 -42.5
t-35.5 -61.5t-12 -72q0 -40 13 -75t37.5 -61.5t60 -42t81.5 -15.5q24 0 47 8t42 22t33.5 33t20.5 41h121zM205 718l53 66l84 -77l85 77l54 -66l-139 -121z" />
    <glyph glyph-name="Ccircumflex.smcp" horiz-adv-x="686" 
d="M629 191q-9 -43 -32 -80.5t-58 -65t-81.5 -43.5t-101.5 -16q-70 0 -125 24t-93.5 64.5t-59 94t-20.5 112.5q0 57 20 110t57.5 93.5t91 65t121.5 24.5q64 0 113.5 -17.5t84.5 -48.5t56 -72t27 -87h-118q-10 53 -49.5 88.5t-104.5 35.5q-44 0 -78.5 -16t-58 -42.5
t-35.5 -61.5t-12 -72q0 -40 13 -75t37.5 -61.5t60 -42t81.5 -15.5q24 0 47 8t42 22t33.5 33t20.5 41h121zM349 788l151 -121l-59 -66l-92 73l-91 -72l-60 65z" />
    <glyph glyph-name="AEacute.smcp" horiz-adv-x="782" 
d="M477 466v-142h220v-92h-220v-138h220v-94h-333v70h-179l-31 -70h-123l270 560h396v-94h-220zM364 163v294l-136 -294h136zM355 595l-40 77l211 106l40 -77z" />
    <glyph glyph-name="Cacute.smcp" horiz-adv-x="686" 
d="M629 191q-9 -43 -32 -80.5t-58 -65t-81.5 -43.5t-101.5 -16q-70 0 -125 24t-93.5 64.5t-59 94t-20.5 112.5q0 57 20 110t57.5 93.5t91 65t121.5 24.5q64 0 113.5 -17.5t84.5 -48.5t56 -72t27 -87h-118q-10 53 -49.5 88.5t-104.5 35.5q-44 0 -78.5 -16t-58 -42.5
t-35.5 -61.5t-12 -72q0 -40 13 -75t37.5 -61.5t60 -42t81.5 -15.5q24 0 47 8t42 22t33.5 33t20.5 41h121zM257 595l-40 77l212 106l40 -77z" />
    <glyph glyph-name="Hcircumflex.smcp" horiz-adv-x="608" 
d="M409 229h-210v-229h-113v560h113v-233h210v233h113v-560h-113v229zM304 782l151 -121l-60 -66l-91 74l-91 -73l-61 65z" />
    <glyph glyph-name="Nacute.smcp" horiz-adv-x="615" 
d="M417 180v380h112v-560h-119l-211 377v-377h-113v560h120zM222 595l-40 77l211 106l40 -77z" />
    <glyph glyph-name="Ncaron.smcp" horiz-adv-x="615" 
d="M417 180v380h112v-560h-119l-211 377v-377h-113v560h120zM170 716l53 66l84 -78l85 78l54 -66l-139 -122z" />
    <glyph glyph-name="Rcaron.smcp" horiz-adv-x="567" 
d="M86 560h220q46 0 83 -16t63 -43.5t40.5 -64t14.5 -76.5q0 -60 -30 -108.5t-84 -72.5l111 -179h-130l-100 161h-75v-161h-113v560zM199 465v-209h97q22 0 40 8.5t30.5 22.5t19.5 33t7 40q0 43 -26 74t-70 31h-98zM132 717l53 66l85 -77l85 77l53 -66l-138 -121z" />
    <glyph glyph-name="Lacute.smcp" horiz-adv-x="414" 
d="M364 99v-99h-278v560h112v-461h166zM58 595l-40 77l211 106l40 -77z" />
    <glyph glyph-name="Lcaron.smcp" horiz-adv-x="414" 
d="M364 99v-99h-278v560h112v-461h166zM3 716l53 66l84 -78l86 78l53 -66l-139 -122z" />
    <glyph glyph-name="Racute.smcp" horiz-adv-x="567" 
d="M86 560h220q46 0 83 -16t63 -43.5t40.5 -64t14.5 -76.5q0 -60 -30 -108.5t-84 -72.5l111 -179h-130l-100 161h-75v-161h-113v560zM199 465v-209h97q22 0 40 8.5t30.5 22.5t19.5 33t7 40q0 43 -26 74t-70 31h-98zM198 595l-40 77l211 106l40 -77z" />
    <glyph glyph-name="Sacute.smcp" horiz-adv-x="532" 
d="M175 185q0 -51 27 -78t71 -27q35 0 58.5 20t23.5 53q0 19 -7.5 32t-20 22.5t-28.5 16t-32 12.5q-39 14 -73 28t-59.5 34.5t-40.5 49t-15 70.5q0 37 15.5 66t41 49t59.5 30.5t71 10.5q44 0 79.5 -13.5t60 -37.5t37.5 -56.5t13 -69.5h-113q0 39 -20 62.5t-56 23.5
q-31 0 -53 -15.5t-22 -47.5q0 -31 23.5 -48.5t56.5 -29.5q34 -12 68.5 -26t62.5 -34t46 -48.5t18 -69.5q0 -43 -15.5 -76.5t-42.5 -56t-64 -34t-80 -11.5q-42 0 -79 13t-64.5 38.5t-43.5 62.5t-16 85h113zM180 595l-40 77l211 106l40 -77z" />
    <glyph glyph-name="Scircumflex.smcp" horiz-adv-x="532" 
d="M175 185q0 -51 27 -78t71 -27q35 0 58.5 20t23.5 53q0 19 -7.5 32t-20 22.5t-28.5 16t-32 12.5q-39 14 -73 28t-59.5 34.5t-40.5 49t-15 70.5q0 37 15.5 66t41 49t59.5 30.5t71 10.5q44 0 79.5 -13.5t60 -37.5t37.5 -56.5t13 -69.5h-113q0 39 -20 62.5t-56 23.5
q-31 0 -53 -15.5t-22 -47.5q0 -31 23.5 -48.5t56.5 -29.5q34 -12 68.5 -26t62.5 -34t46 -48.5t18 -69.5q0 -43 -15.5 -76.5t-42.5 -56t-64 -34t-80 -11.5q-42 0 -79 13t-64.5 38.5t-43.5 62.5t-16 85h113zM267 782l151 -121l-60 -66l-91 74l-91 -73l-60 65z" />
    <glyph glyph-name="Tcaron.smcp" horiz-adv-x="457" 
d="M172 461h-132v99h377v-99h-132v-461h-113v461zM90 717l53 66l85 -77l85 77l54 -66l-139 -121z" />
    <glyph glyph-name="Wgrave.smcp" horiz-adv-x="869" 
d="M435 373l-120 -373h-88l-196 560h119l121 -381l120 381h86l121 -381l121 381h119l-196 -560h-88zM309 701l40 77l211 -106l-40 -77z" />
    <glyph glyph-name="Wacute.smcp" horiz-adv-x="869" 
d="M435 373l-120 -373h-88l-196 560h119l121 -381l120 381h86l121 -381l121 381h119l-196 -560h-88zM349 595l-40 77l211 106l40 -77z" />
    <glyph glyph-name="Wcircumflex.smcp" horiz-adv-x="869" 
d="M435 373l-120 -373h-88l-196 560h119l121 -381l120 381h86l121 -381l121 381h119l-196 -560h-88zM434 782l151 -121l-59 -66l-92 74l-91 -73l-60 65z" />
    <glyph glyph-name="Ycircumflex.smcp" horiz-adv-x="559" 
d="M257 0h-125l108 217l-204 343h131l133 -229l110 229h125zM280 782l151 -121l-60 -66l-91 74l-91 -73l-60 65z" />
    <glyph glyph-name="Zacute.smcp" horiz-adv-x="546" 
d="M62 560h444l-282 -463h276v-97h-458l281 463h-261v97zM189 595l-40 77l211 106l40 -77z" />
    <glyph glyph-name="Eng.smcp" horiz-adv-x="615" 
d="M268 -64q17 -14 30 -24t36 -10q40 0 60.5 27t21.5 71l-217 377v-377h-113v560h113l218 -380v380h112v-555q0 -92 -50.5 -146.5t-144.5 -54.5q-44 0 -77 17t-57 45z" />
    <glyph glyph-name="Tcommaaccent.smcp" horiz-adv-x="457" 
d="M172 461h-132v99h377v-99h-132v-461h-113v461zM170 -71q0 24 17 41t40 17q29 0 46.5 -20.5t17.5 -52.5q0 -65 -31.5 -91.5t-86.5 -26.5v36q36 0 51.5 14.5t17.5 31.5q-2 -2 -6 -3.5t-9 -1.5q-26 0 -41.5 16.5t-15.5 39.5z" />
    <glyph glyph-name="uni021A.smcp" horiz-adv-x="457" 
d="M172 461h-132v99h377v-99h-132v-461h-113v461zM170 -71q0 24 17 41t40 17q29 0 46.5 -20.5t17.5 -52.5q0 -65 -31.5 -91.5t-86.5 -26.5v36q36 0 51.5 14.5t17.5 31.5q-2 -2 -6 -3.5t-9 -1.5q-26 0 -41.5 16.5t-15.5 39.5z" />
    <glyph glyph-name="Gcommaaccent.smcp" horiz-adv-x="729" 
d="M404 289h280v-90h-60q-9 -47 -30.5 -86.5t-56 -67.5t-82 -43.5t-106.5 -15.5q-70 0 -124 24t-91 64.5t-56.5 94t-19.5 111.5q0 57 20 110t58 94t91.5 65.5t121.5 24.5q52 0 96.5 -15t77 -41t52.5 -60t23 -73h-118q-6 36 -41.5 63t-89.5 27q-42 0 -74.5 -16.5t-55 -43.5
t-34.5 -62.5t-12 -73.5q0 -39 11.5 -74.5t34.5 -62.5t58.5 -43t82.5 -16q32 0 57.5 9.5t44.5 25.5t30 37t15 44h-103v90zM293 -79q0 24 17 40.5t40 16.5q29 0 46.5 -20.5t17.5 -52.5q0 -65 -31 -91t-87 -27v36q36 0 51.5 14.5t17.5 31.5q-4 -4 -15 -4q-26 0 -41.5 16.5
t-15.5 39.5z" />
    <glyph glyph-name="Kcommaaccent.smcp" horiz-adv-x="568" 
d="M392 0l-193 241v-241h-113v560h113v-242l193 242h137l-228 -280l228 -280h-137zM229 -71q0 24 16.5 41t39.5 17q29 0 46.5 -20.5t17.5 -52.5q0 -65 -31.5 -91.5t-86.5 -26.5v36q37 0 52 14.5t17 31.5q-2 -2 -6 -3.5t-9 -1.5q-26 0 -41 16.5t-15 39.5z" />
    <glyph glyph-name="Lcommaaccent.smcp" horiz-adv-x="414" 
d="M86 560h113v-461h165v-99h-278v560zM147 -71q0 24 16.5 41t39.5 17q29 0 46.5 -20.5t17.5 -52.5q0 -65 -31.5 -91.5t-86.5 -26.5v36q37 0 52 14.5t17 31.5q-2 -2 -6 -3.5t-9 -1.5q-26 0 -41 16.5t-15 39.5z" />
    <glyph glyph-name="Ncommaaccent.smcp" horiz-adv-x="615" 
d="M410 0l-211 377v-377h-113v560h120l211 -380v380h112v-560h-119zM247 -71q0 24 16.5 41t39.5 17q29 0 47 -20.5t18 -52.5q0 -65 -31.5 -91.5t-86.5 -26.5v36q36 0 51 14.5t17 31.5q-3 -5 -15 -5q-26 0 -41 16.5t-15 39.5z" />
    <glyph glyph-name="Rcommaaccent.smcp" horiz-adv-x="567" 
d="M86 560h220q46 0 83 -16t63 -43.5t40.5 -64t14.5 -76.5q0 -60 -30 -108.5t-84 -72.5l111 -179h-130l-100 161h-75v-161h-113v560zM199 465v-209h97q22 0 40 8.5t30.5 22.5t19.5 33t7 40q0 43 -26 74t-70 31h-98zM223 -71q0 24 17 41t40 17q29 0 46.5 -20.5t17.5 -52.5
q0 -65 -31.5 -91.5t-86.5 -26.5v36q36 0 51.5 14.5t17.5 31.5q-2 -2 -6 -3.5t-9 -1.5q-26 0 -41.5 16.5t-15.5 39.5z" />
    <glyph glyph-name="Scommaaccent.smcp" horiz-adv-x="532" 
d="M175 185q0 -51 27 -78t71 -27q35 0 58.5 20t23.5 53q0 19 -7.5 32t-20 22.5t-28.5 16t-32 12.5q-39 14 -73 28t-59.5 34.5t-40.5 49t-15 70.5q0 37 15.5 66t41 49t59.5 30.5t71 10.5q44 0 79.5 -13.5t60 -37.5t37.5 -56.5t13 -69.5h-113q0 39 -20 62.5t-56 23.5
q-31 0 -53 -15.5t-22 -47.5q0 -31 23.5 -48.5t56.5 -29.5q34 -12 68.5 -26t62.5 -34t46 -48.5t18 -69.5q0 -43 -15.5 -76.5t-42.5 -56t-64 -34t-80 -11.5q-42 0 -79 13t-64.5 38.5t-43.5 62.5t-16 85h113zM207 -79q0 24 16.5 40.5t39.5 16.5q29 0 47 -20.5t18 -52.5
q0 -65 -31.5 -91t-86.5 -27v36q36 0 51 14.5t17 31.5q-1 -2 -5.5 -3t-9.5 -1q-26 0 -41 16.5t-15 39.5z" />
    <glyph glyph-name="Ygrave.smcp" horiz-adv-x="559" 
d="M257 0h-125l108 217l-204 343h131l133 -229l110 229h125zM154 701l40 77l211 -106l-40 -77z" />
    <glyph glyph-name="Idotaccent.smcp" horiz-adv-x="287" 
d="M86 560h115v-560h-115v560zM73 690q0 29 20.5 50t49.5 21q30 0 50.5 -21t20.5 -50t-20.5 -49.5t-50.5 -20.5q-29 0 -49.5 20.5t-20.5 49.5z" />
    <glyph glyph-name="Jcircumflex.smcp" horiz-adv-x="510" 
d="M429 188q0 -92 -50.5 -147t-144.5 -55q-48 0 -84 16t-60.5 43t-37 64t-12.5 79h113q0 -45 20 -74t61 -29t62 27.5t21 75.5v372h112v-372zM373 782l151 -122l-60 -66l-91 74l-91 -73l-60 65z" />
    <glyph glyph-name="IJ.smcp" horiz-adv-x="737" 
d="M656 188q0 -92 -51 -147t-144 -55q-48 0 -84 16t-60.5 43t-37 64t-12.5 79h112q0 -45 20 -74t62 -29q41 0 61.5 27.5t20.5 75.5v372h113v-372zM86 560h115v-560h-115v560z" />
    <glyph glyph-name="Ldot.smcp" horiz-adv-x="426" 
d="M364 99v-99h-278v560h113v-461h165zM252 257q0 31 21.5 52.5t52.5 21.5t52.5 -21.5t21.5 -52.5q0 -30 -21.5 -51t-52.5 -21t-52.5 21t-21.5 51z" />
    <glyph glyph-name="Cdotaccent.smcp" horiz-adv-x="686" 
d="M629 191q-9 -43 -32 -80.5t-58 -65t-81.5 -43.5t-101.5 -16q-70 0 -125 24t-93.5 64.5t-59 94t-20.5 112.5q0 57 20 110t57.5 93.5t91 65t121.5 24.5q64 0 113.5 -17.5t84.5 -48.5t56 -72t27 -87h-118q-10 53 -49.5 88.5t-104.5 35.5q-44 0 -78.5 -16t-58 -42.5
t-35.5 -61.5t-12 -72q0 -40 13 -75t37.5 -61.5t60 -42t81.5 -15.5q24 0 47 8t42 22t33.5 33t20.5 41h121zM277 690q0 29 21 50t50 21t50 -21t21 -50t-21 -49.5t-50 -20.5t-50 20.5t-21 49.5z" />
    <glyph glyph-name="Edotaccent.smcp" horiz-adv-x="501" 
d="M199 466v-142h221v-92h-221v-138h221v-94h-334v560h334v-94h-221zM180 690q0 29 20.5 50t49.5 21q30 0 50.5 -21t20.5 -50t-20.5 -49.5t-50.5 -20.5q-29 0 -49.5 20.5t-20.5 49.5z" />
    <glyph glyph-name="Gdotaccent.smcp" horiz-adv-x="729" 
d="M404 289h280v-90h-60q-9 -47 -30.5 -86.5t-56 -67.5t-82 -43.5t-106.5 -15.5q-70 0 -124 24t-91 64.5t-56.5 94t-19.5 111.5q0 57 20 110t58 94t91.5 65.5t121.5 24.5q52 0 96.5 -15t77 -41t52.5 -60t23 -73h-118q-6 36 -41.5 63t-89.5 27q-42 0 -74.5 -16.5t-55 -43.5
t-34.5 -62.5t-12 -73.5q0 -39 11.5 -74.5t34.5 -62.5t58.5 -43t82.5 -16q32 0 57.5 9.5t44.5 25.5t30 37t15 44h-103v90zM279 690q0 29 20.5 50t49.5 21q30 0 50.5 -21t20.5 -50t-20.5 -49.5t-50.5 -20.5q-29 0 -49.5 20.5t-20.5 49.5z" />
    <glyph glyph-name="Gcircumflex.smcp" horiz-adv-x="729" 
d="M404 289h280v-90h-60q-9 -47 -30.5 -86.5t-56 -67.5t-82 -43.5t-106.5 -15.5q-70 0 -124 24t-91 64.5t-56.5 94t-19.5 111.5q0 57 20 110t58 94t91.5 65.5t121.5 24.5q52 0 96.5 -15t77 -41t52.5 -60t23 -73h-118q-6 36 -41.5 63t-89.5 27q-42 0 -74.5 -16.5t-55 -43.5
t-34.5 -62.5t-12 -73.5q0 -39 11.5 -74.5t34.5 -62.5t58.5 -43t82.5 -16q32 0 57.5 9.5t44.5 25.5t30 37t15 44h-103v90zM349 784l152 -121l-60 -66l-92 74l-91 -73l-60 65z" />
    <glyph glyph-name="Wdieresis.smcp" horiz-adv-x="869" 
d="M435 373l-120 -373h-88l-196 560h119l121 -381l120 381h86l121 -381l121 381h119l-196 -560h-88zM460 693q0 28 19.5 48t48.5 20t48.5 -20t19.5 -48t-19.5 -48t-48.5 -20t-48.5 20t-19.5 48zM272 693q0 28 19.5 48t47.5 20q29 0 49 -20t20 -48t-20 -48t-49 -20
q-28 0 -47.5 20t-19.5 48z" />
    <glyph glyph-name="Zdotaccent.smcp" horiz-adv-x="546" 
d="M62 560h444l-282 -463h276v-97h-458l281 463h-261v97zM203 690q0 29 21 50t50 21t50 -21t21 -50t-21 -49.5t-50 -20.5t-50 20.5t-21 49.5z" />
    <glyph glyph-name="Aogonek.smcp" horiz-adv-x="557" 
d="M511 -158q-14 -5 -33.5 -8.5t-41.5 -3.5q-49 0 -73 23t-24 55q0 26 15.5 47.5t47.5 44.5l-22 69h-204l-23 -69h-120l197 560h95l199 -560h-49q-17 -11 -31 -25t-14 -37q0 -17 9.5 -30t27.5 -13q9 0 21 2.5t23 7.5v-63zM205 162h145l-72 241z" />
    <glyph glyph-name="Eogonek.smcp" horiz-adv-x="500" 
d="M455 -158q-14 -5 -33 -8.5t-41 -3.5q-49 0 -73 23t-24 55q0 26 15.5 47.5t47.5 44.5h-261v560h334v-94h-221v-142h221v-92h-221v-138h221v-94q-17 -11 -31 -25t-14 -37q0 -17 9.5 -30t27.5 -13q9 0 21 2.5t23 7.5z" />
    <glyph glyph-name="Iogonek.smcp" horiz-adv-x="287" 
d="M160 0q-17 -11 -31 -25t-14 -37q0 -17 9.5 -30t27.5 -13q9 0 21 2.5t23 7.5v-63q-14 -5 -33.5 -8.5t-41.5 -3.5q-49 0 -73 23t-24 55q0 26 15 47.5t47 44.5v560h115v-560h-41v0z" />
    <glyph glyph-name="Uogonek.smcp" horiz-adv-x="579" 
d="M370 -158q-14 -5 -33.5 -8.5t-41.5 -3.5q-49 0 -73 23t-24 55q0 23 12 42t37 39q-39 6 -70 24.5t-52.5 45t-33.5 60t-12 70.5v371h113v-370q0 -43 26.5 -74t70.5 -31q45 0 72 31t27 74v370h112v-371q0 -39 -12.5 -73.5t-36.5 -61.5t-58 -44.5t-76 -21.5q-12 -9 -20 -21
t-8 -29t10 -30t27 -13q22 0 45 10z" />
    <glyph glyph-name="Scedilla.smcp" horiz-adv-x="532" 
d="M175 185q0 -51 27 -78t71 -27q35 0 58.5 20t23.5 53q0 19 -7.5 32t-20 22.5t-28.5 16t-32 12.5q-39 14 -73 28t-59.5 34.5t-40.5 49t-15 70.5q0 37 15.5 66t41 49t59.5 30.5t71 10.5q44 0 79.5 -13.5t60 -37.5t37.5 -56.5t13 -69.5h-113q0 39 -20 62.5t-56 23.5
q-31 0 -53 -15.5t-22 -47.5q0 -31 23.5 -48.5t56.5 -29.5q34 -12 68.5 -26t62.5 -34t46 -48.5t18 -69.5q0 -79 -48.5 -123.5t-123.5 -52.5v-37q11 11 32 11q24 0 44.5 -19t20.5 -51q0 -15 -5.5 -29t-16 -25t-26.5 -18t-37 -7q-8 0 -21 2.5t-26 10t-23.5 22t-13.5 37.5h56
q6 -24 28 -24q13 0 21 8.5t8 22.5q0 13 -8.5 20.5t-19.5 7.5q-17 0 -24 -13h-48v81q-37 4 -69 19.5t-55 40t-36.5 59t-13.5 78.5h113z" />
    <glyph glyph-name="Itilde.smcp" horiz-adv-x="287" 
d="M86 560h115v-560h-115v560zM-9 697q37 22 56 26t30 4q9 0 25 -3.5t33.5 -7.5t33.5 -7.5t24 -3.5q14 0 26 4t41 18l36 -64q-33 -26 -56.5 -31t-34.5 -5q-9 0 -25.5 3t-34 7t-33.5 7t-24 3q-17 0 -30 -5t-28 -11z" />
    <glyph glyph-name="Ibreve.smcp" horiz-adv-x="287" 
d="M86 560h115v-560h-115v560zM64 726q9 -22 28.5 -35t51.5 -13q31 0 51 14t28 34h92q-4 -29 -19.5 -53.5t-38.5 -42t-52.5 -27t-60.5 -9.5q-32 0 -60.5 10t-51.5 27.5t-38.5 41.5t-20.5 53h91z" />
    <glyph glyph-name="Abreve.smcp" horiz-adv-x="557" 
d="M524 0h-122l-22 69h-204l-23 -69h-120l197 560h95zM205 162h145l-72 241zM198 726q10 -22 29 -35t51 -13q31 0 51 14t28 34h92q-4 -29 -19.5 -53.5t-38.5 -42t-52 -27t-61 -9.5t-60.5 10t-51.5 27.5t-38.5 41.5t-20.5 53h91z" />
    <glyph glyph-name="Ebreve.smcp" horiz-adv-x="501" 
d="M199 466v-142h220v-92h-220v-138h220v-94h-333v560h333v-94h-220zM171 725q9 -22 28.5 -35t51.5 -13q31 0 51 14t28 34h92q-4 -29 -19.5 -53.5t-38.5 -42t-52.5 -27t-60.5 -9.5q-32 0 -60.5 10t-51.5 27.5t-38.5 41.5t-20.5 53h91z" />
    <glyph glyph-name="Ubreve.smcp" horiz-adv-x="579" 
d="M79 560h113v-370q0 -43 26.5 -74t70.5 -31q45 0 72 31t27 74v370h112v-371q0 -42 -14.5 -79t-42 -64.5t-66.5 -43.5t-88 -16q-48 0 -87 16t-66 43.5t-42 64.5t-15 79v371zM210 727q9 -22 28.5 -35t51.5 -13q31 0 51 14t28 34h91q-4 -29 -19 -53.5t-38 -42t-52.5 -27
t-60.5 -9.5q-32 0 -61 10t-51.5 27.5t-38 41.5t-20.5 53h91z" />
    <glyph glyph-name="Obreve.smcp" horiz-adv-x="703" 
d="M351 -14q-69 0 -123 24.5t-92 65t-58 94t-20 110.5t20 110.5t58 94t92 65t123 24.5t123.5 -24.5t92.5 -65t58 -94t20 -110.5t-20 -110.5t-58 -94t-92.5 -65t-123.5 -24.5zM351 88q41 0 74 16t56 43t35 61.5t12 71.5t-12 71.5t-35 61.5t-56 43t-74 16t-73.5 -16t-55.5 -43
t-35 -61.5t-12 -71.5t12 -71.5t35 -61.5t55.5 -43t73.5 -16zM271 725q10 -22 29 -35t51 -13t51.5 14t28.5 34h91q-4 -29 -19 -53.5t-38.5 -42t-52.5 -27t-61 -9.5t-60.5 10t-51.5 27.5t-38 41.5t-20 53h90z" />
    <glyph glyph-name="Gbreve.smcp" horiz-adv-x="729" 
d="M404 289h280v-90h-60q-9 -47 -30.5 -86.5t-56 -67.5t-82 -43.5t-106.5 -15.5q-70 0 -124 24t-91 64.5t-56.5 94t-19.5 111.5q0 57 20 110t58 94t91.5 65.5t121.5 24.5q52 0 96.5 -15t77 -41t52.5 -60t23 -73h-118q-6 36 -41.5 63t-89.5 27q-42 0 -74.5 -16.5t-55 -43.5
t-34.5 -62.5t-12 -73.5q0 -39 11.5 -74.5t34.5 -62.5t58.5 -43t82.5 -16q32 0 57.5 9.5t44.5 25.5t30 37t15 44h-103v90zM269 727q9 -23 28.5 -35.5t51.5 -12.5q31 0 51 13.5t28 34.5h92q-4 -29 -19.5 -53.5t-38.5 -42t-52.5 -27t-60.5 -9.5q-32 0 -60.5 9.5t-51.5 27
t-38.5 42t-20.5 53.5h91z" />
    <glyph glyph-name="Uring.smcp" horiz-adv-x="579" 
d="M79 560h113v-370q0 -43 26.5 -74t70.5 -31q45 0 72 31t27 74v370h112v-371q0 -42 -14.5 -79t-42 -64.5t-66.5 -43.5t-88 -16q-48 0 -87 16t-66 43.5t-42 64.5t-15 79v371zM290 789q21 0 40 -8.5t33 -22.5t22 -33t8 -40t-8 -39.5t-22 -33t-33 -22.5t-40 -8q-22 0 -41 8
t-33 22.5t-22 33t-8 39.5t8 40t22 33.5t33 22.5t41 8zM290 722q-16 0 -26 -11t-10 -26q0 -14 10.5 -24t25.5 -10q14 0 24.5 10.5t10.5 24.5t-10 25t-25 11z" />
    <glyph glyph-name="Utilde.smcp" horiz-adv-x="579" 
d="M79 560h113v-370q0 -43 26.5 -74t70.5 -31q45 0 72 31t27 74v370h112v-371q0 -42 -14.5 -79t-42 -64.5t-66.5 -43.5t-88 -16q-48 0 -87 16t-66 43.5t-42 64.5t-15 79v371zM137 697q37 22 55.5 26t29.5 4q9 0 25.5 -3.5t34 -7.5t33.5 -7.5t24 -3.5q14 0 26 4t41 18l36 -64
q-33 -26 -56.5 -31t-34.5 -5q-9 0 -25.5 3t-34 7t-33.5 7t-24 3q-17 0 -30 -5t-28 -11z" />
    <glyph glyph-name="Uhungarumlaut.smcp" horiz-adv-x="579" 
d="M79 560h113v-370q0 -43 26.5 -74t70.5 -31q45 0 72 31t27 74v370h112v-371q0 -42 -14.5 -79t-42 -64.5t-66.5 -43.5t-88 -16q-48 0 -87 16t-66 43.5t-42 64.5t-15 79v371zM404 779l82 -45l-136 -116l-46 22zM248 779l82 -45l-136 -116l-46 22z" />
    <glyph glyph-name="Ohungarumlaut.smcp" horiz-adv-x="703" 
d="M351 -14q-69 0 -123 24.5t-92 65t-58 94t-20 110.5t20 110.5t58 94t92 65t123 24.5t123.5 -24.5t92.5 -65t58 -94t20 -110.5t-20 -110.5t-58 -94t-92.5 -65t-123.5 -24.5zM351 88q41 0 74 16t56 43t35 61.5t12 71.5t-12 71.5t-35 61.5t-56 43t-74 16t-73.5 -16t-55.5 -43
t-35 -61.5t-12 -71.5t12 -71.5t35 -61.5t55.5 -43t73.5 -16zM456 779l82 -45l-136 -116l-46 22zM300 779l82 -45l-136 -116l-46 22z" />
    <glyph glyph-name="Hbar.smcp" horiz-adv-x="606" 
d="M199 560v-82h210v82h113v-560h-113v229h-210v-229h-113v560h113zM409 402h-210v-75h210v75z" />
    <glyph glyph-name="Oslashacute.smcp" horiz-adv-x="703" 
d="M351 -14q-35 0 -70 8l-29 -68l-89 38l28 66q-64 40 -98.5 107t-34.5 143q0 57 20 110.5t58 94t92 65t123 24.5q18 0 35 -2t34 -5l32 75l91 -39l-32 -73q65 -41 99.5 -107.5t34.5 -142.5q0 -57 -20 -110.5t-58 -94t-92.5 -65t-123.5 -24.5zM351 88q41 0 74 16t56 43
t35 61.5t12 71.5q0 42 -16 80.5t-45 66.5l-145 -337q7 -2 14 -2h15zM175 280q0 -42 15.5 -81t44.5 -66l143 337q-7 1 -13.5 1.5t-13.5 0.5q-41 0 -73.5 -16t-55.5 -43t-35 -61.5t-12 -71.5zM265 595l-40 77l212 106l40 -77z" />
    <glyph glyph-name="Tbar.smcp" horiz-adv-x="457" 
d="M374 302h-89v-302h-113v302h-89v85h89v74h-132v99h377v-99h-132v-74h89v-85z" />
    <glyph glyph-name="Aringacute.smcp" horiz-adv-x="557" 
d="M402 0l-22 69h-204l-23 -69h-120l197 559h7q-10 8 -16 19.5t-6 25.5q0 26 18 43.5t44 17.5q25 0 43 -18t18 -43q0 -7 -3 -14t-7 -13q-4 -7 -10 -15q0 -2 3 -2h4l199 -560h-122zM278 403l-73 -241h145zM184 637l-26 48l194 99l25 -47zM277 626q-9 0 -15 -6.5t-6 -15.5
q0 -8 6 -14t15 -6q8 0 14 6.5t6 14.5t-5.5 14.5t-14.5 6.5z" />
    <glyph glyph-name="Thorn.smcp" horiz-adv-x="478" 
d="M187 462h40q48 0 85.5 -15.5t63 -41.5t38.5 -59.5t13 -69.5t-13 -69.5t-38.5 -59.5t-63 -41.5t-85.5 -15.5h-40v-90h-103v560h103v-98zM187 178h40q23 0 41 8.5t30.5 22t19 31t6.5 36.5t-6.5 36.5t-19 31t-30.5 22t-41 8.5h-40v-196z" />
    <glyph glyph-name="slash.smcp" horiz-adv-x="440" 
d="M318 649l100 -42l-286 -664l-99 43z" />
    <glyph glyph-name="backslash.smcp" horiz-adv-x="440" 
d="M413 -14l-100 -43l-285 664l99 42z" />
    <glyph glyph-name="bracketleft.smcp" horiz-adv-x="357" 
d="M86 -182v809h186v-93h-79v-623h79v-93h-186z" />
    <glyph glyph-name="bracketright.smcp" horiz-adv-x="357" 
d="M85 -182v93h80v622h-80v94h186v-809h-186z" />
    <glyph glyph-name="question.smcp" horiz-adv-x="482" 
d="M170 164q0 26 3 47t10.5 39t20 33.5t33.5 30.5q12 8 24.5 18t23 22t17.5 26.5t7 32.5q0 35 -21 51t-54 16q-30 0 -52.5 -20t-22.5 -66h-112q0 40 13.5 72.5t38 56t59 36t76.5 12.5q37 0 71 -10.5t59.5 -30.5t40.5 -49.5t15 -67.5q0 -29 -9 -51.5t-22.5 -39.5t-28 -29.5
t-25.5 -21.5q-17 -14 -28 -24.5t-17 -21.5t-8 -25.5t-2 -35.5h-110zM149 63q0 31 22 53t54 22t54.5 -22t22.5 -53q0 -32 -22.5 -54t-54.5 -22t-54 22t-22 54z" />
    <glyph glyph-name="ampersand.smcp" horiz-adv-x="554" 
d="M303 278h204v-92h-40q0 -45 -15.5 -81.5t-42.5 -62t-64.5 -39.5t-81.5 -14q-37 0 -73 11.5t-64 33.5t-45.5 55t-17.5 75q0 49 26.5 78.5t64.5 49.5q-35 17 -57.5 45t-22.5 79q0 37 15.5 66t41 48.5t59 30t70.5 10.5q46 0 81 -13.5t59 -37.5t36.5 -56.5t12.5 -69.5h-113
q0 38 -17 62t-62 24q-31 0 -51 -16.5t-20 -49.5q0 -32 17.5 -53.5t68.5 -21.5v-92q-54 0 -75 -24t-21 -62q0 -15 6 -29t17.5 -25t28 -17.5t37.5 -6.5q18 0 34 7t28.5 20t20.5 32.5t8 43.5h-53v92z" />
    <glyph glyph-name="parenleft.smcp" horiz-adv-x="375" 
d="M315 529q-48 0 -75.5 -33t-27.5 -79v-397q0 -46 27.5 -79t75.5 -33v-98q-49 0 -88.5 17t-67.5 45.5t-43 67t-15 80.5v397q0 42 15 80.5t43 67t67.5 45.5t88.5 17v-98z" />
    <glyph glyph-name="parenright.smcp" horiz-adv-x="375" 
d="M60 627q49 0 88.5 -17t67.5 -45.5t43 -67t15 -80.5v-397q0 -42 -15 -80.5t-43 -67t-67.5 -45.5t-88.5 -17v98q24 0 43 9t32.5 24t21 35.5t7.5 43.5v397q0 23 -7.5 43.5t-21 35.5t-32.5 24t-43 9v98z" />
    <glyph glyph-name="germandbls.smcp" horiz-adv-x="525" 
d="M214 86q14 -3 30 -5t24 -2q16 0 31.5 5.5t28 16t20 26.5t7.5 38q0 13 -5 27.5t-15.5 27t-28 21t-41.5 8.5h-26v88h24q45 0 63 23t18 54q0 32 -23.5 51t-55.5 19q-35 0 -56.5 -25t-21.5 -65v-394h-109v394q0 37 12 69.5t35.5 56.5t58.5 37.5t81 13.5q37 0 71 -10.5t60 -30
t41.5 -48.5t15.5 -66q0 -51 -24.5 -80.5t-60.5 -43.5q19 -7 36.5 -19.5t30.5 -29.5t21 -38t8 -46q0 -43 -15.5 -75t-41 -53t-58 -31t-67.5 -10q-23 0 -40.5 3t-27.5 7v86z" />
    <glyph glyph-name="bar.smcp" horiz-adv-x="279" 
d="M86 -156v783h107v-783h-107z" />
    <glyph glyph-name="braceleft.smcp" horiz-adv-x="435" 
d="M347 627v-84h-34q-15 0 -25 -6t-15 -15t-7 -20t-2 -22v-174q0 -26 -9 -43t-22 -27.5t-26.5 -15t-22.5 -5.5q9 -2 22.5 -6t26.5 -14.5t22 -29t9 -48.5v-153q0 -11 2 -22t7 -20t15 -15t25 -6h34v-83h-70q-24 0 -45.5 7.5t-38.5 22.5t-27 37.5t-10 52.5v159q0 20 -7 33.5
t-18 22t-23.5 12t-22.5 3.5v92q10 0 22.5 3.5t23.5 11t18 20.5t7 31v180q0 30 10 52.5t27 38t38.5 23t45.5 7.5h70z" />
    <glyph glyph-name="braceright.smcp" horiz-adv-x="435" 
d="M158 627q24 0 46 -7.5t38.5 -23t26.5 -38t10 -52.5v-180q0 -18 7 -31t18 -20.5t23 -11t23 -3.5v-92q-11 0 -23 -3.5t-23 -12t-18 -22t-7 -33.5v-159q0 -30 -10 -52.5t-26.5 -37.5t-38.5 -22.5t-46 -7.5h-70v83h34q15 0 25 6t15.5 15t7.5 20t2 22v153q0 30 9 48.5t21.5 29
t26 14.5t22.5 6q-9 1 -22.5 5.5t-26 15t-21.5 27.5t-9 43v174q0 11 -2 22t-7.5 20t-15.5 15t-25 6h-34v84h70z" />
    <glyph glyph-name="questiondown.smcp" horiz-adv-x="482" 
d="M312 397q0 -26 -2.5 -47t-10 -39t-20 -33.5t-33.5 -30.5q-12 -8 -24.5 -18t-23.5 -22t-18 -26.5t-7 -32.5q0 -35 21.5 -51t53.5 -16q31 0 53 20t22 66h112q0 -40 -13.5 -72.5t-38 -56t-59 -36t-76.5 -12.5q-38 0 -71.5 10.5t-59 30.5t-40.5 49.5t-15 67.5q0 29 9.5 51.5
t23 39.5t28 29.5t25.5 21.5q17 14 27.5 24.5t16.5 21.5t8 25.5t2 35.5h110zM333 498q0 -31 -22 -53t-54 -22t-54 22t-22 53t22 53.5t54 22.5t54 -22.5t22 -53.5z" />
    <glyph glyph-name="brokenbar.smcp" horiz-adv-x="350" 
d="M86 285v342h107v-342h-107zM193 188v-344h-107v344h107z" />
    <glyph glyph-name="exclam.smcp" horiz-adv-x="320" 
d="M103 560h115v-373h-115v373zM84 63q0 31 22 53t54 22t54 -22t22 -53q0 -32 -22 -54t-54 -22t-54 22t-22 54z" />
    <glyph glyph-name="exclamdown.smcp" horiz-adv-x="319" 
d="M104 368h115v-370h-115v370zM87 494q0 30 21.5 52t52.5 22t52.5 -22t21.5 -52t-21.5 -52t-52.5 -22t-52.5 22t-21.5 52z" />
    <glyph glyph-name="ordfeminine.smcp" horiz-adv-x="557" 
d="M472 380v-380h-107v53q-15 -27 -48.5 -45t-68.5 -18q-42 0 -77 15.5t-59.5 42.5t-38.5 63.5t-14 78.5t14 78t38.5 63t59.5 42.5t77 15.5q35 0 68.5 -17.5t48.5 -44.5v53h107zM265 83q23 0 41.5 8.5t31.5 23t20 34t7 41.5t-7 41.5t-20 34t-31.5 23t-41.5 8.5t-41 -8.5
t-31 -23t-20 -34t-7 -41.5t7 -41.5t20 -34t31 -23t41 -8.5z" />
    <glyph glyph-name="ordmasculine.smcp" horiz-adv-x="529" 
d="M264 -10q-48 0 -86 16t-64.5 43.5t-41 63.5t-14.5 77q0 40 14.5 76.5t41 64t64.5 43.5t86 16t86.5 -16t65 -43.5t41 -64t14.5 -76.5q0 -41 -14.5 -77t-41 -63.5t-65 -43.5t-86.5 -16zM264 83q46 0 73 31t27 76q0 22 -7 41.5t-20 34t-31.5 23t-41.5 8.5t-41 -8.5t-31 -23
t-20 -34t-7 -41.5t7 -41.5t20 -34t31 -23t41 -8.5z" />
    <glyph glyph-name="one.numerator" horiz-adv-x="282" 
d="M46 633q28 0 45.5 4t27.5 12t14 21t4 30h78v-385h-90v255h-79v63z" />
    <glyph glyph-name="two.numerator" horiz-adv-x="377" 
d="M55 315q0 47 7.5 79t21 54t32 37t41.5 29q34 20 57 37.5t23 46.5q0 23 -12.5 33t-31.5 10q-21 0 -35 -13t-14 -43h-88q0 53 35.5 88t101.5 35q26 0 50 -6.5t42 -21t28.5 -36.5t10.5 -52q0 -25 -10.5 -44.5t-25.5 -35t-32.5 -27t-31.5 -20.5q-20 -13 -33 -22.5t-21 -18
t-11 -17t-3 -20.5h166v-72h-267v0z" />
    <glyph glyph-name="four.numerator" horiz-adv-x="395" 
d="M215 422h-153v278h88v-204h65v107h88v-107h47v-74h-47v-107h-88v107z" />
    <glyph glyph-name="three.numerator" horiz-adv-x="391" 
d="M136 444q0 -32 16.5 -49t42.5 -17q25 0 38 15.5t13 35.5q0 24 -12.5 38.5t-44.5 14.5h-34v69h34q30 0 40.5 13t10.5 34q0 23 -12 33t-32 10q-29 0 -39 -15t-10 -41h-88q0 25 7.5 47t24 39t42 27t61.5 10q27 0 51 -7t42.5 -20.5t29.5 -33.5t11 -47q0 -32 -17 -54.5
t-40 -30.5q26 -9 44.5 -32.5t18.5 -59.5q0 -28 -11.5 -49.5t-30.5 -36.5t-44 -22.5t-52 -7.5q-72 0 -110 38t-38 99h88z" />
    <glyph glyph-name="plus.numerator" horiz-adv-x="397" 
d="M163 354v84h-82v67h82v84h71v-84h82v-67h-82v-84h-71z" />
    <glyph glyph-name="parenleft.numerator" horiz-adv-x="279" 
d="M229 666q-33 0 -52 -22t-19 -54v-251q0 -31 19 -53.5t52 -22.5v-75q-36 0 -65.5 12t-49.5 32.5t-31 48t-11 58.5v251q0 31 11 58.5t31 48t49.5 32.5t65.5 12v-75z" />
    <glyph glyph-name="parenright.numerator" horiz-adv-x="279" 
d="M50 741q36 0 65.5 -12t49.5 -32.5t31 -48t11 -58.5v-251q0 -31 -11 -58.5t-31 -48t-49.5 -32.5t-65.5 -12v75q33 0 52 22.5t19 53.5v251q0 32 -19 54t-52 22v75z" />
    <glyph glyph-name="equal.numerator" horiz-adv-x="397" 
d="M81 487v67h235v-67h-235zM81 388v67h235v-67h-235z" />
    <glyph glyph-name="minus.numerator" horiz-adv-x="397" 
d="M81 438v67h235v-67h-235z" />
    <glyph glyph-name="zero.numerator" horiz-adv-x="399" 
d="M53 571q0 28 10 52.5t29 43.5t46 30t61 11t61 -11t46 -30t29.5 -43.5t10.5 -52.5v-127q0 -28 -10.5 -53t-29.5 -43.5t-46 -29.5t-61 -11t-61 11t-46 29.5t-29 43.5t-10 53v127zM258 571q0 26 -16 44.5t-43 18.5q-26 0 -42 -18.5t-16 -44.5v-127q0 -26 16 -44.5t42 -18.5
q27 0 43 18.5t16 44.5v127z" />
    <glyph glyph-name="five.numerator" horiz-adv-x="408" 
d="M68 700h259v-69h-178v-87q11 19 33.5 27.5t44.5 8.5q32 0 55.5 -11.5t39.5 -30t23.5 -42.5t7.5 -49q0 -29 -10 -54t-29 -44.5t-46.5 -30.5t-61.5 -11q-35 0 -62 11t-46 30t-29 44.5t-10 53.5h86q0 -27 16 -46.5t45 -19.5q28 0 44.5 19.5t16.5 47.5q0 26 -16 46t-45 20
q-38 0 -56 -36h-82v223z" />
    <glyph glyph-name="six.numerator" horiz-adv-x="390" 
d="M194 308q-35 0 -62 11t-46 30t-29 44t-10 54q0 45 23 80l111 173h100l-77 -116q6 -1 12 -2.5t11 -2.5q53 -8 83.5 -45t30.5 -87q0 -29 -10 -54t-29 -44t-46.5 -30t-61.5 -11zM194 381q28 0 44.5 19.5t16.5 46.5t-16.5 46.5t-44.5 19.5q-29 0 -45 -19.5t-16 -46.5
t16 -46.5t45 -19.5z" />
    <glyph glyph-name="seven.numerator" horiz-adv-x="351" 
d="M325 700l-164 -385h-94l133 311h-151v74h276z" />
    <glyph glyph-name="eight.numerator" horiz-adv-x="399" 
d="M200 307q-69 0 -107 34.5t-38 83.5q0 31 17 57t45 34q-25 10 -38.5 32.5t-13.5 49.5q0 45 35 77.5t100 32.5q32 0 57 -9t42 -24t26 -35t9 -42q0 -27 -13.5 -49.5t-38.5 -32.5q28 -9 45 -35t17 -56q0 -24 -9.5 -45t-28 -37.5t-45.5 -26t-61 -9.5zM200 545q23 0 36.5 14.5
t13.5 34.5q0 19 -13.5 33t-36.5 14q-25 0 -38 -14t-13 -33q0 -20 13 -34.5t38 -14.5zM200 374q27 0 42.5 16t15.5 37q0 20 -15 36.5t-43 16.5q-29 0 -44 -16t-15 -37q0 -22 15.5 -37.5t43.5 -15.5z" />
    <glyph glyph-name="nine.numerator" horiz-adv-x="390" 
d="M196 707q34 0 61.5 -11t46.5 -30t29 -44.5t10 -53.5q0 -23 -6.5 -43t-17.5 -37l-111 -173h-99l77 115q-64 4 -100.5 42.5t-36.5 95.5q0 28 10 53.5t29 44.5t46 30t62 11zM196 634q-28 0 -44.5 -19.5t-16.5 -46.5t16.5 -46.5t44.5 -19.5t44.5 19.5t16.5 46.5t-16.5 46.5
t-44.5 19.5z" />
    <glyph glyph-name="ksuperior" horiz-adv-x="364" 
d="M228 447l103 -132h-100l-82 111v-111h-83v385h83v-232l82 112h100z" />
    <glyph glyph-name="osuperior" horiz-adv-x="390" 
d="M195 308q-35 0 -62 11t-46 30t-29 44.5t-10 53.5t10 53.5t29 45t46 30.5t62 11q34 0 61.5 -11t46.5 -30.5t29 -45t10 -53.5t-10 -53.5t-29 -44.5t-46.5 -30t-61.5 -11zM195 379q29 0 46 20t17 48q0 29 -17 48.5t-46 19.5t-46.5 -19.5t-17.5 -48.5q0 -28 17.5 -48
t46.5 -20z" />
    <glyph glyph-name="bsuperior" horiz-adv-x="410" 
d="M149 315h-83v385h83v-158q10 18 32.5 31t48.5 13q29 0 53 -10.5t41 -29.5t26.5 -44t9.5 -55t-9.5 -55t-26.5 -44t-41 -29.5t-53 -10.5q-26 0 -48.5 13t-32.5 32v-38zM213 379q29 0 46 20t17 48t-17 48t-46 20t-46.5 -20t-17.5 -48t17.5 -48t46.5 -20z" />
    <glyph glyph-name="csuperior" horiz-adv-x="376" 
d="M243 476q-2 18 -14 29t-38 11q-31 0 -45.5 -20.5t-14.5 -48.5t15 -48t48 -20q22 0 33 9t16 26h84q-6 -45 -40 -75.5t-97 -30.5q-35 0 -61.5 11.5t-44.5 30.5t-27 44.5t-9 52.5q0 28 9 53t27 44.5t44.5 31t61.5 11.5q33 0 58 -9.5t41.5 -25t25.5 -35.5t11 -41h-83z" />
    <glyph glyph-name="esuperior" horiz-adv-x="377" 
d="M133 427q0 -24 13 -41.5t45 -17.5q23 0 34 9t16 22h81q-6 -38 -39.5 -64.5t-90.5 -26.5q-35 0 -61.5 11t-44.5 29.5t-27.5 44t-9.5 54.5t9 54.5t27 44.5t44 30t61 11q31 0 56 -10t43 -26.5t27.5 -38.5t9.5 -46q0 -15 -3 -39h-190zM189 528q-24 0 -40 -13.5t-16 -39.5h110
q0 24 -15 38.5t-39 14.5z" />
    <glyph glyph-name="dsuperior" horiz-adv-x="409" 
d="M259 353q-9 -19 -32 -32t-49 -13q-29 0 -52.5 10.5t-40.5 29.5t-26.5 44t-9.5 55t9.5 55t26.5 44t40.5 29.5t52.5 10.5q26 0 49 -13t32 -31v158h84v-385h-84v38zM196 379q29 0 46 20t17 48t-17 48t-46 20t-46.5 -20t-17.5 -48t17.5 -48t46.5 -20z" />
    <glyph glyph-name="fsuperior" horiz-adv-x="269" 
d="M232 638q-12 4 -26 4t-25 -5.5t-11 -28.5v-28h62v-63h-62v-202h-83v202h-48v63h48v23q0 36 9.5 56.5t24.5 31t32.5 13t33.5 2.5q15 0 26 -2.5t19 -4.5v-61z" />
    <glyph glyph-name="gsuperior" horiz-adv-x="407" 
d="M196 515q-29 0 -46.5 -20t-17.5 -48t17.5 -48t46.5 -20t46 20t17 48t-17 48t-46 20zM343 316q0 -69 -36.5 -98.5t-112.5 -29.5q-73 0 -106.5 30t-35.5 76h84q2 -17 16 -30.5t42 -13.5q30 0 47.5 14.5t17.5 46.5v43q-11 -19 -32.5 -30.5t-47.5 -11.5q-29 0 -53 10t-41 28
t-26.5 42.5t-9.5 54.5t9 55t26 44t40.5 29.5t52.5 10.5q26 0 48.5 -11.5t33.5 -32.5v38h84v-264z" />
    <glyph glyph-name="tsuperior" horiz-adv-x="270" 
d="M230 315q-9 -2 -23 -3t-32 -1q-15 0 -31.5 2t-30.5 11.5t-23 28t-9 51.5v113h-42v63h42v78h83v-78h60v-63h-60v-94q0 -30 10 -38t26 -8q8 0 16.5 0.5t13.5 1.5v-64z" />
    <glyph glyph-name="isuperior" horiz-adv-x="235" 
d="M117 615q-22 0 -37.5 15.5t-15.5 37.5t15.5 37.5t37.5 15.5q23 0 38.5 -15.5t15.5 -37.5t-15.5 -37.5t-38.5 -15.5zM159 580v-265h-83v265h83z" />
    <glyph glyph-name="zsuperior" horiz-adv-x="324" 
d="M286 580l-116 -194h112v-71h-242l117 194h-110v71h239z" />
    <glyph glyph-name="psuperior" horiz-adv-x="410" 
d="M149 542q10 18 32.5 31t48.5 13q29 0 53 -10.5t41 -29.5t26.5 -44t9.5 -55t-9.5 -55t-26.5 -44t-41 -29.5t-53 -10.5q-26 0 -48.5 13t-32.5 32v-158h-83v385h83v-38zM213 515q-29 0 -46.5 -20t-17.5 -48q0 -27 17.5 -47.5t46.5 -20.5t46 20.5t17 47.5q0 28 -17 48t-46 20
z" />
    <glyph glyph-name="qsuperior" horiz-adv-x="410" 
d="M260 580h84v-385h-84v158q-9 -19 -32 -32t-49 -13q-29 0 -52.5 10.5t-40.5 29.5t-26.5 44t-9.5 55t9.5 55t26.5 44t40.5 29.5t52.5 10.5q26 0 49 -13t32 -31v38zM197 515q-29 0 -46.5 -20t-17.5 -48q0 -27 17.5 -47.5t46.5 -20.5t46 20.5t17 47.5q0 28 -17 48t-46 20z
" />
    <glyph glyph-name="rsuperior" horiz-adv-x="289" 
d="M256 504q-16 4 -30 4q-35 0 -56 -20.5t-21 -68.5v-104h-83v265h83v-43q9 19 31 33t50 14q15 0 26 -4v-76z" />
    <glyph glyph-name="ssuperior" horiz-adv-x="339" 
d="M205 471q17 -6 32.5 -11.5t27 -14t18 -21t6.5 -31.5q0 -24 -9.5 -40t-25.5 -26t-37.5 -14.5t-46.5 -4.5q-57 0 -89.5 25t-32.5 71h82q0 -22 12 -31t31 -9q15 0 25 6t10 19q0 15 -17 21.5t-55 18.5q-17 5 -31.5 10.5t-25.5 14t-17.5 21t-6.5 31.5q0 42 31.5 61.5
t84.5 19.5q58 0 86 -25.5t28 -63.5h-82q0 34 -35 34q-13 0 -22 -6t-9 -18q0 -14 17 -20t51 -17z" />
    <glyph glyph-name="usuperior" horiz-adv-x="393" 
d="M327 315h-83v38q-11 -21 -33.5 -33t-53.5 -12q-26 0 -45 8.5t-30 22.5q-12 16 -16 35.5t-4 48.5v157h83v-136q0 -29 10.5 -47t36.5 -18t39 18.5t13 49.5v133h83v-265z" />
    <glyph glyph-name="msuperior" horiz-adv-x="542" 
d="M399 315v143q0 27 -9.5 42t-31.5 15q-20 0 -32.5 -14.5t-12.5 -52.5v-133h-81v143q0 27 -9 42t-30 15q-20 0 -33 -14.5t-13 -53.5v-132h-81v265h81v-38q8 18 28 31t48 13q35 0 53.5 -13.5t26.5 -33.5q11 20 32.5 33.5t50.5 13.5t47 -9t28.5 -24t14 -34.5t3.5 -40.5v-163
h-80z" />
    <glyph glyph-name="vsuperior" horiz-adv-x="362" 
d="M117 580l64 -167l65 167h87l-119 -265h-67l-118 265h88z" />
    <glyph glyph-name="asuperior" horiz-adv-x="409" 
d="M343 580v-265h-84v38q-9 -19 -32 -32t-49 -13q-29 0 -52.5 10.5t-40.5 29.5t-26.5 44t-9.5 55t9.5 55t26.5 44t40.5 29.5t52.5 10.5q26 0 49 -13t32 -31v38h84zM196 379q29 0 46 20t17 48t-17 48t-46 20t-46.5 -20t-17.5 -48t17.5 -48t46.5 -20z" />
    <glyph glyph-name="lsuperior" horiz-adv-x="215" 
d="M66 700h83v-385h-83v385z" />
    </font>
</defs>
</svg>
